<mxfile host="app.diagrams.net" modified="2023-11-16T14:47:20.162Z" agent="Mozilla/5.0 (Windows NT 10.0; Win64; x64) AppleWebKit/537.36 (KHTML, like Gecko) Chrome/118.0.0.0 Safari/537.36" etag="dGjo7ejUKqE1yrzkMAy7" version="22.1.2" type="device">
  <diagram name="Page-1" id="JOB2ps2UxxN8TjC2JE24">
    <mxGraphModel dx="3074" dy="827" grid="1" gridSize="10" guides="1" tooltips="1" connect="1" arrows="1" fold="1" page="1" pageScale="1" pageWidth="1654" pageHeight="1169" math="0" shadow="0">
      <root>
        <mxCell id="0" />
        <mxCell id="1" parent="0" />
        <mxCell id="DCACu17-N9n2SlaQlLxh-14" value="" style="whiteSpace=wrap;html=1;dashed=1;" vertex="1" parent="1">
          <mxGeometry x="-1299" y="250" width="1130" height="550" as="geometry" />
        </mxCell>
        <mxCell id="DCACu17-N9n2SlaQlLxh-46" value="" style="whiteSpace=wrap;html=1;" vertex="1" parent="1">
          <mxGeometry x="-409" y="352" width="147" height="370" as="geometry" />
        </mxCell>
        <mxCell id="DCACu17-N9n2SlaQlLxh-61" value="" style="image;aspect=fixed;html=1;points=[];align=center;fontSize=12;image=img/lib/azure2/storage/Azure_Fileshare.svg;" vertex="1" parent="1">
          <mxGeometry x="-373" y="492" width="68" height="68" as="geometry" />
        </mxCell>
        <mxCell id="DCACu17-N9n2SlaQlLxh-34" value="" style="whiteSpace=wrap;html=1;" vertex="1" parent="1">
          <mxGeometry x="-1159" y="351" width="600" height="368" as="geometry" />
        </mxCell>
        <mxCell id="DCACu17-N9n2SlaQlLxh-35" value="" style="image;aspect=fixed;html=1;points=[];align=center;fontSize=12;image=img/lib/azure2/networking/Virtual_Networks.svg;" vertex="1" parent="1">
          <mxGeometry x="-619" y="708" width="37" height="22.09" as="geometry" />
        </mxCell>
        <mxCell id="DCACu17-N9n2SlaQlLxh-36" value="" style="whiteSpace=wrap;html=1;" vertex="1" parent="1">
          <mxGeometry x="-1129" y="383" width="150" height="140" as="geometry" />
        </mxCell>
        <mxCell id="DCACu17-N9n2SlaQlLxh-39" value="" style="whiteSpace=wrap;html=1;" vertex="1" parent="1">
          <mxGeometry x="-1126" y="558.09" width="147" height="140" as="geometry" />
        </mxCell>
        <mxCell id="DCACu17-N9n2SlaQlLxh-64" value="" style="image;aspect=fixed;html=1;points=[];align=center;fontSize=12;image=img/lib/azure2/identity/Azure_AD_Domain_Services.svg;" vertex="1" parent="1">
          <mxGeometry x="-1280" y="282.66" width="45" height="41.14" as="geometry" />
        </mxCell>
        <mxCell id="DCACu17-N9n2SlaQlLxh-98" style="edgeStyle=orthogonalEdgeStyle;rounded=0;orthogonalLoop=1;jettySize=auto;html=1;exitX=1;exitY=0.5;exitDx=0;exitDy=0;startArrow=classic;startFill=1;" edge="1" parent="1" source="DCACu17-N9n2SlaQlLxh-65" target="DCACu17-N9n2SlaQlLxh-46">
          <mxGeometry relative="1" as="geometry" />
        </mxCell>
        <mxCell id="DCACu17-N9n2SlaQlLxh-65" value="" style="whiteSpace=wrap;html=1;" vertex="1" parent="1">
          <mxGeometry x="-882" y="382" width="243" height="310" as="geometry" />
        </mxCell>
        <mxCell id="DCACu17-N9n2SlaQlLxh-66" value="" style="whiteSpace=wrap;html=1;" vertex="1" parent="1">
          <mxGeometry x="-849" y="420" width="160" height="90" as="geometry" />
        </mxCell>
        <mxCell id="DCACu17-N9n2SlaQlLxh-67" value="" style="whiteSpace=wrap;html=1;" vertex="1" parent="1">
          <mxGeometry x="-843" y="560" width="164" height="95" as="geometry" />
        </mxCell>
        <mxCell id="DCACu17-N9n2SlaQlLxh-69" value="" style="image;aspect=fixed;html=1;points=[];align=center;fontSize=12;image=img/lib/azure2/compute/Virtual_Machine.svg;" vertex="1" parent="1">
          <mxGeometry x="-829" y="426" width="37.73" height="35" as="geometry" />
        </mxCell>
        <mxCell id="DCACu17-N9n2SlaQlLxh-71" value="" style="image;aspect=fixed;html=1;points=[];align=center;fontSize=12;image=img/lib/azure2/compute/Virtual_Machine.svg;" vertex="1" parent="1">
          <mxGeometry x="-789" y="465" width="37.73" height="35" as="geometry" />
        </mxCell>
        <mxCell id="DCACu17-N9n2SlaQlLxh-72" value="" style="image;aspect=fixed;html=1;points=[];align=center;fontSize=12;image=img/lib/azure2/compute/Virtual_Machine.svg;" vertex="1" parent="1">
          <mxGeometry x="-746" y="426" width="37.73" height="35" as="geometry" />
        </mxCell>
        <mxCell id="DCACu17-N9n2SlaQlLxh-73" value="" style="image;aspect=fixed;html=1;points=[];align=center;fontSize=12;image=img/lib/azure2/compute/Virtual_Machine.svg;" vertex="1" parent="1">
          <mxGeometry x="-819" y="572" width="37.73" height="35" as="geometry" />
        </mxCell>
        <mxCell id="DCACu17-N9n2SlaQlLxh-74" value="" style="image;aspect=fixed;html=1;points=[];align=center;fontSize=12;image=img/lib/azure2/compute/Virtual_Machine.svg;" vertex="1" parent="1">
          <mxGeometry x="-779" y="611" width="37.73" height="35" as="geometry" />
        </mxCell>
        <mxCell id="DCACu17-N9n2SlaQlLxh-75" value="" style="image;aspect=fixed;html=1;points=[];align=center;fontSize=12;image=img/lib/azure2/compute/Virtual_Machine.svg;" vertex="1" parent="1">
          <mxGeometry x="-736" y="572" width="37.73" height="35" as="geometry" />
        </mxCell>
        <mxCell id="DCACu17-N9n2SlaQlLxh-79" value="AVD Personal Host Pool" style="text;strokeColor=none;align=center;fillColor=none;html=1;verticalAlign=middle;whiteSpace=wrap;rounded=0;fontStyle=1" vertex="1" parent="1">
          <mxGeometry x="-811.27" y="390" width="82.27" height="30" as="geometry" />
        </mxCell>
        <mxCell id="DCACu17-N9n2SlaQlLxh-80" value="AVD Shared Host Pool" style="text;strokeColor=none;align=center;fillColor=none;html=1;verticalAlign=middle;whiteSpace=wrap;rounded=0;fontStyle=1" vertex="1" parent="1">
          <mxGeometry x="-804.27" y="528" width="82.27" height="30" as="geometry" />
        </mxCell>
        <mxCell id="DCACu17-N9n2SlaQlLxh-81" value="fslogix Profile Container FIle Share" style="text;strokeColor=none;align=center;fillColor=none;html=1;verticalAlign=middle;whiteSpace=wrap;rounded=0;fontStyle=1" vertex="1" parent="1">
          <mxGeometry x="-379" y="574" width="90" height="30" as="geometry" />
        </mxCell>
        <mxCell id="DCACu17-N9n2SlaQlLxh-83" value="DEV-Vnet-01" style="text;strokeColor=none;align=center;fillColor=none;html=1;verticalAlign=middle;whiteSpace=wrap;rounded=0;" vertex="1" parent="1">
          <mxGeometry x="-636" y="730" width="78" height="30" as="geometry" />
        </mxCell>
        <mxCell id="DCACu17-N9n2SlaQlLxh-86" value="" style="image;aspect=fixed;html=1;points=[];align=center;fontSize=12;image=img/lib/azure2/compute/Virtual_Machine.svg;" vertex="1" parent="1">
          <mxGeometry x="-1113" y="417" width="37.73" height="35" as="geometry" />
        </mxCell>
        <mxCell id="DCACu17-N9n2SlaQlLxh-87" value="" style="image;aspect=fixed;html=1;points=[];align=center;fontSize=12;image=img/lib/azure2/compute/Virtual_Machine.svg;" vertex="1" parent="1">
          <mxGeometry x="-1073" y="456" width="37.73" height="35" as="geometry" />
        </mxCell>
        <mxCell id="DCACu17-N9n2SlaQlLxh-88" value="" style="image;aspect=fixed;html=1;points=[];align=center;fontSize=12;image=img/lib/azure2/compute/Virtual_Machine.svg;" vertex="1" parent="1">
          <mxGeometry x="-1030" y="417" width="37.73" height="35" as="geometry" />
        </mxCell>
        <mxCell id="DCACu17-N9n2SlaQlLxh-89" value="" style="image;aspect=fixed;html=1;points=[];align=center;fontSize=12;image=img/lib/azure2/compute/Virtual_Machine.svg;" vertex="1" parent="1">
          <mxGeometry x="-1111" y="592" width="37.73" height="35" as="geometry" />
        </mxCell>
        <mxCell id="DCACu17-N9n2SlaQlLxh-90" value="" style="image;aspect=fixed;html=1;points=[];align=center;fontSize=12;image=img/lib/azure2/compute/Virtual_Machine.svg;" vertex="1" parent="1">
          <mxGeometry x="-1071" y="631" width="37.73" height="35" as="geometry" />
        </mxCell>
        <mxCell id="DCACu17-N9n2SlaQlLxh-91" value="" style="image;aspect=fixed;html=1;points=[];align=center;fontSize=12;image=img/lib/azure2/compute/Virtual_Machine.svg;" vertex="1" parent="1">
          <mxGeometry x="-1028" y="592" width="37.73" height="35" as="geometry" />
        </mxCell>
        <mxCell id="DCACu17-N9n2SlaQlLxh-92" value="Dev-APP-SNet-01" style="text;strokeColor=none;align=center;fillColor=none;html=1;verticalAlign=middle;whiteSpace=wrap;rounded=0;fontStyle=1" vertex="1" parent="1">
          <mxGeometry x="-1118.54" y="382" width="126.27" height="30" as="geometry" />
        </mxCell>
        <mxCell id="DCACu17-N9n2SlaQlLxh-93" value="Dev-DB-SNet-01" style="text;strokeColor=none;align=center;fillColor=none;html=1;verticalAlign=middle;whiteSpace=wrap;rounded=0;fontStyle=1" vertex="1" parent="1">
          <mxGeometry x="-1117.27" y="558" width="126.27" height="30" as="geometry" />
        </mxCell>
        <UserObject label="Dev-AVD-SNet-01" id="DCACu17-N9n2SlaQlLxh-94">
          <mxCell style="text;strokeColor=none;align=center;fillColor=none;html=1;verticalAlign=middle;whiteSpace=wrap;rounded=0;fontStyle=1" vertex="1" parent="1">
            <mxGeometry x="-765" y="662" width="110" height="30" as="geometry" />
          </mxCell>
        </UserObject>
        <mxCell id="DCACu17-N9n2SlaQlLxh-95" value="ADDS&lt;br&gt;albtests.com" style="text;strokeColor=none;align=center;fillColor=none;html=1;verticalAlign=middle;whiteSpace=wrap;rounded=0;fontStyle=1" vertex="1" parent="1">
          <mxGeometry x="-1290" y="330" width="90" height="30" as="geometry" />
        </mxCell>
        <mxCell id="DCACu17-N9n2SlaQlLxh-96" style="edgeStyle=orthogonalEdgeStyle;rounded=0;orthogonalLoop=1;jettySize=auto;html=1;exitX=0;exitY=0.25;exitDx=0;exitDy=0;entryX=0.98;entryY=0.55;entryDx=0;entryDy=0;entryPerimeter=0;" edge="1" parent="1" source="DCACu17-N9n2SlaQlLxh-65" target="DCACu17-N9n2SlaQlLxh-36">
          <mxGeometry relative="1" as="geometry" />
        </mxCell>
        <mxCell id="DCACu17-N9n2SlaQlLxh-97" style="edgeStyle=orthogonalEdgeStyle;rounded=0;orthogonalLoop=1;jettySize=auto;html=1;exitX=0;exitY=0.75;exitDx=0;exitDy=0;entryX=0.973;entryY=0.399;entryDx=0;entryDy=0;entryPerimeter=0;" edge="1" parent="1" source="DCACu17-N9n2SlaQlLxh-65" target="DCACu17-N9n2SlaQlLxh-39">
          <mxGeometry relative="1" as="geometry" />
        </mxCell>
        <mxCell id="DCACu17-N9n2SlaQlLxh-19" value="Untitled Layer" parent="0" />
        <UserObject label="" tags="Background" id="DCACu17-N9n2SlaQlLxh-20">
          <mxCell style="vsdxID=2;fillColor=none;gradientColor=none;image;aspect=fixed;strokeColor=none;points=[];labelBackgroundColor=none;rounded=0;html=1;whiteSpace=wrap;;image=data:image/jpg,/9j/4AAQSkZJRgABAQAAAQABAAD/4gHYSUNDX1BST0ZJTEUAAQEAAAHIAAAAAAQwAABtbnRyUkdCIFhZWiAH4AABAAEAAAAAAABhY3NwAAAAAAAAAAAAAAAAAAAAAAAAAAAAAAAAAAAAAQAA9tYAAQAAAADTLQAAAAAAAAAAAAAAAAAAAAAAAAAAAAAAAAAAAAAAAAAAAAAAAAAAAAAAAAAAAAAAAAAAAAlkZXNjAAAA8AAAACRyWFlaAAABFAAAABRnWFlaAAABKAAAABRiWFlaAAABPAAAABR3dHB0AAABUAAAABRyVFJDAAABZAAAAChnVFJDAAABZAAAAChiVFJDAAABZAAAAChjcHJ0AAABjAAAADxtbHVjAAAAAAAAAAEAAAAMZW5VUwAAAAgAAAAcAHMAUgBHAEJYWVogAAAAAAAAb6IAADj1AAADkFhZWiAAAAAAAABimQAAt4UAABjaWFlaIAAAAAAAACSgAAAPhAAAts9YWVogAAAAAAAA9tYAAQAAAADTLXBhcmEAAAAAAAQAAAACZmYAAPKnAAANWQAAE9AAAApbAAAAAAAAAABtbHVjAAAAAAAAAAEAAAAMZW5VUwAAACAAAAAcAEcAbwBvAGcAbABlACAASQBuAGMALgAgADIAMAAxADb/2wBDAAMCAgICAgMCAgIDAwMDBAYEBAQEBAgGBgUGCQgKCgkICQkKDA8MCgsOCwkJDRENDg8QEBEQCgwSExIQEw8QEBD/2wBDAQMDAwQDBAgEBAgQCwkLEBAQEBAQEBAQEBAQEBAQEBAQEBAQEBAQEBAQEBAQEBAQEBAQEBAQEBAQEBAQEBAQEBD/wAARCAE+BkYDASIAAhEBAxEB/8QAHQABAAEFAQEBAAAAAAAAAAAAAAECBgcICQUEA//EAGoQAAECBAMEBAQMDgsNBwMFAAEAAgMEBREGByEIEjFBE1FhcQkigZEUFRYYMjdCUlZ1odEjNWJygpOUlbGys7TS8BczNjhDc3SSosHEJCUmNFNUVWNkdsLD4URFV2WD0/EnRoQoZqOk4v/EABsBAQACAwEBAAAAAAAAAAAAAAAGBwEEBQMC/8QAQREAAgECBAIFCQYGAQQDAQAAAAECAwQFBhEhMXESQVGRsRMUIjJhgaHB0RUWNDVS4SMzQlNy8PElQ2KiJIKS0v/aAAwDAQACEQMRAD8A6poiIAiIgCIiAIiIAiIgCIiAIiIAiIgCIiAIiIAiIgCIiAIiIAii6BASiIgCIiAIiIAiIgCIiAIiIAiIgCIiAIiIAiIgCIiAIiIAiIgCIiAIiIAiIgCIiAIiIAiIgCIiAIiIAiIgCIiAIiIAiIgCIiAIiIAiIgCIiAIiIAiIgCIiAIiIAiIgCIiAIiIAiIgCIiAIiIAiIgCIiAIiIAiIgCIiAIiIAiIgCIiAIiIAiIgCIiAIiIAiIgCIiAIiIAiIgCIiAIiIAiIgCIiAIiIAiIgCIiAIiIAiIgCIiAIiIAiIgCIiAIiIAiIgCIiAIiIAiIgCIiAIiIAiIgCIiAIiIAiIgCIiAIiIAiIgCIiAIiIAiIgCIiAIiIAiIgCIiAIiIAiIgCIiAIiIAiIgCIiAIiIAiIgCIiAIigmyAE2VJfbiNOtHOtda97RW1ZQMqJeNh7DL4FUxQ9thDvvQZO/uopHMcQ1bNpZ1r6qqNGOrZqXl7RsaTq1nojIeZ2cVBy9iyFCG7PYjrcVsvTKXCcDEiucbB7h7ll76njY2vYq/JL0SZWCZvcMbcHSbl93etra/K60j2N8K1/NLMWr524+mY9Qi053QSkSPqHTTvZOb1BjdABp431IW8AAAvfQrYxO0hYVVbJ6yS3ft7DWwu8qX9N12tIt7ciscFKpuUuVzjqFSKm5S5QFSKm5S5QFSKm5S5QFSKm5S5QFSKm5S5QFSKm5S5QFSKm5S5QFSKm5S5QFSKm5S5QFSKm5S5QFSKm5VSAIiIAiIgCIiAIiIAiIgCIiAIiIAiIgCIiAIiIAiIgCIiAIiIAiIgCIiAIiIAiIgCIiAIiIAiIgCIiAIiIAiIgCIiAIiIAiIgCIiAIiIAiIgCIiAIiIAiIgCIiAIiIAiIgCIiAIiIAiIgCIiAIiIAiIgCIiAIiIAiIgCIiAIiIAiIgCIiAIiIAiIgCIiAIiIAiIgCIiAIiIAiIgCIiAIiIAiIgCIiAIiIAiIgCIiAIiIAiIgCIiAIiIAiIgCIiAIiIAiIgCIiAIiIAiIgCIiAIiIAiIgCIiAIiIAiIgCIiAIiIAiIgCIiAIiICL62UqEPUgAX5xo0OEwxIjg1jRvFzjYAdZK+Ss1ul4epkzWK1PQZKSlIZixo8Z4axjRxJK0K2kdrupY7dHwdl1MRZKgjxY8627I059SObWa8OJ59S6WGYVcYrU6FFbdb6kcrE8Xt8Lh0qj1fUi/9pXbG9Kos5gbKebhRptm9AnKs3xmQXcHNhci7iN69getaXwZaq4hrEKWgCPPVGpTAht33F0SNGe6wuffEnj28l8o8UDevpprxstjdiLLB+MMyImM6hL71Pwy1sRhI0dNOvujyNJKsyNtbZdsZzhxS49bZWs7m5x+9hTqdb4LqRupknl1Ayty4o2EIbWGNLwREm4jR7OO7V585t3BX6eA1QCzdQjyA09iqStWlXqOrPi3qWxQowt6SpQ4JH4RZyVgRoUCNMQ2RI5Ihtc4AvIFzYc7BfsNQCRa60f2vs8axh/OfDdOwzObvqQ3ZyKxrrCLGiEbzHHqLAG9lytu8vMc0fMjB1MxlQYu/K1KA2KGn2UN/umOHItcCD2hb11hla1t6dzJbT+H/JpWuKUbu5qW8XvD4lyoiLnHUCIiAIiIAiIgCIiAIiIAiIgCIiAIiIAiIgCrVCrQBERAEREAREQBERAEREAREQBERAEREAREQBERAEREAREQBERAEREAREQBERAEREAREQBERAEREAREQBERAEREAREQBERAEREAREQBERAEREAREQBERAEREAREQBERAEREAREQBERAEREAREQBERAEREAREQBERAEREAREQBERAEREAREQBERAEREAREQBERAEREAREQBERAEREAREQBERAEREAREQBERAEREAREQBERAEREAREQBERAEREAREQBERAEREAREQBERAEREAREQBERAEREAREQBERAEREAREQBERAEREAREQBFFwLqhxIvbgsDjsVEjnyVu44x9hfLzD8ziTFNThyUnLtJu4jeiHiGsHFzjyAVr5yZ6YOyZobp6uzbI1Qjtd6Dp8N30WO4dnuW9p071zhzWzjxjnFiGJWsTTrmy7SRKSEMkQZZvINHN3W46nsGikeCZerYpLpy9Gmuvt5EbxvMNHDIOEPSqPq7OZdef20rinOmedT4XSUzDcGJvS9Pa6zohB0iRSOLvqeA79Vh9ttTYA9YAuqC0XvbndVNNr99lalpZ0bKkqNFaJFW3N3VvKrrVnq2VMhRI0VsGCzee8hrAOJJ0C6k7N+WkHK7Kmk0V0uGT8yz0ZPOt4zo0QXIJ52Fh5FpNsh5WnMbNWWqc9LmJScN7s9M3F2vi/wUPtudSOoFdKmDxbDuUCzniHTnGzp9W759RO8nYf0YyvJdey+pVcgaBefXqrJ0OjT1ZqEVsKXkYD5iK9x0DWtJK9C5stdduHHxwvlDGw9KTHRzmI47JMAHXoQQYnyC3lUPsbZ3dxCkutkuxC5jaW060upGg2PMUzOOsZ1jFk0676lNxI7QdbMJ8UfzQFsVsOZ0DC+JYuWFfm92nVt5iU5znaQZu1zDPUHgG31QA13lqswFui/eVmpiQnIE/JRnwpiXiMiQ4jDYsc03Bv2EAq5L/DKV5Yu00200XNFPWGJVbS986T3139uvE7NMJLBvDXmixds8ZvSmb+XUlWjFb6aygEtU4Q4w44HG3U4WI7z1LKOvNUvcUZ21WVGotGi57W4p3VKNam9mERF5HuEREAREQBERAEREAREQBERAEREAREQBVqhVoAiIgCIiAIiIAiIgCIiAIiIAiIgCIiAIiIAiIgCIiAIiIAiIgCIiAIiIAiIgCIiAIiIAiIgCIiAIiIAiIgCIiAIiIAiIgCIiAIiIAiIgCIiAIiIAiIgCIiAIiIAiIgCIiAIiIAiIgCIiAIiIAiIgCIiAIiIAiIgCIiAIiIAiIgCIiAIiIAiIgCIiAIiIAiIgCIiAIiIAiIgCIiAIiIAiIgCIiAIiIAiIgCIiAIiIAiIgCIiAIiIAiIgCIiAIiIAiIgCIiAIiIAiIgCIiAIiIAiIgCIiAIiIAiIgCIiAIiIAiIgCIiAgmyXQr84kVkJpc9wa0C9zw86x16GG9FqS51iVgjaK2naDlDIPolFMGp4ojs+hy3SeJKg/wAJFtfhybxPYrF2k9sGUwsZrBOWEyybq9jDm6iyzocpyLWe+ifIO3gtGZyenqlOxqjU5uLNzUw90WNHivL3xHni4k8dVM8Byy7pq4u9o9S7SF49mZW6dta7y632HpYrxbiHHVdmcR4pqMWdn5o3e+IdGjk1o4ADqXjgAE6KreHao4knrVl06UaMFCC0SK6nUlVk5z3bIQX1LdSOAQmyyrsy5bOzPzZpdMmJcxabTnemE+bXb0UMizHdjnbot2nqXjeXEbShOvPglqelrQlc1o0o8Wzd7ZMysblxlXJRZyAYdVrzW1CcDh4zA4fQ4Z7mEXHIucs1g2FgFTChiGwMY0BoAAA4AKux6lR91cTu68q1R7tl22dtG0oRow4JEF5aCTyXOLbZzC9WGcMXD8lHL5DDcs2StfxTMu8eKR3Asae0Fb+Zg4slME4NrGKJ57Ww6bJxI+vAkA7o8psPKuRdVqM5WKrOVefjGLNT0w+ZjPJvvOe4uN/KVLcm2PlK8rqS2itFzZEs53vk6EbaPGW75I+aw7EcARqLjgR2KexFZjRWWmxmXZVzf/YqzIgipzJh0OtlsrP39iwk2ZFPVuk6nqJXTVkWHGhtiw3hzHgOa4G4IPArjKDYO7tF0T2Ns5W5i4BGGKtOMfW8OtbLva8+PFl7fQ39vCxPWO1QDOOFarz6mvZL5MsLJ+K7uyqP2x+ZsUii+ttVKr4sEIiIAiIgCIiAIiIAiIgCIiAIiIAiIgCrVCrQBERAEREAREQBERAEREAREQBERAEREAREQBERAEREAREQBERAEREAREQBERAEREAREQBERAEREAREQBERAEREAREQBERAEREAREQBERAEREAREQBERAEREAREQBERAEREAREQBERAEREAREQBERAEREAREQBERAEREAREQBERAEREAREQBERAEREAREQBERAEREAREQBERAEREAREQBERAEREAREQBERAEREAREQBERAEREAREQBERAEREAREQBERAEREAREQBERAEREAREQBERAEREAREQBERAEREAREQBERARdRvaqHHiLrwsX40w5gShzGIMUVWDIyUs0ufEiH2X1LRxc48gLr6hCU5KMVrqec6sacXKb0SPUqVVkKRJx6jU5uFKystDMWNGivDWMYOJJPBaJbSW1/OYw9E4MyzmY0pSLmHMVFh3Ys0Bpus6mHzlWPtCbT2I845+NR6Q+PTMLQoloMpez5sDg+Nbr4hmoGnErBwZu3sfkVi4BldUYq5u1rLqXZzK6x7M7rSdta7R632kBr9S92846knmb8ev8AXmqhwTU80N+tTjQheqe5OihFKyCHWDSeoXXRnYzyvGA8sIVdnpYMqmJCJyMSPGEED6E3sFjfvcVpLkTlpFzXzMpGFYjXmQMX0RUHj3Mu3Vw8tgPKurEpJy8jKQZKVYIcGBDbDhsbwa1osAoDnLEejGNnHr3fyJzk/D+nKV3Pq2R9AHyJflZQ08Lql77X1twKrz2osLXY1P2/cxIlIwfR8vqfG3Y1cmDNTdjqJeD7EHsMQg/Ydq0T05Cyy1tUY9dmBnPW5uDHESSpjzTZQtN27kIkOI7C7ePmWJTra2iuPLll5jYwUlvLdlPZhvPPr+covZbIlFGvWlj1rvcDhAq8sn8xqjlXmDS8YSDn9HAidHNwm/w0u42e23M21HUVZuvWocL9R7/KvKvQhc0nTqcGmj3t6s6FSNSnxW52OoNcp+IqNJV2kTUOZk5+XhzMCLDNw+G9oLSO8L0e9aabB+cvoiXmMoa3NePADpukbztSy94kId3swOou6luSCHDqVJ4pYTw66lby6n8C58KxCGJWsa0ffzKkRFoHSCIiAIiIAiIgCIiAIiIAiIgCIiAKtUKtAEREAREQBERAEREAREQBERAEREAREQBERAEREAREQBERAEREAREQBERAEREAREQBERAEREAREQBERAEREAREQBERAEREAREQBERAEREAREQBERAEREAREQBERAEREAREQBERAEREAREQBERAEREAREQBERAEREAREQBERAEREAREQBERAEREAREQBERAEREAREQBERAEREAREQBERAEREAREQBERAEREAREQBERAEREAREQBERAEREAREQBERAEREAREQBERAEREAREQBERAEREAREQBERAEREAREQBERARdQXcQocdbcVhvaJ2iKLkfR4cJsv6PrtRY70FKNIAbb+EiHkwHzm/Be9tb1buqqNJayZrXV1Ts6TrVXokXHm/nVg3JygPq+JJ0OmIg3ZWRhG8aYfyAHIdZOi5x5xZ2YxzkrzqliGadBkYRIk6fCdaDLsvxt7p50O8fJZW5jXHOJcw6/MYmxVU4k5OzBvck7sNvJrG+5aOpeCBoBZWjguXaWGRVSr6VR/Aq/GcfqYlLydPaHiSbXuigDWylSmPAjElqyBoh5d6lQeXesBIlQXAC3X1qVdOVeBp3MfMGjYPkWFxn5gdK4C4hwm+M957A0Lyr1o0KUqs3oke9ClKvUjSgt2bobC+VbsNYIj5gVWVDZ7EDt2W3hq2VadD2Xdc+QLaMa69a+Ki0mTodKlKRT4TYUtJwGQITAPYtaLD8C+7hoFSGIXUr64lWk+L+HUXTh1nGxto0Y9S+IGix9nzjwZb5W17E8GIGTcOWdBkzz6d43WHyE38iyAdNVpXt/wCYTYkzQ8tZKY9i01Kda08L+LDaf6RsvfB7N317Cl1a6vkjxxm88xsp1evTRe804ixHx4r48Zxc+I4ucTrcnUqk8kF7W0GilXVFJJRXApuT6W75hERfZ8BERAehh3ENTwlX6fiWiR3y89TZhkzBiMOoLTfyg2sR1Ejmur2VWYFMzMwLSsY00tDZ6COmhtN+ijDR7PIfksVyR6uxbJ7E2cT8F42fgOsTVqPiF4bAD3eLAmxfdOvAO9j32USzXhXnlv5xTXpw+KJTlbFPMbjyNT1J7cn1HQpFLSC0EcFJ4KrC1OJSiIgCIiAIiIAiIgCIiAIiIAiIgCrVCrQBERAEREAREQBERAEREAREQBERAEREAREQBERAEREAREQBERAEREAREQBERAEREAREQBERAEREAREQBERAEREAREQBERAEREAREQBERAEREAREQBERAEREAREQBERAEREAREQBERAEREAREQBERAEREAREQBERAEREAREQBERAEREAREQBERAEREAREQBERAEREAREQBERAEREAREQBERAEREAREQBERAEREAREQBERAEREAREQBERAEREAREQBERAEREAREQBERAEREAREQBERAEREAREQBERAEREBBNkv2IqS4C+nlWH2g8/EFap+HaROV2rTDJeTkID5iNFcdGMaLkrlNnJmdUs3MeVDF08yJCgRndHJy0QgmBLtPiMPU62ptzJ4rZ3bqzr6KBCygoE0eki7szV4jDwbxZAv1nRxHVbrWljdCbcOSsnKOFOhTd5U9aXDl+5WmbcUVxVVrB+jHjzJaLceNkHBSoGimxDY66bjW97Jc9SlFlbINEXPUnFSiyYKXG3lW7+wNlc2QpNSzTqUvaPUbyFP326tgtIMRw73WH2JWnmCsI1PHmLqVg+jw96aqkw2A020YD7Jx7A0E+RdacIYXpeDcN03C1FlxCkaXLMloLee60AXJ5k2JJ5kqFZxxFUaCtIP0pbvkTLKFh5eu7qS2jw5nst0AClQ3gNbqVWjLJWnUflMx4UtAizEdwbDhsL3E9Q4rlBndjiLmNmhXsVGJvQY0yYcuQf4KH4rPkF10C2rMxhl1k/VpmWjblQqzfS2SsdQ+ICC77Fu8fIuYkNoa21ye9WBkuy2ndSXHZfMr7OV63KFpHq3fyKRfvU3RDy71P0kiCqTfElERZMhERARfWyqhRYsCJDjwIjocWC8RIcRrt1zHixa4HkQVTzumnErEoqUXF9ZjVp6o6g7MucULNvLeUnpuO11YpoEnUm31MUDR9vqhY95WX+IXLbZpzfmMocxpafmI7xRqoWylThctwnxYo7WH+iXLqFLTMGal4czLPbEhRWh7HNNw5pFwQqezDhbw27fRXoy3X0Ldy7if2hapSfpR2f1P1sepFULW0UHiuCSEhERAEREAREQBERAEREAREQBVqhVoAiIgCIiAgu1sOKd6pJse9SDfyrDMJk3S6jRNEBUipuBwUrJkKURAEREAREQEXCa34KL6nVQTqsamCq6XVItbWynRATdLhRoNQhd1JroZJul+xRxF+tURY0ODDdEivDGMG85zjYADUm/IJ1mNdD9LoTYLVbNPbuwphWqx6NgOhuxHGliWRZt8XopXeBtZrgCXd4CtPDnhDpl1QbDxbl1DgSTiA6JT5x0SI0czuva29uwru0suYlWpeWjT29rSfccWpmHD6VTyUqm/J+JuqDcXTXqVt4Dx/hbMfDsvibCNThzsjMabzdHMdza5p1Dh1K4xe1rriVISpScJrRrijr06kasVOD1T4MqREWD0CIiAIiIAiIgCIiAIiIAiIgCIiAIiIAiIgCIiAIiIAiIgCIiAIiIAiIgCIiAIiIAiIgCIiAIiIAiIgCIiAIiIAiIgI8iXuoJsdSvnnqjJ0yUjT9QmocvLS7C+LFiuDWsaOJJKJOT0R8uSS1bPpuE3gtWM0dvDBWGY8elZf0uJiSah3aZpzzClAeGjrFzx2gLAGINtjPetRXGTq1OpEO/islJMFwHa55N/MFI7PK2I3kek49Fe0j93mewtX0U3J+w6TbybwvbmuWg2p9oUPD/wBlKpGxvumXlrd37Wr2y+2ys74WJKXS6vVafVpWdnYEvFExKBr918QNNnMItx6uS262Tb6lBz6UXpz+hq0c32dWah0ZLXl9ToqpVLLloJVSiJLE9dwiIgCIiAIiIAiIgCIiAIiIAiIgIS6guF7ILWvrZY1ME38yA3UaWsFFxe3Ep7Bw4laKBa2ilZMhERAEREAREQBERAEREAREQBERAEREAREQBERAEREAREQBERAEREAREQBERAEREAREQBERAEREAREQBERAEREAREQBERAEREARRfWyEgIB3qzc2MxKRldgSqYyqz/Ek4R6GGD40aMdGMHebeS5V4OcBe/Bc9ttPOhuN8ZjAVEmi6kYceWzLmu8SNNnR3Dju6jvJXXwTDXid3Gl/St2/YcbHMSjh1nKf9T2SNe8SYgqmLK/P4irUcxp6oR3x48RxvdxN7DsGnkC84frdT4o0sU7lc1OEKcVCC0SKbqTlUm5yerYREX1oYiERFkyFDjYKV9tDotQxHWpGgUqCYs5UJhktBaB7pxsD3C9/Ivmc4wi5y2SMxi5tRitWbabBOVUSNOVHNapwR0ULekKXvD2Tv4WKOzg0HvW7fBWrlngiQy7wNSMHU9gbDp0u1jyB7N9vGce83V1DUKk8WvniN3Os+HVyLlwexjh1pGlHj18yeCgmw0F1J7F8Fdq8nQaPO1qoxRDlZGA+YiuPJjQS75AudFOT6MeJ0pyUI9J8DRTb2x6axj2l4ElYwdBoUuJiOAbjp4urQe5gHkctW7dq93HuKp7HONa1i6okGPVJ2LMH6lrjZrfsWhrR2BeGrtwi18xsqdHr0/5KUxa589vJ1erX/ggcEPLvQaIeXeukc9bkoiIfYREQBR3qUQwUkW1C6A7EmcjsZYOdl9XJ3pavh5g6Bz3ePHlL+L3lhO73bq0AV05YZiVbK3HFMxnSHFz5KIelg8o0Jws9h7xfuNlxcdwxYnaSivWW6/32nYwXEnh11GbfovZ8jrq1wtYIeK8bCWJaXi/DtPxJRo7YspUIDY8JwN9CNQe0HQ9oXscVTUouEnB8UXHCpGpFTi9UwiWKLB9hERAEREAREQBERAEREAVaoVaAIiIAiIgMB7X+aeN8qMFUqs4GqkORm5uoCXiPfLQ4wLNwm1ngjiFqV69HaIOvqylfvVLfoLYnwgvtbUH43H5Ny0GHBWbljDbO5w5VK1KMnq92k+srXMuIXVvfuFKo0tFsmzOHr0Noj4Zyv3qlv0E9ehtEfDOV+9Ut+gsIIpH9i4d/Yj/APlHA+17/wDvS72dItkTPGs5w4QqcHF87CmMQ0WbDY0RkJsLpZeILwn7rQACCIjdB7kHms+XtYLmTsj5j/seZy0wTcbcp1fHpTN3PijpCDDeeq0QM16nOXTYai9tFV+ZsOjh981BaQluvmiyct4g7+zTm9ZR2f1KkUKVHyQBERAEREBB1NiFjDaMzQi5R5WVXFNPjQ4dUcGytO3mtcPRDzZriDxDRdxHU0rJ1xcrQTb1zHNdx7TsvJGYvKYdg+iZprTcGbit8W/a2Ha38YepdjAbD7RvoU5LWK3fJf7ocfHb3zCylUjtJ7Lmyy/XobRI0OMpUH4qlv0E9ehtEfDOV+9Ut+gsIIrX+xcOX/Yj/wDlFW/a9/8A3pd7M3+vQ2iPhlK/eqW/QW12x1mrjrNzB1eq+O6tDnpqRq3oSC9ktDghsLoIb7WYAD4z3G5XOJb4eDv9rvFXx9/ZoKj2aMNs7bDpVKNKMXqt0kutHfy1iF3c38adWpKS32bfYbXexFhr5VgvbMxZVMJ5HVN9Ijvgx6nMQac6Iw2c2HEd45B5aAjyrOul1izaTy0nM1cpathmlgGowiyekmk2D40I7wZftFx5VX+GSpwvaUq3qqS17yeYpCpUs6saXraPQ5ZWtpoLaadXV3Kfw6a8wv3npCepc5Gp1Rk40tNSzzDjQYrC18Nw0IIPNfOTbjw61ecZKUVJcClZKSlo+Js7sD4uqdOzPn8GMjPNPq9PizToZPitiwi2zwORIdbyLoEL2uVpXsIZP1iTqU7m1XJOJKy75Z0jS2xAWuiguBfEA97pbtIW6oNxdVDmqrRq4nJ0epJPmWvlenWp4dHyvW21yAUqApUcJEEREAREQBERAEREAREQBERAEREAREQBERAEREAREQBERAEREAREQBERAEREAREQBERAEREAREQBERAEREAREQBERAfPOTctIS0WdnI7IMCAx0SLEiENaxrRcuJOgAAOq5ubSu0tWs4K1HoNBmo0nhGTiFsCCxxaZ4g6RovO3NrOWhOq2X268xJjCeVsHCVOjmHN4tjulYljYmThgOjAdji6Gwj3sRy55m9zfirCyfg9OcHf1lr+n3dfyIBm3FZxmrKi9O339XzIGn9fanZzTgFsZs6bJNRzbkIeMMXVCYpOG3vcyXbAA9ETpad0lhcC1jAQ4bxBuRoOYmt/iFDDaLr3EtF1e3kQ6ysa9/VVGhHV/wC8TXT9eC9jBZ/wxoJAvaqSnP8A1zV0XkdjLZ3gSkODGwRGm3sFjGi1SbD3nrO5Ea2/cAF5lW2I8nI9QkqthmFU6DMyMxCmIYgzb48JzmPDvGbFLncraOCjE852NRSh0ZLXraXZzJHTyhewcZ6xenY/byNgmHxQp3gFS0BrbdS+Wo1WmUqC6ZqVQl5SEwEufGiBgAHeqvinJ6R3LKclBay2Pr3r6jgheAsK4z2v8jcGiJAGK21qbh3HoekwzMkuB1bvjxGn65wWL6Lt0zmN8xKBhDCuBWSUjValBlIs3UJjfjFjnWO7DZ4rTbnvu7l1KOCX9am6qptRW+r28TmVcbsaU1TdRdJ7aLfwNuwpVLPYhVLlnWQREQBERAEREAREQBEUX1sgLdzBxbJYDwXWsY1AgQKTJxZktvbpHNb4rB2udZo7SueJ20dohxLvVhKNvruilS1h2asWftv/ADE9K8IUjLeSmN2PW4/o2daDwloJ8QOHU6LY/wDpLRJWNlTBaFW0dxcwUuk9tVrsv31K7zRi9and+Qt5uPRW+j6/+DN/r0Noj4ZSv3qlv0FLNtHaGbEa92L5R7QdWmlS3jdnsOruWD1FgfLoe0KUvBMOacfIx39iI2sYv46Pystvazr7l5i+Tx3gmjYvkC0wqrJw5mzTfceR4zO9rt5p7QVcYPDRanbAeYQquDqtl5OzJMxRY/ouVa46mXi+yA7Gv173rbDUqn8Us3Y3dSh1J7cuotjC7tXtpCtru1vzJUqBwUrQOgEREAREQBERAEREAREQBERAEREAREQBERAEREAREQBERAEREAREQBERAEREAREQBERAEREAREQBERAEREAREQBERAEREBSRqhJPJSTYr8piPCgQYkeM9rGMaS5zjYADmSm7eiPmTUVq+BiDagzfl8pst5qYl5gNrNVDpOmwwfG6Qjxn9zWm/mHNcxosSLGiPjx3ufFjPMWI9x1e4m5J7/61lTaUzd/ZezKmqrIzDolFp15SmDUNMMHxooHIvOvdZYqPAK3stYUsPtVOfry3f0KizFiTxC70g/RjsiO9ERSBJ9ZHkERF9H0giIhkgkNFytqNg/LL09xfPZjVGWDpOisMvKF409EPHjEdzefK4WrsjIzVUnYFNkmF8xNRGwoTBxc5x3f611cyTy4ksrsuKRhOWhtEaBAESbfbWJMPF3k9euncAopmzEvNLTyEfWnt7usk+VrDzy78rJejDxL7AuOpTaycEVVFpoj+ta77b2YbMIZSvw9KzG7P4njiTY0cegZZ8Y+bdb9mtiHHRc4NtTHjMYZwxaPLxTElMOQmyLAD4oiX3op794gfYBd3Lll57fwT4R3fuODmO+8ysZacZbd5gAb1/GuqlSCbDtCmx61cajpwKgb1JUFLHrQ301WdDK3ZKKNetLHrTQ+tCUUWPWlj1poNCUUWPWlj1poNCVS4XFlNj1osaBrU3A2FM5Hyc3Hyjrs19Bjb01SXvPB/8JCHZbxh5Vu803F7LjfQ61U8O1mTrtGmHQJ2QjMjwIjT7FwNx5+B7F1UyUzRp2beX9LxdJWhx48IQ5yADcwJhthEYTYc9RoLggqsM24S7WurqmvRlx5llZTxTzil5rUe8eHtX7F/clSqhqOKpUORMwiIgCIiAIiIAiIgCIiAKtUKtAEREAREQGq/hBfa2oPxuPybloMOC358IL7W1B+Nx+TctBhwVt5R/K4834lVZs/MpckfpAgxJmPDloLd6JFcGMHW4mwCiLCiQIr4MVpa+G4sc08iDYhehhl/RYmo0W48SoyrteH7c3j2aK4c58KxMF5qYmw+9hayDUIkWFf3UOJ47XDsO8pC68VWVJ8Wte7j4oj/AJKTpOoup6d5Z0OJEgxGRoLi2JDcHMcOIcDcLq7kRmHCzNytoOKRGD5qJLiXnRfVszD8WJfquRvfZBcoD1cu1bfbAGYnoSr1vLOej+JOs9MZFpPB7dIrR3ix8ijGb7BXNj5aPrQ393X9SR5UvfN7zyUuE9vf1G8LeClQOClVUWkEREARFF9bWQHj4wxNTcGYYquK6xFEOSpMpFm45v7ljSbDtNrDtK5F4pxFUsXYlquKau8unatORZuProHPcTujsA8UdQAW723zmR6UYLpmXEhHImcQRxNTjWnVspBNwD1B0TdN/wDVkW1WhovYXVm5LsPI28rufGb25L6vwK1zff8AlbmNtB7R482ftKSsxPzkCQk4RizE1FZBhQxxe97g1o7ySAvyILSWuGoNisi5B4cFex86cjMDpXD9Ln61MFwu0CDLv6O//qFh8hWO3O33F977xJUvhXjOtKiupJ9+v0IpOi4UY1X1tru0IW+Hg7/a7xV8ff2aCtD1vh4O/wBrvFXx9/ZoKj2bvyuXNeKO9lT8yjyfgbX2UFt+aqRVIWuY5zE2fcqs0IxnMVYXgRJ0jd9GQPoUe3a4cfLdW1hfY9yLwtPMqMDDMWfiw3BzBUJh0djSOHimwPlus1otyGI3dOn5KFSSj2as0pYdaTn5SVNOXbofjAloMrBZLy0NkKFDaGMYxtmtaNAAOQX620tdSi03vxNxJLgQBZSiIZCIiAIoS6AX1tZSoRASigaqUAREQBERAEUXS/XogJREQBERAEUXS6AlFF0QwSiIhkIiIAiIgCIougJRRdLrGoJRRe/BSsgIiIAiIgCIoQEooul1jUEoiLICIiAIiIDQvwhdRixswcMUp8QGFK0mJMNbf2Jixi0ny9E3zLVIcFsz4QH26KUP/wBtS351Nf8ARaz9vWrmy0ujhlHk/Ep3ML6WI1efgfVSKZHrdWkaNLaxqhNQpSH9dEeGD5XLsHQKDT8OUKn0CkwWwZOnS0OWgQwNGw2NDQPMFyTy49sbCnX6e08f/wBmGuvrfYt7lFs8zfTow6tH8iT5LgnGrU69iQLC10setBqpUB0J2U21tdc5duecnYmeczTok7MPlIdLk3sl3RXGEHHfudwm1zZdGj7Jc39uT2/5z4pkv+NSvJyTxLf9L8URXNzcbDb9S8DAFgBujgr6yK9ubBQGn9+pUf0wrGV85Fe3Pgr47lfx1Zt9taVNP0vwK4st7mmn2rxOszdGhSoHAdylUQXguAREQyEREAREQBERAQVS51gSeHFVc1jLaMx+Mtsoq/X4cXcnI0D0DJEGxMeL4rbHrALnD61etvRlc1o0YcZNLvPC4rK3pSqy4RTZz+2l8wf2Sc4q5WYEbpZCTi+l8gQbt6GFdu83sc7ef9ksWk2496kuc4lzjck3J5+XtUE7oJHLX9fMr2tKEbShChDhFIpO6ryuq8q0uMnqevNYaqEphen4siNvJ1GajykEge7hAb34wXkrbrM/JiPRNjbC02ZX+76HFZVpoEewbMnx/wAaGtRVq4ZfxxCnOUOqTXc9vgbGIWM7GpBSXGKfevqZU2YswP2Os5aHU48YskahE9Lp3XTo4vitJ7n7p8i6ktPiixuOxcYg57HB8Nxa5pDmuB1B5Hz6+RdWdnzH7MyMo8PYlfFa+adLCWnADfdjwvEePOL+VQzO9jpKF5H/ABfiiX5NvfRnaS5oyMOClQDcXUqAk8CIiAIiIAiIgCIiAIiIAiIgCIiAIiIAiIgCIiAIiIAiIgCIiAIiIAigmyX70BKIiAIiIAii6XCxqCUUKVkBERAEREAREQBERAEREAREQFLnWvpwWr+29nIMH4NGXtFnDDq2I4TvRBhPs6DKA2cdOG+fF5aby2HxfiWl4Pw7UcTVmOIMnTpd8eK49QHDvJsAO1coszceVXM3G9UxjVojjEnIx6JhNxCgg+IwdgHLrJUnyvhfn1z5eovQj8X2EVzTinmVv5Cm/Sl8EWve5JItfkFJItYKkKVbWuyRVenaRcJcdak2PJRYdSwY0Fx1qVFh1KUMrYKOvsUpDbEixGQoMJ0SK9waxjRclxuAAO0rDaiuk+o+lFyeiNidibKduN8xn4wqkAupmFwIzd5t2xJt37WPsQC49wC6JhthZYs2bsr/ANivK6l0OZl2w6lMs9G1AjU9PEAJbf6kWb5CsqC/BUzj2ISxG9lNP0Vsi4cAsPMbKMWvSe7CKoKVxjs6M8jFFSmaPhyqVaSk4k3Hk5ONMQoEMXdFe1hIaBzJNguQNbqFQq9ananVS8Tk3MxIsffBBERziSCuyThcELSrbE2Z3QjM5r4CkR0Ybv1iRhM1GusdjRy98PL12l2UsRoWdxKlWWjnsn8iI5sw6veUI1aO/Q4o02HHqsFKoa4EEjUWvp1clWeNlaepV3DZkDVDy70HBDy719H0luSiIh6BERAEREAREQDTW5stgdjfOb9jnHvqXrc24UPEj2wSXusyXmuEOJ2b19w97TyWvpsoY90N7YkMlrmEOa4HUELRxCyhiFtK3n1/6jasbuVjcRrx6tDs+1wLbg37UusGbJ+c0PNLLqFJVWY3q7QWtlJ0OOsVoHiRhzsW2B+qBWc1SN5bTs60qFTZpl0WdzC8oxrQ6wiIvA2QiIgCIiAIiIAiIgCrVCrQBERAEREBqv4QX2tqD8bj8m5aDDgt+fCC+1tQfjcfk3LQYcFbeUfyuPN+JVWbPzKXJH10o2qsif8AaoP47VtFt05dOp9Qw5mXKQiYNTk4dPnXbps2NDYDDc49rLgfWlauUr6ayP8AKoP44XUjOfLxmZ+S9SwrDgh866RZMyBtqJqG0OhgdW8RuX6nFeWP3zw++tqz4PVPk9PDj7j6wSyV/Y3FNcVo1zWvicrjrqrly0xrM5d49omNJVzh6VzbIkYNOr4B0iN7fFJ0VtxGPhvdDiNLXNJaWkWII5WVPZp16qU1IRuKbjL1ZbfAjdOcreoprZxOy1LqUrVqbK1ORiiLLzcFkaE8cHNcLg+Yr6d7Ra77EeYoxjlHDw3Nxy+fwtF9APDjdxgHxoLu7du2/WwrYgaiyoq+tZWVzOhP+ll12N1G8toVodaKkRFqm4QqHvDWuc42AFyb2sFWbXWIdqfMYZb5PVielo4h1GqN9LZLXXfighzh3M3jfkbL3tbeV3XjQhxk0jXuriNrRlWnwitTQraMzHfmhm5WsQwoxfIS8T0BTxfQS8K7QR1bzt5/e8rGfk7U14n/AOV6GHaFP4or9Nw3TITok3U5pkrBa0XJc4gfJe6vOhSp2VvGmtowXgUrWqzu67m95SZtVs3ZfOoWzpmPmVNwg2ZrtJnZOUc8cJaHBeLj657neYLURpu0HsXUDM7C0hgnZlrmFKYxolqXh50s3d0B3WAE+U3PlXL8ajVR3LN07+pcXL65fBLY7mYbXzCFC3XVH467krfDwd/td4q+Pv7NBWh63w8Hf7XeKvj7+zQV95u/Kpc14oxlT8yjyfgbXk2XnYgxBTsMUSdxDWIjoclT4LpiO9jC8hjRckAalegeOqsfO4AZR4ttofSmZ8/RlVTb01VrRg+DaRaFxUdKlKa4pMx4NuLZ7IB9UdT1F/pNNfoJ6+HZ7vb1R1P7zzP6C5tM0Y22gtwsquYVnLJeHtcZd6+hW7zhfp8I/H6nWrLDODBOb9Mm6vgedmJqVkowl4ro0rEgEPIvazwL6dSvW+nBan+D2F8AYkH/AJq38kFteNAVXmLWtOxvKlvTeqi/oT7Crqd7aQr1OL4k73Ylz1Kn8N15OK8WYfwRQprEmJ6nBkKfJt34saKdOwAcSSeAC0IxlOXRjuzelOMY9KT0R6+8OCsbHeeOVmW7SMW4xkJSMBf0M1/SRj3Q23cfMtLc7ttHGWOI8zQ8vIsfD1CJcz0Q3xZyYb1l38GD1Nue1a3R40aajvmpmM+NGiHefEiOLnvd1knUlTfDMm1K8VUvJdFdi4kMxHOFOlJwtI9J9r4G+mIvCC5byER0LD2Fq5VQPYxXMZLwz/Pdvf0VZ814Raoh49BZTwHMt/DVgsPmEErTkaEkEi/MaH5FHDhp3KTUsp4XTW8NebfyZG6uaMTm9pae5fQ3LkfCKTBcTUsqWw23GsvVd+w+yhNV+YZ2+co6vEZBxBTK3Qi7QxI0uI0MHvhlxA7SAufPbzTz+dfNbKeGVVpGPRfsb+Z9Us04lB6uWq9qXyOveDcxsEY/k/R2DsSyFVhAXd6HjBzmfXDiF78xNQ5WBEmY9xDhNc95AvYAXOnNc/8Awf1v2ZKzcmxw5G5/7TLLfaufSWf7JaLw69wqusYw2GGXztYttbcfaWBhOIzxGy84kknv8DCkTbe2fYUV8J+I6lvQ3OY61ImSLg2OoZ2Kn18Oz38I6n955n9Bc4p//H5q3+XifjFfjr1qeRyZh7im5S719CEyzffqTSUfj9Tq5ldn3lxnFNT8ngWpzU3FprGRJgRpOLA3WuNhbfAvwV/xpmDLw3xo8RkOHDaXPe42DQOZJ4BaReDwP9/cYkusBKy1/wCc5W3tZbS9QxzWZnLvBVRfL4bkIhgTcaE6zqhFBs4X/wAm3hb3VrnqUWrZcdXFJWVs/Rjpq31Jok1LMKpYZG8uV6ctdEuvRmecx9uLKvBc5FpeHoM3iecguLHukrNl2uHLpXWDh2t3ljEeEXqfogNflPLCATqRWXb9u7obX8q05FrAgAdllPDy9vzKZ0MpYbShpKLk+1trwIfXzViNWesZKPsST8TqRkHtBUPPelVKcpdFnaZMUh8Jk1BmS1w+iBxaWOaTceK4cjosr3PMLTXwdeshjr+PkD/RjLcSNGhS8J8aPEayHDaXue42a0cSSVW+OWlKyxCpb0PVWmnvSLCwW7qXdjCvWfpPXX3M/UuA4rwMWZg4LwLJmfxdiWn0qCOBmY7WE9w4laq5/bbjpGYmsJ5PGHEiwy6FHrb27zGuGhEFvuvrj5BzWnNer9cxPUX1bEVXm6lOPJJjzMVz3eS+g8i7eFZQuLyKq3T6Eezrf0OPiea6FpLyduulLt6jfzFG3pk7Rnug0SVrNee02vLSwhs796KW3HaFYNQ8Io5pJpWVbojeRmqoIen2MNy0y/B1KLcwAO4KWUcpYZSXpxcub+hFa2asRqP0Zpcl9TcWB4RWql4MzlNLNh9cOsucb+WCB8quugeEJwHNvbCxFgut0+51iwTDmGNHcCHnyNK0Q7dOrgnfr3r7qZUwua0VNrk382fFPM+JU3q5p80vkjq7gLP/AClzJLIOFcZSUeaeL+hYruhjj7B9isgh4PDVcYob4kGIyNBiPhxYZ3mRGOLXtPWCNQe0arZDIrbLxhgOagULMGYmK/QCQwx3u3pqVb74OPs2jqOunFRnFMmzoRdWyl0kup8SSYZm+NaSp3cejr1rgdDgVG92Ly8OYlomL6LKYhw5UYM/Tp2GIkCPCddrh/UeRB1BXqA31UHlGUHpJbriTSM1Naxez4E3UF1lDnW7VrZtL7WcjldEiYMwOIFQxMW2jxXeNBp+nuh7p9iDu8ufUtmxsa+I1lQoLVv/AHf2Gte31HD6TrV3ol/uxnvE+NMK4MkHVPFVfkaXLNFzEmozWDyX1PkWCsWbd+TNCiPgUSHVq/EYSN6UlgyHfrD4haCO0XWg+LMYYoxzVYlaxdXJqqTjySHx4hc2H2MbwaOwBeNfXTTuVg2OSreEVK6k5PsWy+pBLzONxNtW0VFdr3ZubUPCKxWvPpTlX0jL6GZqvRm32MNwX4S/hFqkX/3XlPLtZb+CrJc6/c6CB5brTrtF9df1uobwuPP/AFLrrK2Fafyvi/qcn7zYm3r5T4L6G+FD8IVgCac2HiDBlcp9/ZRIRhR2DzODj5lmfAe0VlBmPHhSOGcYyj56Nbckpi8CYJPIQ32cfIFypvfg75fmV7ZHgHOTBAte1ekyAeF+lbquZiOUbFUZ1aOsWk37Nl7TpWOa751Y06ujTaXt+B1pBJGvFSob7EKVWBZZBNlG+LrzMTYmoeEKLN4ixHUoEjT5GGYsePGdZrR/WTwAGpNgtDs8dtXFmMo8xQstXxqBRbmGZzhNzI6wf4MHqFzbmurheD3WLT6NFeiuL6kcrE8Xt8Kh0qr9J8F1m5+OM6cscuWn1X4wp8lFsS2X6TfjO7obbuPmWEMReEDyxp8R8LD2G65V7cIphsgQz/PcHX+xWhMzMR5yYiTU5HiTEeKbxIsZxe9x5kk6lfnw4fhU8tMl2dJa125vuRB7rOF5UelFKK72bkTnhFp5r7SGVEJzLnWPVyw27mwnJJ+EVnDE/vhlTCazrl6uXm32UJv4VpuNNefWE/Wy6P3WwvT+X8X9Tn/ebE9dfKfBfQ3/AMM7f+VdUiMg4holbopPsoroLZiGO7oyXf0VnfBWaOAcxJYTWDcU0+pttdzIUYdI3S9nMPjA+RciR299l9VJq1VoM/DqtDqUzT52CQWTEtFMOI0941I7DouZeZLtKkW7aTjLvX++86dpnC6ptK4ipLuf++47KB1wpWluz3trxos1L4RzimGARCIcvWwN1oOlhHA0HEePw6xa5W50KPDiw2xYTw9jhdrgbgj/AOFX+I4bcYZU8nXXJ9TJ1h+JUMSp+UovmutFh5pZ65eZOPp7Md1GZlTU+kMv0MnFj725bevuNNvZDirD9fDs93t6o6npp9J5r9BYl8InpM4IItwneV/8mtNRoAL8BZTDBcr2mIWULiq5JvXr9vIiWMZlu7C8lQppNLTq9i9pmva0zSwfm5mTI4mwTOx5qQgUWDJPfGlokB3Stjx3kbrwCRaI3UaarCvYo82vHRSp3ZWkLGhGhT4R4EJu7md5WlWnxfE9fBtSlKLjGgVqfe5krIVWTmo7mtLiIcOM17yANSQAdAuhbNuHZ63W3xHU+H+h5n9Bc3LD9f17lOvWudimBW2LyjO4bTXDT/g6OGY1cYVGUbdJp8df+TpH6+HZ6H/3HU/vPM/oKfXw7Pfwjqf3nmf0Fzb160161yvuXh36pd6+h0vvjf8AZHuf1OkR24dnq/7o6pf4nmf0FprtQZi4XzSzZmMXYPm4szTYlPlpdr4sB8FxewP3huvAPMLE+nNQbnnrawPUuhhuXLTC6/l6Lbemm7X0NDEcwXWJ0fI1ktNddkyVdGVlfpuFcyMM4lrMV8ORplTgTUy9jC8thtcCTujU+RWunYeHUu1UpKvTlSlwa09px6dR0ZxqR4p6nSMbcOz3Yf4R1P7zTX6Cevh2e/hHU/vPM/oLm5r1/ImvWor9y8O7Zd6+hKPvhfrqj8fqdWcr8/8ALXOGenqdgaqTU1Hp8JsaO2NJRYG6xxsDd7RfXqWRgesWWi3g89cX4rH/AJfB/KLejQcVAccsaeHXsrei9YrTjyJzgt9UxCzjXrbN68OZUigcON1K5J1giIgCIiApN9Vo14QDMP0fiGiZbSMe8OnQ/TGdaDp0r9IbT3NBPlW7lSn5alyMzUpyK2HAlYT40V7jYNa0EknyBckMzMaTOYmPq7jOZe4+mc4+JBB9zBBtDb/MDfLdTDJtj5xeu4lwgviyI5uvfIWioR4zfwRbHJXzkjgd+YmauG8K9GXwJicbGmSOLYEPx4h7t1pVj/rqtw/B94CbMVDEOY85AJEq1tMknuGm+6zopHUQNwdzlPcbvFYWFSqnvptzexBsGtHe3tOlptrvyW5uFifDNNxRhWpYUn4TRJ1GTiSbwG33WuaW3A6xoR3Bcia/RJ7DdeqGHqnCMObps1FlY7TxD2O3XeRdjg3hqude3LgL1LZvjEstL7klimVbMggWb6Jh2ZFaO39rcesxFB8l3zp3M7Zv11qua+q8CZ5ws+lbwuI/0vR8n9Ga7cte35Vt/wCD7zAMvVq9lnORgGTTBVZFpPu22ZGA6tOjPbr1LUBXXlTjiPlvmLQMawXODaZOMfMW91Lu8WK3t8RztOuynONWSxCyqUetrVc1wIVhF47G8hVfBPfk+J10HBSvxlJmBOysGblorYkKOxsSG9puHNIuCO8L9lSLTWzLoTTWqIJsvDxpjKhYBwzP4uxJMPgU2mw+lmHw4TojmtuBcNaCTxXtnieKxNtWC2z/AIytzkf+Nq2LOkq9xTpS4SaXezWvK0qFvOrHik2W76+HZ7+EdT+88z+gnr4dnv4R1P7zzP6C5uJr1qzFkvD+ty719Cuvvhf9kfj9TpH6+HZ7+EdT+88z+gnr4dnv4R1P7zzP6C5ua9aa9afcvDu2XevoPvhiHZH4/U6R+vh2e/hHU/vPM/oJ6+HZ7+EdT+88z+gubmvWmvWn3Lw7tl3r6D74Yh2R+P1Okfr4dnv4R1P7zzP6Cevh2e/hHU/vPM/oLm5r1pr1p9y8O7Zd6+g++GIdkfj9Tp5g/a0yWx1iWRwnh2t1CNUalE6KXZEpkxDa51r6uc0AedXhmbm7gnKGkytaxxPTErKzkf0PCdBlYkcl9ibWYCRwXO7ZQps9Uc+8LmRlIkf0LHfMRyxt+jhtYbud2ajzhbMeEFAGW+H7H/vb/lOUbvcCtaGK0rGm24y47rVcSQ2eOXVbDKt5US6UeHZ1F4Dbi2ez/wDcdT+88z+goO3Fs9gE+qKp6f8Ak81+gubtyodq09dtOz9bqSPJeHrfpS719CO/fDEHt0Y9z+p2Pw3iGl4soMhiWixnRZCpS7JmXe5hYXQ3C4JB1Gi9JWFkP7TWDT10aV/JhX6qxuKao1pU48E2u5llW9R1aMakuLSYREXiexS9+4CTwCwXO7a2QVPnZmnzeIak2NKxnwIoFImSA9ji1wuGa6grOMcfQohPvTbzLjzi7911e+NZz8u9SfLWD2+LyqKu2ujpw95GcxYvXwpU3QS314nQ/wBfDs9fCOqfeeZ/QV35YbROV+b9amqBgeqzc1OSct6LitjSMWABD3w24L2gE3cNAuVmvWtovB8+2liG5/7hP5xCXaxjK1lYWVS4pOXSjw1eq4r2HGwrM17e3kKFVR0fHT/k39DtLq3se49w7lrhWdxniuZiS9LkOiEeJDgviuBiRGw22YwFx8Z7RoOa98DRYU2zP3uGLCRoXU/8/l1B7GjG4uadGfCUkn72TS9rSt7apVjxUW17kfB6+HZ7+EdT+88z+gnr4tnv4R1P7zzX6C5uG9052Vl/cvDu2XevoV398L/sj8fqde8vsw8MZnYYl8YYQmoszTJp8SHDiRYD4Li5jy13ivAI1BX34lxXh/B1Ij17E9WlqbT5ZpdEjzEQMaOy54ns4rA2ybiWkYP2WpPE1em2y1PpsSoR48V3JrZiJoBzJNgBzJA4rTjPHPPE+deJYlQqEeLLUaXefS2mhxDILOT3D3TyOJ7epROzy7K+v6lCD0pwbTfXx4cyUXmYVZWNOtJa1JpPTq4eBtLjLwgeCaZNRJXBeE6hXQwkCYjxBKwX91w59vsVbVO8IrMGYAq2VLYcDTedK1XpH9tg+G0E+Vaa+TgnDh38AptDKmGQh0XDX2tvXx0IbPNGIzn0lPT2aL6HXjLbH9KzOwVTMcUSXjwZOpwy9kKOAIjCHFpBsSOLTwKube1tZYb2RP3veEtbnoYw1/joiyJjnHOGMusOzWKcW1KHJSEqAC5xu57z7FjBxc48h5dACRVt3b9C8nb0VrpJpLr47FmWlx07SFes9NYpvuPfc/dBc6wA4kngsT5g7UmTOXUSJJ1TFUKdn4R3TJ09pmYgd1HcuG+UhaYZ47WmPM05mPSKDNTGH8OXLWy8vELY8w3rivGv2I07+KwRa5JOpOpPO6mOF5MdSKqX0tPYvmyI4lnBQk6dnHX2v5I3erPhEaHDiPbh7LeozDWnR07Nw4F/I3fXiw/CL1jpAI2UsoGcy2tOLvMYIWnnHjy1Tt1+RSWOVcLitHT15t/Uj8szYlJ6qpp7l9De/DnhCMBzkRsLE+DazTLnWLB3JiG0dwIf5mlZ7wBnNltmbBETBuKZOdiAXdL725GZ9dDdZw8y5K9gAFl+9PqE/SJ2DUqTOx5KclyHQo8CIWPYesELnXmTLOrFu3bi+9G7aZvu6Ukq+kl3M7L73YpBBWoOzFtfxMRTktgDNSbhtn4toVPqrrMbMO5Q4vIOOlncDz11W3gdpe99FXeIYfWwyq6Vde/qa7UWBYYhSxGl5Wi/d1p9hUNUQcNUWkbxKIiAIiIAiIgIv1qlzrWKlxsCVYOdWZ1Nyoy/qOLJ2I0xYTOilYZ4xI7vYNA+XyL0o0p16ip01q29Dyr1o29N1Z8EjV/bvzi9HTsplNQ536HLFs3Vdx3F/wDBw3eTW3ctPw424L66zV6jX6vOVyrR3R52fjumJiI46ue43P8AUB1WXyK6MLw+GGWsaEd318ymMSv54jcyrv3ciApRF1Gc4IiIAiIgIWc9j7K2JmDmvK1Scg3pmG92oRXFtw+Nf6E0/ZDet9SsGDeLg1lyToAOJPUumOyVlW3LPKuUfOQdyq1x3o+cJHjDeA3GfYtA8pPWo3mfEfMbNxj60tkd/Llgr+8TkvRju/kZsaywFvkVQBBupHBSqgLeWwREX2CCNV+MxLQ5iC+BHY2JDitLXtcLggixHmX7qCL80W3Aw0nsznRtY7Ojsra36ssIScR2GKnFJdDaLiQjn3F/eO13erhyWuwPK1rcexdjMQ0ClYlpE5QazJsmpGehGDHgvFw5juPl53XMjaGyJq+SeKjLBj5igz7nPp85a4IB1huPJ7flFirNyvjyuo+aXD9NcH2r6lZZnwN2s/OqK9B8fY/oYqHBDy71A0PFSeXepqQ5cSURFk9AiIgCIiAIiIAosFKIDJGz5mvMZQZk0/ED3RX02ZcJWpQme7gOPEC4F2mzh9auplPn5SqSUvUZCOyPLTMNsaFFYbtexwuHDssVxpdYtIIBvpwW9+w5nSMSUCJldXpzeqdHYYkgYh8aNK8wOstJ8ygOcMK6cVe0luuPL9ibZTxV0p+Z1Xs+Btgidt0VdFihERAEREAREQBERAFWqFWgCIiAIiIDVfwgvtbUH43H5Ny0GHBb8+EF9rag/G4/JuWgw4K28o/lceb8Sqs2fmUuSPqpX01kf5VB/HC7FUtodS5S/wDkIfL6kLjrSvprI/yqD+OF2LpP0rk/4iH+KFxc9beR9/yOxkrd1VyOaW1xlz+x5nNVfQsDcp1f/vvKWGg6Rx6Vg5eLEDzbk0t61hhdD9ubLf1W5WNxdIwC6fwnH9FEtGplH2bHHksx/dDXO/yAdykWWr7z+wi360dn7uHwI7mKyVjfSivVluvf+5nXY1zE9Qmc0lTZyY6On4nZ6Vxr+xEYm8u49vSeIP4wrpU3Ro5rjJAjzEpMQpuUjOhRpd7YsKI02LHtIII7QbLrPk1j6XzNy1oOM4TmGLPSrfRTW8GTLPEittys9rrdljzUVztY9CrG7itpbPmuHw8CT5NvelTlaS6t1y6/iXqFKgcFKgxOCkk34cFz727syPVLmLK4FkZjfksNQd6OGkEeiooub9rWho8pW9GOMUU7BOE6tiyqxWslaVKRZmITzDWkgeU2HlXI3EVeqOKa/UcSVeIXzlUmok3HJ1s55J3b9QGg7Appkyw8tcyupcIbLm/9+JDc4XvkqEbaPGW75I8/tI8y2Y2E8ufVNmPN43noG9JYagDoiRcGaiXDP5rd93Ybda1mN7cdevt+f/ouoGyvluMuMnaTJzMDo6hV2+mk7cah8UAtafrWBgI6wVKM2X/mdi6cfWnt7uv4eJGsr2Pnd8pyW0d38j3NoYf/AESxl8VRvwLlGOC6ubQ/tJYy+KY34FyjHBc7I/4ap/l8joZ0/E0+XzJW+Hg7/a7xV8ff2aCtD1vh4O/2u8VfH39mgro5u/K5c14o5+VPzGPJ+BterHzuFspMW9tImfyZV8qx87/akxb8UTP5MqqrP8TT/wAl4lm3n4efJnJVnsG9wVXMd6pZ7BvcFVzHer8RR74m+Hg9f3AYk+Nm/kgtruXetUfB6/uBxH8bN/JBbW34CypbMS/6pWXt+SLgy+9cOpcj5qnUpKkSMzVKlNQpaUlYbo0eLFdusYxou5xPIALmZtG7QNZzqxO+FJxYsthenRC2nShJb0p4dNEA4k20HuR23K2D29M249HoshlRRprcj1pnoyqbp8YSrXWZDPY9zTf6mG4c1o1YA9YUtyhg0YUvP6y1b9X2e0iua8XlOp5lRey9b2+wn+rhdRcDiflT+rXuW1Oynsry+OoMHMXMWViekgdvU+Qd4vo2x1e/n0d+A91ryUuxHEaOF0HWr8OztfsIrh9jWxGuqNFbv4czC+W+QuaearulwlheO6SDt10/NHoJYG9iA93siOYaCQs90PweGJJmWa/EOZlNkY5GsOTp75poP1znwz8i3bkafJ06TgyMhLQpeXgNEOFChMDGMaOADRoAvo3bcFW15nHEK0taLUFy18dSw7PKVlRh/G1m+engaTzvg66hDgOdTs2ZePHHsWRqK6E097hHcR5liDMLZHzpy+gxZ+LQYVbp8Ibz5qkRDH3R1mGQ2IABe5DSB1rpuoLb34WPYvK2zfiVKWtSSmval8tD0uMp4fVj/DTi/Y38zn5sAgw85ayyI3dc3DcxcO0ItNS11vtXDeiT+n/ZYvH6wryJLLjBtNxpGzAptDl5SuTUo+SmZiA3o/REN0RjyXtGjnbzB4x15EkWt69c0ok+P9li/iFc/FMQWKXnnMY9HXTb2o38Lw94baO3b10139hx1nv8fmv4+J+MV+K/ae/x+a/j4n4xX4q6YP0UU/N+kzLuTuY8TLfLrMWbp8y6DVKrKytNkiw2e0xHuD3j61t/P2LEVie0uOvaVBtz4C9/18i2/wBkjZbp2IZKXzPzJpomZSKREpVMjsG5Gb/lorT7Jp9y3gedxouVfXNtgsKl3UW8mubemy+B1LK3uMYnTtafCKfJLXVs15wVkhmxmJBbNYRwRUZ6XffdmXMEGA4jiGxIhaw911c1S2StoSlSzpuZy5mYjGgkiWnJaO/yNhxHOJ8i6eQZWDAhMgwYTYcOG0NY1osAALAAdVuS/TdvoQoRUzveSn0oQjp7ddfH5Exp5MtFDSc3r7NPoahbAFIqtCGPqXWqbNSE5BmJBsSBMQXQ4jDuxtCHAEFW5tn7RkedqEzk/gif3ZSXsyuTcJ2sWLofQzSPctFi+3E+LycDsptA5jS+UWWNbxlLMhCrRYTZGn3aN6JMv3hD7SGXfEI4Wa7guWExHjzUeLNTMd8aNHeYkSJEcXPe5xJc4uOpJJvfrJPErfwG1WN3s8VuI6LbRdWui8DQxu4eDWcMLoS1e+r9mvzPzGnDlp1/Kp7+H4EWcdl3Z8iZ0YijVKuCLAwxSHt9FRG6GZinUQGnl4uriOAI61Nby8pWFu69Z6RRELS0qXtdUaO7f+6llZZ5H5lZtTG7g/DsSLKNduRahHPRSsM8x0h9kRx3W3dbWy2Bovg7sQzEsH4gzOp8jHtrDlKa+ZYD9c6JDP8ARW6dGotLoFLlqNRZGBJyMpDEKDAgtDWMaOQAX3BtuPFVpe5wv6027fSEeWr+OpYtnlKyowXl9Zvu8DSKp+Dtq8GVe+j5qSk1MAHdhzNIdAY49rmxXkD7FYJzR2ds1MpA6axNQRHpgNvTOQcY0tx90bBzPs2tvyuuqViSdSvxm5CUn5WLJTsCHMS8dpZFhRWBzHtI1DgdCD1L4tM4YhRn/HanH2pLwPq7ylY1ovyGsH7G/mcZ+N7ck042B7+BWw+1xs9S2U1eg4rwpKlmGaxFLRCFyJGY49GD7xw3i3qAI5a68DgO5WZYX1LELeNxS4P/AForm9s6lhXdCpxX+6mweyPn5M5X4thYRr8444YrkZsN3SO0kplxs2KCeDXHR3kPWujbXAjeFiDqD1rjCWhw156arpvsmZmRsysnabMVGY6aq0Vxpc85xu574YG489ZdDLHHtJUGznhUabV/TXHaXyf++wmuUMTlPWyqPhuvme5tFZonKTKurYolt01GIGydOYeczE8Vptz3Rd9uppXLKcnJuozcaoT8y+ZmZmI6NGjRHbz4j3G5cSeZK3Z8IlUo7MP4MpIuIUaemZp3VvQ4QaPkiuWkPDQctF18m2caNj5b+qbe/sW2hys23cqt75F8IJbe176jhzHDzBZPya2d8wM6ph0agy0OQpEB+5Hqk4CILHcS1gGsRwHIaC4uRdYwGpA7QPl4fr1rrdlNhyk4Uy2w3RKHCbDlIFNgEFo/bHOYHPiE8y4uLiesrZzLjFTCaEfIpdKb2fYvqa2XcIp4nWkqzfRit/b2GBMP+D4y7lYLXYkxjXqjMe6Mt0UtDP2Ja939JepObAOTcxBLJes4olonKI2cguI0OnjQjp2LZgG4UquZY9iU5dJ1nqWFHAcPjHo+SRo5jfwfFclIcSZwBjmWniBvNlKnAMA6dUVm8CTwsWtHC55rDuCcuMb5a584KpGNsNzdLj+n0mWGK0GHFHSt1hxG3a8drSfIdF1Cc0k6Hzr46jRKTVxAFVp8vOCWjsmYPTQw7oorDdr2k8HA8wulQzbeeTdG50nFprse5za+VrR1FVt9YNNPtR9rT4oNl+U3Ny8jLRpybishQIDDEixHmzWNAuST2BfoAALdS1l258042EMAy+BqRMmFUMUOc2M5jrOZKMtv/wA42b3Erg2FnO/uYUIf1PuXW+47t/dxsLeVeXUv+DWjad2gqjnLit9OpUw+FhWkxnNkIDSQJlw0MxE6ybeKOAba2pJOEgLCw6rX5oLW04cu5T/0V3WVnSsqCoUV6KXx7Smbu6qXlaVas934dhGg7B19Sy9llssZvZoS8OpU6iw6TS4w3oc9VXOgMiDrYwNL39hDd3tWX9j3ZnkcQQZfNbH9PEeT370inxmXhxt0/t72n2QuLNB0Nrnkt32Ma1oYxoAGlhwUPx3NjtajtrJJtcZPguSJXgmV/OqauLttJ8F1vmaVSXg6qhFgNdP5sQIEa3jMhUV0Ro7nGO0nzBediHweeLZOXMTDGYlLqcUa9HOST5QHuLXRdfIt6GCwtdLAqLrNeKqXSdT3aLT4IkzyvhjjooPnq/qcjswsqsfZW1IUzG+HJmnueT0Ma2/Bjgf5OI27XcRpe4uL2VprsFjDB2G8dUGawziqlwZ+nzbS2JDiNuQbaOaeLXC+jhqOS5h585PVHJXHkxhqO98enTDTNUyaI/bZcm1j9U0+KfIeanGX8xxxV+RrLo1F3Nez6EKx3LzwteVpPpQfen7THFgeS3Y2JM/ZipBmTmLZx0SPAhF1DmXuu58NgJfLEnm1vjM+pDhpui+lC+6g1ypYZrUhiGjzL4E9TJhk3LxGeyY9hBH/AFHMXHNdXF8Mp4paulJbrg+x/wC8TmYViE8NuVVi+a9hvvti5JZhZwRsMPwNS4E4KX6JEz0s1Dg7u/ubtt8i/ArW/wBZTtBWv6mZHX/zOB+kug+X2L5THuCaLjGR3RCqsnDmC1huGPIs9l/qXBzfIriFiLqtLXMd9hdLzSKjpFtbrfXvLFusv2eJVPOpSestOD/Y5GZk5YYwynr0HDeNZKDKT8xKsnGMhx2xWmE5z2g7zSQDeG7RWotl/CAaZ00q3E4altf/AMqaWs6s7CLyd9Z069X1mt+8rjE7WFndzoQ4J7H10qmzdZqklR5CGHzM/MQpWA0uADokR4YwX5XJHFZrGxTtBEXGGJH75wP0livLf2x8J9lep/5zD/6rr4y26NeS4WZMcusIqU42+jUk9dd+z2o7eXsFt8VhOVdtaacDmx6yfaC+DEj984H6Sg7FO0GDb1LyVrcfTOB+kulNu2ya++UX++uI9ke5/Ukv3PsO2Xevoc1vWU7QPwZkPvnA/SWLswcvMUZYYkfhPF8nClqiyDDmHQ4cZsUbj77pu025Fdeeeq5wbclhn/N/FMlfh9Wu9l7Md5il35Cslpo3sn2r2nDx/L9rhlr5ai3rqlu/2MAr0MO0Gp4pr0hhuiwWxZ+pzDJWWY54YHRHmwBJ0C8/vV85FX/ZnwV8dS1uzx1Mbqq6NCdRcUm12cCJW1JVa0ab4NovwbFO0C4XGGZEj4zgfpKfWT7QfwYkfvnA/SXSdo8UaqfslWLzriPZHuf1LIWT7DTjLvX0NWNj/IjMnKLEVfqGOKTLykGek4cGAYU0yMS4PubhpNtFtPe9tf8AqoLb8SpsOKjt/fVcRuHcVtNX2HfsbGnh9BUKPBdpI7lKgcON1K1DdCIiAgm3JRvdiHioLgBqsPsMb9RgTbTzB9ReTU5SpWP0c/iaKKXB3fZdERvRnAfxYcL8i4Lm7awA7FsPtwZh+q/N04ak4+/IYTgCUAadDNRLPjHyDo2HqLSteO75FcOVrLzLDouS3nu/l8CpsyXvnl/JRe0dl8/iRzGnV/X1rqhs2YBdl1k3h2hTEEQp6PLienRu2d08bxy11+bWlrD9YueOQWAzmRm7hvC8WD0spEmhNTrSLt9DQbxIgPUCG7t+t4XVxoAAA4WXAzveb07Rc34L5nbyZZ+vcy5LxZNt0AcbLXrbgwG/FmTkWvykuYk5hiZZPjdF3GXPiRm9wBDz/FjqWwt18FdpElX6NPUOpQRFlKjLRZWOw8HQ3tLXDzEqEWN07K5hXX9LX+9xM7+2V5bToP8AqTON44cQe0c0+XsXs4xwxPYLxXV8I1IH0TSJyLKPJFt7cJAeOxwsR2FeOr2pzVWCnF6popKpB05uEuKOlWxrmGcc5K02Rmo3SVDDbjSJi7vGLGAGC63HWG5jb8yxyzrcLnhsL5hepbNaLhGbj7kliqW6AAmzRNQt58InvaYrbcy8Lodx15FU3mKx8wxCcV6st17/AN9S3cv3vntjF67x2fuBsbgjVWDnthCs4+yoxFg/D7ILqjU5XooAixNxm9vA6nlwV/XuVFrm91xqVWVCpGpHjF6rX2HWq0o16cqcuEloc5PWM58HhJ0T74//AOU9Yznz/mVE++I/RXR0BLd3mUo++eJf+Pd+5HPuhh/bLv8A2OcXrGc+P8zof3xH6KesZz5/zKiffEforo5bU8PMl7aaJ988S4+j3fuY+6GH8NZd/wCxzi9Y1nx/mVE8lQH6KxBj3A1Wy5xNMYRr01IRqjKNaZhslH6ZsJzhcMc6w8a1iRyBHcuie09n1J5MYNdDpkaFExPWGOg0yCQHdFyMw8a+K2+gPF1hwvbmfOTU1UJuPPT8xEmJmaiPjR4sVxc+LEcbuc5x1JJNySVMcuX+I4nF17lJQ6tFxffwIlmCyscNkqFs259er4L6n4jUA9eq/SBAjzUeHLS0F8WLGe2HDYwXLnE2AA4knsVHaT2krcXYn2e/RcWFnHjGRvChH+8UtFb7J4NjNEHqNwzle7uTSutimJU8LtnXqe5drOXhmH1MSuY0Ie99iM0bK2QsLJ/BjajWoEM4nrTGxZ51rmWZxbLg/U+6I0LusAFWN4QcWy3oA4/324/+k5bVtsGgDktVfCEe1xQPjb/luVX4Rd1L3Gadeq9XJ/Jlk4ra07PB50Ka2S+aNClB9iVKg+xKt9rZlTrijrJkN7TODPiaV/JhX6rCyG9pnBvxNK/kwr9VD3v4mp/k/EvGy/DU+S8AiItY2T844+gxL+9P4Fx4xd+66vfGs5+Weuw8f9oifWH8C48Yu/ddXvjWc/LPU+yL/Mrcl8yCZ29SlzfyPKW0fg+PbTxD8Qn84hrVxbR+D49tTEPxCfziGpRmR/8AS63JeKIxl5L7Tpc/qb+WKwntmi2zhiw9bqd+fy6zasJ7Z372/Fn19O/P5dVPhX46j/nHxRaeK/ga3+MvBnMs8U5oeKK9SkzL2J8yosDZywVlRTpktE3Mz1VqgY629DE3EbAhm3EFwe8jTVjDzWImNdFe2Gxpc95ADWi5JPUAq5WVmJ2ZhSclAdGmJiI2FChsBc57yQGtA67kLovs17L9Ayvo0pibE0pCncWzLBFiRIjd9sjfhDhg8HC+ruN7gacY9iGIW2XaDemspttLrbb11fgd2xsLnH6yXCMUk32JbbGmuHdmHPnFMo2dpWXFQbBc0Oa6ciQpTeB4ECM5pIVGI9mbPbCsq+cq2XFSMGGCXulHQ5vdAFySILnm2vHv6l1PDQ02HDqQsaeNioh99rzp6uEdOzfXv1JZ9zbRR0U5a+7Tu0MJ7LVQk6Hs2YeqlXmGykrJSkzGjxIviiGxsaIXE9wC0k2iM9atnZjCJNsiRoGHpBzoVLkybAMOhiuA0332B52FhyWyG3hmd6n8NyGVdCiNgxa6XTdSEIbv9ztdo029+/U9e72laMcRxXcyzh8a054tWjo5tuK7E+v5HFzFfyoxhhdJ7QS19rJ46gdZsF7WEMG4mx7XoGGcI0iPUqjMHxYUEaNbze5xsGtHNxsAvLkpOaqM3Ap0hAdGmJmI2FChtFy57jZotz1XTzZ1yLo+TOCpeXfBZEr9Qhti1SbOri8jSE08QxvVzNzz062PY1HB6Kems3wXVzOXgeDzxatpwguL6+RhLAXg+ZAykKazJxpMvmHtDnydHa1rIZ6umiNcXeRjf61fE3sEZLTMs2FLz+JZaIG26Vk8xzj3h0MjzALZEC41Uqs6uYMSrT6cqrT9nAsell/DqcOgqSfPic7s6ti3GOXFPmMSYRqXqlo8s0xZhgg9HNy8MalxYCREaBqS2x4ndsLrXAa8NewLs69gebOAI6lzh2yMn5TLLMWHXKHKCBRcTB81BhMbZkCZaR0sNoHsR4zXAcLOIHsVMcs5jq3tTzS63k+D7fZ2akRzHl+nYw86t1pHrXZ+xgFpLXhzHkOBDmuB1BHAjqN10i2Qc64uamAjR67M9JiHDoZLzZd7KPBIIhRvKAQfqmlc3Oy97LMGyhj6LgHOyhxHRiyRrb/SicBNgRFIEM9pETctfgHOXZzJhsMRsZOPrRWq7dur3nIy9fysLyOvqyejXzOoDeARG8Aipwt5EoiIAiIgIQ6KVQSSeCAh7tD5+K5wbZGcr8xswfUzR5suoWGnugM3T4saavZ8TtAsWjuPWtr9rHOf9ifLuNL0qOG1+ub8nIhp8aC0iz43Zug6HrI6rLmmTvG7nlziblxNyT3qc5Pwrpzd9UWy2iQLOGK9BeZUnx4kC5Fzz1U8kIA0HBOR7lY5Xm+mjIUqBwUofYREQBQTbipUEXIb1p1bAyxsyZXR80c1qbJRoO9SqU8T8+4+x3GnxWX63Gy6iQYbYUNsNjQ1rRYADgOQWu2xTlZ6ics24oqUuYdTxKfRFnDxmS40hjy6u8oWxgPyKoMzYj5/eyUfVjsvmW1lrD1YWalJelLckcFKIo7xJGERFkBERAQRdWfmblxh7NDCs3hXEkuHwI7SYUUAb8CJbR7T1hXgddFSWg8exfVOpKlJVIPRo8q1GFeDpz3TOR2aeWWIcp8WTOFcQwSHw7vl4wHiTEG9hEaeYPyFWl866kbQORlFzqwm+QisZLVqRDotMnzoYT7ascRqWO4Edl+WvMjEOH6vhWtTeHK/IxZKoSEUwo0GI2xBBtpfiDxB4FW9l7G44pQ6M3/Ejx9vtKlx3B5YZX6UV6EuH0POUpukclHOykZw9SUREAREQBERAEREBHFXBgDGdVy+xfTMX0Z5EzTY4ibl7dJD92zuIuPMvAUCwBaea8qtKNaEqU+EkfcKkqMo1IcUzr9gTGVJx9hOmYtoccRpSpS7YzCDq0niw9TgbgjkQrgBvwWiOwxnIyg1yYyrrc3uSdVe6ZpjojtGzNvHhg/VgXA6wetb3NsBwVKYxYSw26lRa26uRcWD4isStY1Vx6+YRAi5h1giIgCIiAIiIAq1Qq0AREQBERAar+EF9rag/G4/JuWgw4LfnwgvtbUH43H5Ny0GHBW3lH8rjzfiVVmz8ylyR9VK+msj/KoP44XYuk/SuT/iIf4oXHSlfTWR/lUH8cLsXSfpXJ/xEP8AFC4uev8As+/5HYyVxq+4ir0yUrNNm6TUILY0rOwXwI0N4uHsc0ggjqsVyPzHwVN5d47reCp0O3qVOPgw3O4xIPsob/KxzT336l17IButHvCA5ciSrNFzOkIBEOeh+ls+5o06Rt3QXHybw8gXNydf+b3jt5erPxW6N/N1l5e0VxHjDwfE1C1HLULcjwfuY3RTFcyvnoxLYgFUp4cdA4WZGaO0jccB9S4rTdXZlPjmZy4zFoOM5UvtTpthjtYdYkBx3YrOrxmFwU/xqxWI2U6S46armuBBsHvPMb2FbXbXR8nxOuQNxeyXPUvwkZ6VqMlL1CTjtjS8zDbFhRWG7XscLhw7CCCv0iENYXvO6ACSVSLTT06y5ekmukuBqft+5j+lmFKVlrIR7TFci+i55oOolYRG60/XPI79xy0UWRtobMX9lHNyvYngxjEkGRfQNOPL0NBJa1zex533/ZrHGup42/X9e9XRl+x8wsIU3xe75v6FPY7e+f3059S2XJGSdnfLt2Z2blBw3FgmJIwo3o6oaaCWheM4Hscd1ne9dVYY3WBoAAAsFqbsB5cCl4Sq2Zc9L2ma5G9BSLnDVsrBPjEfXRbgj/VNW2QPAqvs2X/nl+6cfVht7+v6e4nuVrHzWyVSXrT393UY92hjfJLGXxTG/AuUY4Lq5tDa5JYy+KY34FyjHBSTI/4ap/l8iO50/E0+XzJW+Hg7/a7xV8ff2aCtD1vh4O/2u8VfH39mgroZu/Kpc14o0MqfmMeT8DbBWPnf7UmLfiiZ/JlXwrHzv9qTFvxRM/kyqrs/xEP8kWbe/h58mclWewb3BVcx3qlnsG9wVXMd6vxFHvib4eD1/cBiT41b+SC2scbN69Vqn4PX9wGJPjVv5MLZfF1W9IMLViu3A9L5CYmrn/Vw3O/qVL5gi5YtViut/JFvYFNQwunJ9S+py62gcZxMfZx4pxC6KXwPRz5OV6hLwD0bLdhDN7vcVj3v4oXOeS97nOc43cXG5JPFFcNrRjb0YUocIpL4FT3FV160qkuLbZfOSOXTs1M0KFgx4cJSamOlnntNi2Whjfi68iWtLQetw611cp1Ok6XIy9Np8uyXlpaE2FBhMG62GxosGgcgBotIfB44ehTWK8X4piQ/olPkJaRhOPD6PEc9/l+gM8/at5xcAdyq/ON469/5D+mCXe99SyMo2io2Xl3xm33LYkCwslkClRMlfEiyWUohki3Wvgrt/SSfP+yxfxCvvK+Cu/SOf/ksX8Qr6p+uuZ51PUkcdZ7/AB+a/j4n4xX4r9p7/H5r+PifjFfir+p+qii6nrsvLJzApzJzNw/g1zSYE7NtdNkcpdnjxPkbb7JdZJKQlpCTgSMlBbBgS0NsKFDYLBjGiwAHUAtBNgOhwqhmvV6y9t3UqkkMPUYsQA/I1dBBwVXZzupVb1UNdor4v/UWVk+2VK0lX03k/ggAALdSWClRdRAly2NI/CG4vfFq2FcBwYrgyBAi1WYYDo4vd0cM94DIv85aeLPO21U4tQz/AKtKRC4tp0nJy7OoAwWxbeeIVgZXRl2irfDaKXWte/cpzHqzuMRqt9T07tiDf3LS53JrRcu7PLwAXWHI3LuVywyuoWE4MJrJiDLNjTz2/wAJNRBvRXE/XEgdgA5LmXlLSG17NLCNIeLsma3J9ICLhzGxWucPKGkeVdcIYDWBgFgAAFGM8XLXkrdcN2/BfMkmS7dN1LhrdaIqDRZTYIFKr4n5FtUt2qUQFi52YCl8yMsMQ4UiwGxY8zJviSemrZpg3oRH2bWg9hI5rkzbd8U8Roe9dnYguCOsarkPmdTIVFzJxZR4DQ2FI1yflmAcA1kw9o+QKwMjXLflbd8Nmvn8iA50t0vJV0t90W0tsvB7YniSuMsT4NfGPR1Cnw6jDZfTfgv3HEd4jM/mhamrOuxRPPk9oOjQWPAE7JTsuRe1x0RiW/8A4wfIpVmGiq+G1l2LXu3+RGcCrOjiNGS7dO82B8IJhyYn8tqHiWBDu2jVUMjk8GwozHMv/P6MeVaEniV19x5g6k5gYQq2Da7D35OqyzpeJbRzLjRwPItNiD2LlbmZlribKnFc3hPE8s5sWA4ugTIb9DmoN7NisPUerkbjkuDkzEITt3ZyfpR3XtTO3m+wnCuruK9GWz9jLTIvx7j3dS3i2WtrHDDsN07LjMipQ6ZPU2EyUkajHduy8eC2wY2I46Q3tFhc2BAGt1o8nbc+Q2UkxXCqOK0fI1dmt011EewzE62F1vK0uD46nZuBMQZiCyPAisiQ4g3muY64cDwIPNVl4BtZcl8BZ15o5ZxGHB2MZ6Ul2H/E3u6aWPX9Cfdg7wAe0LZnLfwgIc9khmnhMQwSAajRwSG9r4DzcDmS1xJ5NVc32UL211lS9OK7Nn3fQsCyzZZ3OkavoS9u67zc/jqeCkaeVW1grMXBOYdNFVwXiWRq0to1zoETxmE67r2nxmHscAexXGDz/UqL1Kc6UnGcWmu3iSanVhVj0oNNdq4B1+XeuZ+2PiyJirPasS7Xl8vQoUKmQhyuG77yPsn2P1q6XuO60m3AErkRmdUX1fMrFlTiHeMxW55zT9T07w3+iAplkmgp3c6r/pj4siGc6zhawpLrfgW1xVx5c4RjY8x3QsHwd4emk9Cl3uAvuwy7xnHuaCexW4s/bD9EbVc95Oec2/pTT5qaFxzLRC/5qsDFK7tLOpVXFRZBcOoq5u4UnwbR0Uo1IkqJSpOj02C2BKSMBkCBDaNGsa0Bo8wX2htggUqi2+k+k+suuMVFKK6iALc0t1qUTgfWmpQW63J0WuW3PgOBiTKF2KIUAOn8MzDJpkS2ogPO5FF+qxDu9oWx55qz836TCruV+KqTGF4czSZphH/pkrdwy4dreU6qfBr9zQxS3VzZ1KT60/2OSCdxsVTDN4bTpqBwVSvVbpFKPZnQbYKxQ+sZSTeH40YviUKpRGMbf2EGKA9o/ndIVswBYdpWlfg7Z5zJjGdMBbuxBKRyL6+Lvt/4luqNQqXzHRVHE6qXBvXvWpb2Xqrq4bSb6tu5nPfwgNv2aKVb4NS351NLWccFsx4QH26KT/uzLfnU0tZxwVnZb/K6PL5lcY/+ZVeZcWW/tjYT+Paf+cw119HsRbjZcgst/bGwn8e0/wDOYa6+t4DuUSzzvWo8n8iV5K/lVeaG6m6qkUERN9EU9i5v7cnt/wA58UyX/GukB9kub+3J7f8AOfFMl/xqWZN2xL/6vxRFc4fgEv8AyXgYBV85Fe3Pgr47lfx1YyvnIr258FfHcr+OrLv/AMJVf/i/Army/FU/8l4nWUC4CbqkcB3KVRBeCRFtNUspRDJA0UoiAIiICDzVu5g4ukMA4LrWMaiR0NJkokzYm3SOA8Rg7XOIaO1wVwki/wCuq1O2/swvSzCNHy6kpi0etR/Rk6xp1EtCPiBw6nRNR2wj1Lfwuzd/d06C63vyW7+Bz8Uu1ZWk6z4pbc3sjRyrVSerdVnK3U4vSzk/MRJqYiHUuiPcXOPlJK+XqHmUBHO3Gl1r2F7K8kowj0eCSKXk5Tl0uLbN0PB7YG3WYlzJmYBu8spEk8i3ii0SMe4kwR9iVudqRoeC1+yFzCyMyyymw9hKLmrhGFOS8oIs6PTeBczUQ78W/je/c4dwA5LIHrg8jTb/AOrmEfvvA/SVN435zfX1WsoS010Wz4LYtnBZW1lZU6TnHXTV7rr3MhgKLG/FY/G0LkZb23MJffeB+knrhcjP/FzCX33gfpLl+ZXP9uXc/odRXttp/Mj3o0528sBuw9mfJ4zlYNpbEsmGxHAf9pg2ab98Pct9YVrOeOi3u2vsZ5O5mZTR2UHMvC89WKNHZPycvAqkF8aLa7XsY1rrklhdZaI2tpa1uyytnLFepWw+MaqalH0d9uHD4FW5io06V/KVNpxlvtvx4n3UCtT2HK7T8QUyKYU3TZqHNQHt4h7HBw+ULrrgjFMhjbCNIxZTHAy1Vk4U0wA33C5oJae0G4PaCuPfkHz96362CcwvTzAFQwHOTG9M4emOkl2k6mWine0HY/e1+qXKzpY+Vto3UeMOPJ/udPJ975K5dtLhNfFG0oF9SptyQcFKrLQskix60161KIZI71bGYuPKDlrhGoYwxHMdHKSMPeDQfGivOjYbetzjoP8Aorijx4UvCiR48RsOHDaXvc42AA4knkFzb2rs/X5v4t9JKFMH1LUWI6HK7pIE3G4OjnrHFreoXPPTs4JhM8VuVD+hcX/vacbGsVhhdu5f1vgjGWZuYdczSxlPYwr0U9LNO3YMAO8SWgi+5Cb1AA+e55lWrw7lOvMa817mCMGV7MDFFPwjhuVdGnqjFEJlhowe6iOPJrRck9iuKMaVlR0W0YruSKkk6t3W1e8pP4mRNmfIubzoxs0T8GIzDdIc2LU4w06Q8WwGn3zufU2/Oy6bSMjK06UgU+Ql4cCWlobYMKExtmsY0WDQOQAAVp5SZX0HKTBEhhChQwRAbvzMxbxpmOR48R3eeA5AAcleg0VP4/jEsVuXJepHaK+fvLYwLCo4XbpS9d7v6Ehaq+EI9rigfG3/AC3LaoG61V8IR7XFA+Nv+W5Yy7+aUefyZ9Zg/LavI0KUH2JUqD7Eq6JcGU/HidZMhvaZwb8TSv5MK/VYWQ3tM4N+JpX8mFfqoa9/E1P8n4l42X4an/ivAIiLWNk/OP8AtET6w/gXHjF37rq98azn5Z67Dx/2iJ9YfwLjxi7911e+NZz8s9T7Iv8ANrcl8yCZ29SlzfyPKW0fg+PbUxD8Qn84hrVxbR+D49tTEPxCfziGpRmT8srcl4ojOXvzOlz+pv6sJ7Z372/Fn19O/P5dZsWE9s797fiz6+nfn8uqnwr8fQ/zj4otHFfwNb/GXgzmWeKIeKK9SlDZDYZy3l8X5nzOLalAbFk8KS7I8MOFwZuIXCF5g2I7va1dDRYcQtZNgKhMkMpKnW3Qx0tUrMYh+lzDhw4bGjyO6Q/ZLZwDgPIqbzNdu6xKa6o7L3cfiW5lu2Vvh0GlvLdjibKCLdxUnhdfjOxDBk48UGxZDc4eQH5lwIrVpdZ3ZPRNnLnaexe/GeeOKKgIu/LyMyKbL/UsgjdcP5+/51i1fbW6g6rVupVZ7t509OR5km97l8Rzv618Svmzoq3t4Ul1JL4FH3dZ1686j622Z32LsEwcX52SU7OQRFlsPS8SpuDuHSNIbD8z3td5Cuk2gGoXI7L7NXH2Vc3Nz2Aq8KXMT0NsKPE9CQI5cwG4H0Vjra9Svn14m0eOGZDvvTI/+wohj+Xb/Frp16coqKSS1b+hKsCx+ywu1VKcZdLV67L6nToHRLrmL68TaP8A/Eh33pkP/YU+vE2j/wDxId96ZD/2FxXknEF/VDvf/wDJ2lnOx/TLuX1OnBIWtW3tQ4dRybla10Y6aj1iXiB1tRDiNfDIvyBc5neQAtXPXibR/wD4kO+9Mh/7C8DGu0XnLmJh6PhXGWMzUaXMuY+LA9ASsLeLHBzTvQ4TXCzgOB14Ldw3Kd/ZXdO4lKOkWns3r7eo0sRzTZXtpUoRjLVp8UvqzG/K2vlX6y05M06Zg1GTfuTEpEZHguA9i9hu0+QgL8+feosTw6iFYk104sgMXpJM7H4cqsGuYfptZl9YU9KQphmt/FewOH4UVqZBzno7JPAsxvFxOHqe1xPEuEBgPygoqEuIeTqyh2NovK2n5SjCb60i/URF4nuEREBBK+SpVCVpkjMVGdjtgy8tCdFivcbBrWi5JPcF9LnAGxC1R2485/U7hyFllQZvdn6y3pag5p1hSo9xpqC8/ICt3DrKeIXMbeHX8EaOJXsLC2lXn1cOZqttA5qz2b+ZE/iJz3Np0sTKU2DfSHAadDbrcdT5OpY4BujGbotY6frdALK6rS3ha0o0aa2SKUuriV3VlVnxZKcj3InI9y2TwIHBSoHBSjPsIiICFf2ROXMfNPM+j4WEIulDFE1Ou5Nl2G7+69g3vcFYLiACTwAK382FMrIeGsDTWYNSlgKhiRwbLudqWSbCd231zru8jepcXMF/9n2Upr1nsubOxgVh9oXkYdS3fuNmpGTgSMrCkpWG2FBgQ2w4bGizWtAsAB2BfUBZQBzVSppty3ZccYqKUV1BERYPoIiIAiIgIIJ5pZSiAocwm+q132rNnWFmjQvVXhqVhsxRS4R3bC3o2EB+1OPMj3JK2K11VLmXPZ1LZs7upY1416T3RqX1nTv6EqFVcTjPHl5iUmYsnNwYkGPAe6HEhxG7rmOabEEciOa/I8Sb8VuxtlbN7J2BGzYwPJETMEF9Xk4TLiI0a9OAOY91pqNeS0mBDiQ3tVy4RilPFbZV4cete0p/E8NqYXcOjU4cU+1Eoptx1VK6vI5616yUREAREQBERAEREB+slOTVMn5apSMd8GalIrY8CK11nQ4jTdrgeRBAXVLILNaSzdy6p+I4cRno6EPQ1QhC14cdo105B2jh39i5T24n9Ss37JWb5yuzFgyFSmzDoWIC2UnATdsOJf6FF7LHS/USormnCvP7bytP14b811okeW8U8wulCo/Qlt7+o6XN4aqVTDIcxrgQQeY4KpVNppsWwnruEREAREQBERAFWqFWgCIiAIiIDVfwgvtbUH43H5Ny0GHBb8+EF9rag/G4/JuWgw4K28o/lceb8Sqs2fmUuSPqpX01kf5VB/HC7F0n6Vyf8RD/ABQuOlK+msj/ACqD+OF2LpP0rk/4iH+KFxc9f9n3/I7GSuNX3H1nRWDnll9BzOywr2Enwg6YjSxiyZt7GYYN6GR27wA8qv2x1UOaT5eKgVGtKhVjUhxW5N61GNenKlLg9jjLHgR5WPFlZiGWRoL3Q3tPEOabEHtX56OsDqFm3a+y59QGclQjSsDo6fiAemktujQOebRW+R4dp1ELCavWyuoXtvC4hwkik7y3lZ15UZcYs6P7FuYzsb5Qy1InJjpKhhmJ6Xxt513OhWvCcfsTb7Fe3tY5kHLjJurRpOP0dTrQ9KpI3sWuig77xzG7DDyD77dWpWxDj44TzgZhyZjFsnieXdKWJ09EMu+GfkeF623njw4gzLkcEy8YOlcNygMQDX+6I4DnHtswQ+43UAq4H/1/yWnoP0/d2d+xOqeNaYF5TX0/U9//AAaxgACwFhyXoYfoVQxTXqdhqlQ9+cqk1DlIAteznusHHsGpPd2LzzoTc253PetmthHLn1SZjzmOZ6W35PDMHdgEjxfRUUEA97Wb385TrE7uNhaTuH1Lbn1fEhOHWrvrqFBdb3+ZvVgjClPwThGj4SpbN2VpMnClYfW7daAXHrJNyTzJXuW1QG4UqjZydSTlLiy64U404qMeCMdbQ/tJ4y+KY34FyjHBdXNof2k8ZfFMb8C5RjgrJyP+Gqf5fIrvOn4mny+ZK3w8Hf7XeKvj7+zQVoet8PB3+13ir4+/s0FdDN35VLmvFHPyp+Yx5PwNsFY+d/tSYt+KJn8mVfCsfO/2pMW/FEz+TKquz/EQ/wAkWbe/h58mclWewb3BVcx3qlnsG9wVXMd6vxFHvib4eD29r/Enxs38kFnjO8ubkzjtzSQRhqpkEcQfQsRYH8Ht+4DEnxq38kFsnjWkPxBg2uUJjQ51Rp0zKNBOhMSE5o/CqaxuSjjFRv8AUvkW1g0XLB4JfpZx8RNed7878UVyR4IqWWzepur4Oz6X45Gh+jyBt9jG+b5FuSDotC/B84ohU7MDEmFYzwz05psKZh390+Xe4bo7d2O89zCt9RqFT2aacoYrU14PR/BFs5YqKeGwS6tV8SURFHkSEIiICCvgrv0jn/5LF/EK+8r4K79I5/8AksX8Qr6p+suaPip6kjjrPf4/Nfx8T8Yr8V+09/j81/HxPxivxV/Q9VFFVPWZt94O9rTiDGLt0XMpLC/O2+751vBxWkHg7vp/jD+Sy347lvAFUOa/zWp7vBFrZX/LIe/xHBQdTZVKLKOIkRzD2v2lu0PisOaR40rb7lh2WHOfG62A246LEpmfM5PvabVanSk008iGtMH/AJRWv/DTqV4YLNTw+jJfpXw2KWxiLjf1k/1Mv/Z/IGd2CSdB6bwbnzrq8GkgLj5geutwvjSgYle/ch0uqSs3Ed1MZFaXedoK7Ay8ZkeXZHhuBbEaHNI7dVCc8U5KvSm+DTXc/wByZZLqJ0atPrTT+H7H6AWUqBe2qlQYm4REQFD72JHLULk5nvHhzGdOOYkL2Ir89D4W1bGc0/KCusEzHhS0GJMR4jWQoTS97nGwa0aklcesW1p2JMVVrETw4OqlRmZ0h3H6LFc//iU5yPSk7irU6kl8X+xCM6VUqNKHW2/gv3PKWZ9jmA+NtG4Tey1oHo6K+/V6DjN/C4LDC2O2DaI+pZ1TFVLLwqTR5iLvHgHxHw2NH80v8ymmOVI08OrN/pa71oQ7BqbqX1JL9Sfczohu3ub8VZmZ+UmCs2qG6iYwpTJgMu6XmWeLHlnH3TH8R2jUHmFeg4JbW6palVnQmqlN6NdaLkq0oVoOFRapnOnNfYrzIwPEjVHCDDiekMu4GAAJqG0D3UO/jd7bk9S18m5OckJl8nPykaWmIbt18KLDLHNPUQdQexdmC0Eqzsc5PZb5jy5g4xwlIT7yN0RzD3Yzb8d2I2zm+QqaYdnSrRXQu49Jdq2fcQ2/yfTqtztJdF9j3XeckiCOIPmTTS44dgW6uY/g/pGIyNP5XYnfBitu5tPqg34buxsZo3m/ZB3aQtR8aYGxZl7XYuG8Y0WYps/CG8GRh4sRmtnscLhzTY+MCRoRxBtNsPxm0xP+RPV9j2ZDL/B7vDn/ABo7dq4Hz4YxViXBlWhV3Cdbm6VUIJG7Glom6SPeuHBzfqTcLfPZp2tZPNCLCwZjsQKfiYttLxW+LBqFhruj3L7e55626lz30I7DqF+spNzVPmoM9IzMSWmZaIyLBjw3Frob2m7XAjUEECy8sXwW3xWm1NaT02fX/wAHthWMXGGTUo7x611HZSOLy7weO6fwLjviQFuJKuHNLSKhM3B5HpXLqPkFmU7NnKmj4smg0T0SG6VqDGjRszDJa825B1g8DkHBc083aTEoOamMKVGaWmBWpxwFuDXxXPaP5rmqL5Mg7e6uLartJfJskubZxuLehcU94vX46FprZTYHt+zNP30PpHH58fosJa181mvY6xHCw7n3QhMRxDg1SHHp7r+6c+Gejb5YjW+dSzHIOrh1ZR/S/gRXBqipYhSb/UvidNBwUqGm7QVKpIugIiICCOK8XGkWFL4RrcaMfEZT5gu7uicvbWOdofELMMZL4uq7nhr2UuNChC9t6I9u61vlJAXta03Vrwguto17qoqVGc31JnKGBcwIZPEtH4F+igDdG71aKVfi4FGvibd+Dwl4hxLi6cFtxklAhnr3i+4+QFbycLlaheDyocWDhnFmIHsG5OTsCWhOt/k2EuH9Nq29FiAqbzPNVMUq9Hq08EW5lqDhhtPX2+Jz38ID7dFK/wB2pb86mlrOOC2Y8IBpnRSv92pb86mlrOOCsrLn5XR5fMrrHvzGrzLiy39sbCfx7T/zmGuvreA7lyCy39sbCfx7T/zmGuvreA7lEs8/zqPJ/IleS/5VXmipERQRE4KT7Jc39uT2/wCc+KZL/jXSA+yXN/bk9v8AnPimS/41K8m/mX/1fiiKZw/AL/JeBgFXzkV7c+CvjuV/HVjK+civbnwV8dyv46sy/wDwlX/F+BXNl+Kp814nWYcB3KVA4DuUqiC8FwCIiGQiIgCIiAofoCb9q5Z7TGYRzIzkrtXgxxEkZGKadJWJLeihXbcdQc7ed3ldA9ozH7ct8oq/iCHF3JyJAMnJa2JjxfFbY9lyfIuVdy4l7nFxd4xJ5k81P8k2Orney6vRXz+RA85XuihaR6938gnlPkNlHInqX0y9OqE2zpJWRmI7A4tL4cMuAPVcKw5OMV6T2IDGMpPbifPr1/ImvWvt9JKz/omd+53/ADJ6SVn/AETO/c7/AJl59Ol2r4HoqdXTh4nxa9aa9a+30krP+iZ37nf8yeklZ/0TO/c7/mWfKU+1fAeTqdnifEDY3UAWAHULL7vSSs/6Jnfud/zL8ZmQnpMNdNyUeA15IaYkJzbkcbXGqKpBv0WjDpzS1aPwWX9lHMI5e5z0eYmI3RyFYPpXN3Nm2iEbjj3PDVh8EHUEHuVcOJFgxGR4EQw4sNwfDeOLXg3BHlF15XttG7t50JcJLT/eR6WlxK1rQrR4p6/7zOzjToLqQexWDkbj6FmVlZh7FoeHRpmUbDmhe+7HZ4sQH7JpV+X5qiK9KVCpKnLjF6F3UKsa9ONSHBrUm56k39bWUXWH9pXPORyWwU+PJRIcbEVUBgUuWPjWdzjOHvW34c3EDhcj0trapd1Y0aS1k3ojzubqnaUZV6j0SRh/bX2hvS2Xi5P4Nnv7smYY9O5mE7WBCdqJcEcHOGrupunPTSEeLoOAFtF+89PTtUnpip1GafNTc1FfHjxojt50SI43c5x53N1+F7Dje3WrpwjC6eFW6ow49b7WVBimI1MSuHWqcOpdiKmMfEe2FDY573kNa1ouSSbAeVdGNkrZ/ZlXhcYpxHJj1UVuE10Vrx40lAIu2D2O4F3bYctcLbFWz83ElRZm7i6SvS6dFIo0vEbpMx2mzo5B4sYdG9brn3IvvboQAflULzbjnlZOwt3svWft7Pd1kvytgvk0r2ut36v1+hUBoL9Sjd4a8FLeClQPgThrqIGmi1V8IR7XFA+Nv+W5bVHiFqt4QdrjlvQCGkgVe1wP9U5dnLz0xOjz+TOPj61w6ry+hoSoPsSiHgQrplwZTy4nWTIb2mcGfE0r+TCv1Y+2f5iHM5KYKjwTdj6LKkE/WBZBVD3q0uaif6n4l4WT1tqen6V4BERaptH5x/2mJ9YfwLjxi7911e+NZz8s9dgp+KIEnHjkgCHDc7XsC47V6bZUK9VKhCILJqemI7bcLPiOcPwqfZFT6daXL5kDzs10aUefyPhW0fg+PbUxD8Qn84hrVxbR+D49tTEPxCfziGpRmT8rrcl4ojWXvzOlz+pv6sJ7Z372/Fn19O/P5dZsWE9s797fiz6+nfn8uqnwr8fQ/wA4+KLRxX8DW/xl4M5lnil+SHio5+ZXqUodJtiRrfW+UUtaATNz1yBx/uh6z1btWBtiP973RP5ZP/nMRZ6VG4x+YVv8peJdOEfgaX+K8CLcl8dXuaVOgDX0PE/FK+y+q/GZh9LAiwvfsLfOFz6b0kmzfqLWLOMcFpZCYxzd0taAQeRVa9LFEg+k4orNKeLOkqjNSxHayK5v9S81X9SkpQUl2FFVIuE3F9RBsBckBStpNgKZpsbH2IqHUJSBGM1SmzEPpYYdrDitBAv2RLreluHKAAP7yyH3Mz5lFcWzSsLunbulrppvr2+4lGFZZeJW6uFU0124dnvOOSLsf6naD/oSQ+52fMnqdoP+hJD7nZ8y5v37j/Z/9v2Oh9ypf3v/AF/c44Iux/qdoP8AoSQ+52fMnqdoP+hJD7nZ8yffqP8AZ/8Ab9h9yZf3f/X9zjgnVcgdp4ALseMO0H/Qkh9zs+ZR6naFe4okh1/4sz5lh56i1p5H/wBv2MrJclp/F/8AX9yydnHXInApv/3FKfkwiyLBhQoEJkGDDbDhsAa1jRYNA5ADgigVxV8vVlV001bfeTm3peQpRp666JLuK0RF5HsQT2Je3FL8bKiIbC9ljr0MPhqjwMfYyo+AcJ1LFtcjBknT4Dor78XEDRo7SbALlDjvG1XzExhVMY115M1UY5ibl9ITPcwx2NFh5+tbHbcWdBr1eh5WUGZvIUoiJUojDcRZg8IR7GAXPa7lu66ogW4q0MpYS7W386mvSl8EVfmvFvO6/m1N+jD4sq0AsFCiwHBSpgvYRAJyPcicj3LIIHBSoHBSjPsKDwUoRpqj7BqXTlXgKczNx9RsFylwJ+ZAmHgftcBvjRHdlm73lIXWWhUaQw/SJKiUuC2BKSMFkvBhtFg1jRYBambBOVjpCj1DNKrShEaoH0JTi9uogtN3uH1ztL9i3DtcKqM2Yl55eeQg/Rh4lo5Tw3zW18vNelPwJvYapcKCoUWJYVXCXCpRAVXCXCpRAVXCXCpRAVXCXCpRASSOtAQOahEBRGhNisdDfZzXixaRoR1LnztbbODsuao/H+DpL/ByoRyZiXht0kIzjewA0bDOtuQ4aaX6E818Fao1OxBTJqi1iUhzUlOQjCjQYjd5rmnjourhGK1cKuFVhuutdqOTi+F08UoOnLaXUzjlcWNjdQLWWYNpDIGqZL4p6aRhxJjDdSiOdITIG90Z4mE88nDl1hYgbc8Vclnd076jGtReqf8AuhUN1a1bKq6VVaNEIh4oto8AiIgCIiAIiIAo04dWo5EKVBA8qxpqOG50e2PM4hmNl5Cw/Vpzpq5hxrZaMYjrvjQbfQ4hPPTQnrC2B5a8VyYyVzPqOUmYlMxXKveZXpBL1CC06RZZx8YHkSLXHaAurNFrMjXKVJ1emxmxpadgMjwXt4Oa5oII8hVQ5mwr7OuvKQXoT3XPrRa2WcU8/tvJzfpw2fLqZ9qKocNVKjZJShFWiAoRVogKALqtEQBERAEREBqv4QX2tqD8bj8m5aDDgt+fCC+1tQfjcfk3LQYcFbeUfyuPN+JVWbPzKXJH1Ur6ayP8qg/jhdi6T9K5P+Ih/ihcdKV9NZH+VQfxwuxdJ+lcn/EQ/wAULi56/wCz7/kdjJXGr7j6yL80t2qUVfE8NctuDLf1YZVHFMjA36jhWL6LG6LudLOs2KPJ4r78gxy52aHhw5LsrVKdJVenzVKqEu2PKzkF8CPCePFfDe0tc09hBIXJHM3A85lxj+u4JnS4upU4+FDe/jFgmzoT+9zHNJ71ZGSr/wApTlZy4rdcnx+PiV3nGx8nVjdx4S2fNHk4brczhnEVLxFJE9PTJuFNss61zDeHbt+V7WJ6iv3xliifxtiqq4tqY3ZmrTUSaiNBuGFxvujsA0C8e+iKbulB1PKtelw1Ib5SSh5PXbiDoNOP4Sunuyplv+xxk7SJWZgblQqzfTKduPGD4oBa09zN0LQjZ6y8OZmbVCw5FgmJJMjicntNOgheMQTyuQG95C6rQmtYxrYbQGNaAAOAHYoFna+06FnF/wDk/kTfJtlq53UuS+ZWOClQNQpVelgGOtof2k8ZfFMb8C5Rjgurm0P7SeMvimN+BcoxwVl5H/DVP8vkVxnT8TT5fMlb4eDv9rvFXx9/ZoK0PW+Hg7/a7xV8ff2aCuhm78qlzXijn5U/MY8n4G2CsfO/2pMW/FEz+TKvhWPnf7UmLfiiZ/JlVXZ/iIf5Is29/Dz5M5Ks9g3uCq5jvVLPYN7gquY71fiKPfE3w8HrrgDEnxs38kFtYfkWqfg9P3AYk+Nm/kgtrbHr4qlcxPTE63P5IuDL61w2ly+pyhz7wVFy/wA38UYbMHo4DZ6JNSYtoZeMekhW7AHhve0qwDxW+G3Xk7GxHh2VzToUqYk9QIZg1BkNt3PkiSQ+3Po3Enue48locLaC4VoYBfrEbGFRestnzX+6la43YOwvJweye65MubLXG9Qy3x3RcbUwF8WlzIivh3t0sIgtiQz2OYXDsuCur+EMWUTG2G6firD062Zp9SgNjwXjjYjgRyIOhHIghce+8eQ9azLs+bSmI8kZ406ZhxKphmaidJMyJd48Jx0MSEToD1jgflXMzPgMsTpqvb/zI/FdnM6OXMbjhs3Rr+pL4HTlrrjUWU3PUrEy7zsy1zPkocfCeJpSNHcLvk4kQMmYZ6jDOvlFwr5D28lVtWjUoy6FRNPsLNo16dePSpy1RV5Ev1BU77OBIWP8x89ssMr5WLFxRieVE2xviyMu8RZl56gxvC/bYLNKhVryUKUW2+wVa9OhFzqSSSMgF9uRXxV36Rz4/wBli/ila45B7TNdzxzpqVIhU9tMw7JUOPMy0qSHRXxfREBoiRHdYa5wAHDePFbH10f3jn/5LF/EK97izq2NdUay0ez7zXoXlK+oSq0Xqt0cdJ7/AB+a/j4n4xX4r9p7/H5r+PifjFfir0h6qKVnvJm3/g7vp/jD+Sy347lvAFo/4O76f4w/kst+O5bwBVDmv80qe7wLWyx+Ww9/iSiIo4uBIjTvwhGCIkzSsN5hSsAkSMWJTJxwFyGRPHhE9QDmxB3vAWka68ZlYFpmZWCKzgmrndl6pLGEIlrmDEHjQ4g7WvDXeRcnsX4VrWB8S1HCeIZUy9QpkcwIzHcDbg4Hm1wIcDzB8itDJuIKtau1k/Shw9qf7/IrPN1g6NyrlL0Z/Bo8fjodQulOyFm3L5j5VydInJkuruGYbKdOse674kNotBjdocwAE++a5c1+KurLPMrFGVGK5bF+FZncjwR0ceC79rmYJILoTx1Gw14ggWXXx/CVi1r0I+uuH05M5eBYo8LuenJei+J10vom9y0WIcn9pzLbNmRgwoFThUmtEBsWmzkQMfv/AOrJsIg7texZd3gRe4VQXFtWtJ+TrRaftLYt7qldQVSjJNFV+tQTY2sqd8W9kBc6XKxtmtn/AJb5SU+NFr9bgx6iGHoabLvD5iI62gIHsR2lfNC3q3E1ClFtvqRmtc0reLnUkkl2lt7XmaMDLvKOpSMCO1tVxGx1Mk2X8YMe20aJb6lhIB985q5ocNLK+M4c28SZy4wjYpr7uihtBhSUm112SsG+jW/VcyeZPcrG4cvMrfy7hP2VbKE/Xlu/p7ipsfxT7UuXUh6i2X1J8nd2rfDYAwLFpOCK3jyahbr6/NNl5ZxHspeX3hcdhiPid4aFpnlzgKtZmYzpmC6FCc6Zn4wD3gaQII/bIjuoBv8AUF1hwZhal4KwtS8KUaCIUlSpWHLQhbiGi1z2k6nvXHzpiKpW6tIetLd8v+Tr5Rw91bh3cvVjsuZ7ANgG24Kq9+CwFtN59V7IusYPnqfT4NRptTfNw5+UieK6I1ohlpY7k4XPEK7ssNorK7NWXhihYggy1RcLPp044QphruoA6O8hKgTwy6VvG6UW4PrW/s37CdLErZ3ErWUtJrqexk/TrS55cFSx4sFVfS65+/Bm8nruiktB1WJ9pjK2i5m5WViBNykI1OlSkafpc0R48GMxu9uh3ENfuhrh3G12i2WS4arCO1NnTh3LbLyq0UVCFExDW5OLJSMpDcHRGdI0tMZ49yxoN9eJFhfW29hsK87uHm+vS1RoYnKjG1n5x6ujOZzXBwDgLB2qm6gCwAta2lupSr11fR23KV2TN7/B6Tsd+X2J6c4joYFZbGYOpz4DA75GN+VYW24cERMM5yOxJCgFspiaUhzIeBoY8MdHEH80Qytg9gvCszRMoJrEE3DLTX6pFjwdDrBhtbCB/ntieSyu3aryfiZt5aR4NMgB9borjP063snuAO/Cv9U24HaAqyhiNOyzFUqa+hJ9F/XvLHlh1S7wGnDT0orVf7yOZAtYW4L7aLWJ7D9Yka9S4zoU3TpiHNQXt4h7HBwPyL5HsiQ4joUWG6HEY4tcxws5pHEEciOCjloVZkkqsGpcGVzFypSTXFHXHKrMSkZn4EpeMaREaWTkEdNCabmDGbo9h7jfvFjzV3X0XLjZ/wBoHEGR1fe+FCdP0CeeDPU/esbjTpIZ4B4HLmuiGXGceXualNhzuD8RS8xELd6JKPcGTELrDoZ106xcdqp7HMCr4XWcorWm+D7PYy2cFxyjiNFRk9Ki4rt9qL3v2JdUhzSN64t3qDFhwwXRHNa0C5JPBR/Rne6S01Ki8DiRpxWne33mhAg0mmZT06YDpiciMqFTa03LILSeiYeoueN4djD1rJOeO1tgPLGRmaZh6dl6/iMt3YcrLRA6FBPvorxcC3vRc9y53YmxJW8YV+exNiOefN1KoRnRo8Zx13jyHU0CwA5AKbZWwKrUrK9rrSEeCfFv6IhuZsbpQpOzovWUuPYl9TzBqFNzb5L9qeTsWYtlzJuNm7mPKiel3Ow/RXMnKpEIO68XvDgdpeRbr3d7uViXt1CyoSuKr0SRALO2neVo0aa3bN4tlnAkTAOSdAp0zBEKdqEM1OabrffjeM0G/Ahm4COsFZbtw7FENrWsDWgAAWsFUqMua8rmtOtLjJt95ddrQjbUIUY8IpI57eEB9umlf7tS351NLWccFsx4QH26aV/u1LfnU0tZxwVw5b/K6PL5lSY/+ZVeZcWW/tjYT+Paf+cw119bwHcuQWW/tjYT+Paf+cw119bwHcolnn+dR5P5EryX/Kq80VIiKCInBSbXuub+3J7f858UyX/GukK527eNMdKZ1wag9pAn6RAIN+IY5zT+EKVZOkliW/XF/Ii2bot2G3VJGuSvXJKYgymb+DZmYfuw4dalS49Q3x86spftIzkemz0tUZVxEaUjMmIZHvmm4/ArTuaXlqU6a6013orK3qeSqxn2NPuZ2YafFBKm6sLJzNnDebGC5DENHqEJ8yYTWzstvDpJeNbxmubxAvcg8xZX2HNIuDZUNWpTt6jp1Fo0XfQrwr01UpvVMqvdSvMgYioketR8PQKnLRKlLQRHjSzIgMSHDJADnAexBvzXo3vY6rzalH1kesZKa1iyR2qVA4KUPogmyb3YoIJK+eoT0vTZKYqE5FbDgS0J0WI9xsGtaLknyLKTk9EfLkorpM0j8IDmEZ6v0TLWSjXh0+EalOtB/hH3bDB8m8fKtReOqufM7G0zmLmBXcazD3EVOcfEgNd7mA02hNty8QN8pKthXdg1n5hZU6K4pfF8SmMWu/P72pV6nt7lwFnaBoJceA6yup+zdgIZeZOYeocaCGTcWX9GzY640Xxje/AgFot2LnjkDgZ2YmbuG8NPh78s+bExNjl0EIb77nlcNIHbZdW2ta2G1rQAALABRHO95/LtI834L5kryZZ+vdS5fN/IqDGH3I8ybjPehVIq+1J70UU7jPehNxnvQqkQaIoLG+8CwFto5fDGWTk5VpSWESfw1EbUYRDbuMIaRh3bpDj9YFn83XyVSnylWp8zS6hAbGlZyC+BHhuFw+G5pa5p7wSFs2dzKzuIV4/0s1b22jdUJ0WuKONd766+VNOauHMPCE3gHHFcwdOh3SUqdiS7XEW32Xux/wBkwtcO9W6r1pVY1acakd09yk6lOVKbpy4o3L8H3mDaJiDLGdj8bVeQaeo2ZGaOoX6M2+qK3THBclsmcePy0zPw7jIPc2XkpxrZwD3UtE8SKLc7MJdbraF1kZNQHyzZwRWGC5nSCJveLu2ve/VZVbm+w82vvLRW01r71xLMyneq4svJSe8PB8DxsdY1oOX2F6hi3Es0IEhT4RivN/Ge7kxo5uJsAOZK5Y5t5nV3NzG09jCuPLelPQykvveLLS4J3YY8hJPWXE81k/a02gX5r4pOF8OTROFaLFIhlhO7PRxoYva0ahvZrzWv3lupRlbBPs+krqsv4kuHsX7kazJjPn1bzei/4cfi/wBib3Pzclk7Z9yVqWdWOYVHAiQaNIlsarTTRbchX/a2n37tQOrUqwMP0Go4nrkjh+lQ2vm6hHbAg7zg1oc7S5cbADnflZdO8ksGZf5N4Gk8L0vENKiTLgI1QmxMw96Zjni4km9hwHYFuZkxZ4bQ8nS3qS4eztf0NPL+FrEK/TqbU48erXsX1Mj0ajUzD9KlKJR5SFKSUhBbAl4EJtmw2NFgAO4L7LdoXm+qrDI09UVNP/5cP509VWGfhDTfuuH86qJ06snq09X7C1o1KUF0U1oepcdaXXl+qrDPwhpv3XD+dPVVhn4Q037rh/OnkqnZ8DPlqfaj1L6rW/bypkWeyVhTsJpd6ArEvFf1Bha9tz5S1Z/l8Q0GcjtlpStyMaK82axkwxzndwB1VoZ84PiY7yhxRhmBBdFmJiQfFl2NF3OjQvosNo7S5gHlW7htV2l7SqT20ku40sSpq7sqtOG+qfecoEt+FCC0lruI0KaK8k01sUu1o9zo/sTYyg4kyOp9JMUOmsPR4tOjtv7BoO9D/oOatgAVy62b885rJHGhnZqHEmaDVQyBU5dmrwBfcisHAubc6cwSOpdJsIY3wpjujwK5hOuSlSk4zQ9sSDEBLb8nN4tPYQqhzNhVWyvJ1Yx1hJ6p+18UWvl3FKV5axpNpTjs14Hvk2Ub3UFG825CtXMDM/BGWVHiVrGNel5GG1t4cIvBjRj71jOLieH9YUep051ZKFNNt9R3qlWFKLnUaSRau0zmRL5a5Q1uriP0dQn4DqfTmg+M6YitIBA57o3nHsauWrWhrQ0cALLKW0BntWs8MViozEN8nRKeXQ6bTy72DSdYj7cYjtNeQFhzJxd+t+tW7lvCZYXa6VfXlu/kvcVRmLFI4ncp0/Ujsvm/eFtH4Pj21MQ/EJ/OIa1cW0fg+PbUxD8Qn84hr2zL+WVuS8UeWXvzOlz+pv6sJ7Z372/Fn19O/P5dZsWE9s797fiz6+nfn8uqnwr8fQ/zj4otHFfwNb/GXgzmWeKjn5lJ4qOfmV6opQ6T7Ef73uifyyf/ADmIs9LAuxH+97on8sn/AM5iLPSo7GPzCt/k/EunCPwFL/FeBFlBHJVKCFzFwOkcvdq7B8XB2e2IoIh7svVYjKnL2GhEUeN5d9r/ADhYh7Vvzt3ZUx8S4QksxaPKmJO4c3mTYYLudKPIubc91wB7iVoMOGlrcrK58u3yvrCD/qiui+a/3Up7H7J2V9OL4N6rkzIGRGYgyuzToeLZgu9BQo/oeeaP83iDcebc7B1/IF1Yk5yWn5WDOycZkaBMQ2xYURhu1zXC4IPUQuM514nlZbQ7Mu1u7L2VgYCzHfGmMPw/Fkp4NL3yLfePHF0PqtqFx82YFUvoq6oLWUdmu1fVHVyvjMLKTtq70jLdPsft9hv+DcAjmpXj4bxbhvF1Mh1jDFak6nJxBcRZeMHjuNuB7DZesXAjhx5KspQlB9GS0ZZMZxqLpReqJvrZLqneXy1Kr0ujyj56r1GWkpaH7OLMRWw2N73OIAWIxcnp1hyUVq3sfUXEapvG+guVrbm1tt5dYPgxqdgZwxPVhdodCuJSEet0T3Xc3zq9tlzH+Jszcp5fGGLJmHGqE3UJ1hMNm6xjGxnBjQOoNAC6FbCrqhbK6rR6MW9Frx7jQpYpbV7nzWlLpS01fYZeCIOCLnnRXAlERDJBNljPaAzakcocup/Eb4kN1Qij0NTYDjrFmHaA9zRdx+ttxIWSYr2Q2OfEc1rWjeJcbADrK5pbWGczs1swokhS416DQHOlJQt4RYgI34mvW4WHYBzXbwDDHiV2ov1Y7v6e84OYMSjh1q2n6Utl82YZnp+aqlQmKnPzDpiZmor40SI83L3uNySvlN79aqa2w4D5lB4q4kkl0UtioXrKXSk9yLnqS56lKL6RhxS2IuepLnqUosmNEQOClEQyF7GC8Kz+OcWUvCVLh70xVJlkAW9y0nxnHsA18i8fs6+C2/2CsrGTM7Us1apLXbK3kaaXN03yPorx2hpA8pXLxm+WH2kqr48FzZ0cJspYhdQpJba78jcTB2GJLB2GKZhmmMDZenS0OXZbnujj5Tde5bS11S0EAWVapSpJ1ZOcuLLopU1SioR4IpOihSeKhYPQIiIAiIgCIiAIiIAiIgCW1uiJ16gtrMPAGHsy8KzuEcSyvTSk4wgOHsoT+T2nkQdVy6zZyvr+UWNJvCVehuc1pMWUm93xJmCT4rx224jWxC60kLGue+SlEznwfFo082HBqcsOlps7uePAi9V+bXcCO48QFI8vY48Lq+Tqb05cfZ7URvMGCrEqXlKX8yPD2+xnK0k34dii5PJevizC1cwTiGbwviOSiSlQkYnRRYTxa/U4dYIsQeYK8m+mh4q3KVSNWClB6p9ZU9SMqUnCS0a20IClQOClej0MhERAEREAREQFLhppp+v/AMLd3YUzmNTp0fKSvToMxINdM0jfOroF7vhXPvCd4DqPYtIyLr1sJYoq+CcTU3FlBmOhnqXMNmITuINuLCObSLgjmCuRjeHRxO0lS6+KftOnhF/LDrqNVcOD5HYlrri9lPkVp5ZY/peZWCqZjCjuaYU9BDnsDrmFEGj2HtDgerSx5q69VStSnKjJwnxWxcdKrGtBThwZUigcFK+T1CIiAIiIAiIgCIiA1X8IL7W1B+Nx+TctBhwXQHb3ptRqeXNEhU2nzM29lWDnNgQXRCB0btTugrRMYTxVb9zNV+44nzK18p1YQwyKlJJ6vb3lW5qpTniMnFbaI+SlfTWR/lUH8cLsXSh/euT/AIiH+KFyKpWEsVCqSLjhmqgCZhEn0FF4b4+pXXWlEimSgIIIgQ7g8vFC42eJxn5HovXj8jr5MhKHlXJdh9alQDcKVASdkHrstJvCCZbtgTlDzSkJc2mB6U1EtHFwDnwHnvHSNv2MC3ZVj50YBl8z8s69gyM1vSzsq50s938HMM8eE7yPa35V1MFvnh97Tra7a6Pk+Jy8YsvP7OdJceK5o5MeVOdvN+vUvXi4OxfAivgR8LVZsSG4se0ycTQg2I4L6aRl/jSt1WSoslhmpCYn5iHLQuklIjWB73BrSSRoLnj1XVzu5oqHT6S05lPq2rOXR6O5uRsBZdCm4Yq+ZU9LkRqzE9AyJc0giXhG8Rw7HRLDvhFbbAXGhsvAwJhCnYEwfR8H0poEtSZSHLNdu2Ly1vjPI63Ou49pKuCx07FSWKXjxG7qV3wb+HUXJhdmrC0hRXFePWBwUqBopWidAx1tD+0njL4pjfgXKMcF1fz/AIEeayZxhLysCJGivpUZrIcNpc5xtwAC5bepPFXwZqp//CifMrIyTUhC2qKT0fS+RXWcqc53NNxWq0+Z5S3w8Hh7XeKfj7+zQVpJ6k8VfBmrfcUT5lvH4P8AptTpeX+J4dTp01KOfXd5rY8F0Mub6Ggi43gLi4PmXQzbVhLDJRT31Xic/K1OpDEYtrbR+BtOTbkrHzuN8pMW/FEz+IVe4OisvOiDFj5UYsgS8J8WI+lTDWMY0lzjuHQAcVV1m/8A5FN/+S8SzL1a2817Gck2ewb3BVcx3r1G4TxUGt/wZq3Af9jifMpGEsVcfUzVtP8AYonzK9lXpNaqS7yk3Rqa+q+43b8Hr+4DEnxs38kFtcFq1sCUyp0zAeIodSp01KPfVGlrY8F0MkdGNRvAXW0oVNZhkpYlVcXtr8kW5gEXHDqSkur5n5TUrLzsvFlZqC2NBjsMOJDeAWvadCCO4rnTtR7M9Ryoq8fFmFZWJMYSnYhfZjSfS57j+1v6mXvuu4cG8ePRvW+q+eckZOpSkaQqEtCmZaOww40GKwPZEYdC1zToQRyK+MIxithNbytPeL4rt/c+8WwmlitLyc9muD7DjRp1qf8A5W7mcewjKVCLMV7KSfhyUV5MQ0iZcRB3v9U/3Pc7TtC1QxhlLmPgOZfL4pwdUpINJtE6BzoTu0PF2kdt1a+H43Z4lHWlNJ9j2fd9Cr73BrvD5aVINrtW6LUgxY0vEbGgRXwojTcOY4tcO4jVXlSc683aHDZBpWZOIoEKGLNhCoRCwfYk2+RWXw46d5TyjyLfqUKFx/MinzWpoU61ah/Lk17y9KxnVm5X4Lper5kYhmYLxZ0J0/EEM/YggKzYkWLGiGLGiviPPFz3Fzj5TqqbEmwFyeFuavLB2TmZuPZhsDC2DKlNhxA6YwSyE2/Nz3WAC8//AIljDpaKMfcj11uryfR1cpe9maPB++3JWD1Ybj/nUst9q4f7yT5/2WKP6BWu+yxsv13JqszmMsVVqXi1KekXSAkpXx4cFjokOIXOeeLrwwLAWseK2IrQLqNPNAJJloo4ak7hVUZgu6N5ibq0Jax2WvcWfgFrWtMOVOtHoy3Zx1nv8fmv4+J+MV+K9yfwnir0fNf4M1b9vif9iia+Mexfh6k8VfBmrfcUT5lbkK1Por0l3lWTo1Ok9IvuNqvB3/T/ABj/ACWW/Hct4B19a0p8H9SKtS65i51Tpc5JiJKywYY8F0MO8d3DeAut1bm1upVJmmSlilRx3W3gi08sxccNpp7PfxKkRFHiQlJBvpzWvO1Vs2Qc3KWMV4XhQ4OK6bC3Wg+K2fgjXonHgHD3LjoOB04bD346Kkt3he/atmzvKtjXjXovSS+JqXlpSvqMqNVap/A40z9Pn6TPRqXVJONKTkq8wo8CMwsfDeDYtLTrdfgun2dmzPgLOaE6enYZpdeYzch1SWaN4gcGxW6CI3v1Gmq0pzF2Ss4sAPiR4dDNdp7CbTdNvF8Uc3M9kO3TirVwnM9nfwUaj6E+x/J8CsMTy5d2M3KC6UO1fPrMMNc5jg9ji1w4EGx+RXfRc4c1sOwocvRcxMQSkGGLNhMn4nRj7G9rK1ZuRnZCMZeek48vFbxZFhljvMV+Hk/q/Cu9Uo0LiOlRKS9ujOJCpWoS9Btd6L2qudmb9bhPgVTMrEceFEFnwjUIghuHa0GysyLFiR4jo0xEfFiO9k97iXO7yVRcdY424r7KdR6tWIogUmmTU5Ecd0NgQXPN/ICvmFK2tV6EVFckj6nVr3L0m3J82z4+H68V99BoNZxRVpWg4ep0aeqM7EEGXgQW7znO6tOFuJPILNmW2xpmzjiLDmK1JNwzTn6ujzwPSkfUwh4xNuF7DtW7OTuz/l/kxIObhyRMxU47AyaqkzZ8xFtxaD7hl9d0dl72uuBi2aLSxg40X059i4LmzuYVlu6vpKVVdGHb2+4t7Zo2dqfkrh107VBCmcT1NjfRsw3xmwWjUQYZ6hfU8ys227UaLABSqsurqreVXWrPWTLPtbWlZ0lRpLRI0w8It+1YG/jJ4f0YS0vY50N7YjHOa5vBzTYjyrohti5IY2zgptBmcFQ5WYj0N8w6JLRYohviiIG23CfF03DxI4rRPE2WmP8AB0w6WxNhCqyDm31iyzt0jr3rW+VWflW8t3h8KDkuktdtd+JWmZrSusQnWUX0XpvptwPewttCZz4NhMl6FmFVGQIejIMd4mIbe5kQOaPIFecPbY2gYcNrHYlkYhHF7qbAufM0D5FgnUaEW1tqouL2uPOu1UwqwrPpSpRfuRx4YnfUlpGrJe9mXa7tYZ/YghPgTOYEzKw38pKXhSxH2UNodfyrFU/UJ+qzcSfqc7Hm5mKSXxo8QviON73Ljcr8DYcwvWomEsT4lmGSlAw9UahGiGzGy8s5+95gvWnb2llHpUoxgvZojzqV7q8klOTm/bqzyedvk46K+8mMocRZzYzlsMUWFEhykNzYlTnmi7JOXv4xJ9+QCGt4k9gJGXcrthvMDFEeDO4/jNw3TCd58IERJt46g32LO93DjYrd3LzLTCGWGH4WHMHUtknKs1iPvvRY7+b4j+LnH/oLDRRvGs1W9tB0bR9Kfb1IkODZar3NRVbldGC72evhrD1Lwrh+n4bocs2XkKbLslpeE3g2GwWA7eHHnxXpFh6/kUjhxupVXSk5vpS4ssyEIwiox4I0o2vNluZExO5rZc08xmPvHrNMgsJc08TMQmjiObwNRq7UXtprrY9nWuzzmB176rW7PDYxwfmHMTGI8FRoeG67Gu+KxrLyky8nVzmjWG483M48wSSVOsv5pjbxVrfPbql2c/qQnHcsSrydxZcetdvI55/g4L9ZabmpKM2Zk5mLLxmHebEhPLXA9YIWQ8e7PGbmXUaJ6e4Qm4ssy9pySYY8Aj65t7dxsetY5iwosB5hxobobxxa4WI8hVgUbi3u4dKlJSXuZBKtCvbT0qpxfvRfNOz3zmpUMQZLM7EbYbW7rWOqER7WjsBOnkXm1zNTMvE0F0tiDH1fqEFxuYUefiOZ/NJsrV83nS6+I2VpF9OMIp9uiPp3dy10JTentbJ5kknUknvT+rzBexQcHYsxRMsk8O4bqVRjRPYslpZ7yfMFsVlZsK44xDMQajmPOsw9TgWuMtCIizcQcx72H3nUdS8rvFbOwh0q80tOrr7j1tcMvL6XRpQbT6+rvMF5YZWYtzcxPBwthSRL3Os6amogPQSkInWI934BxdwC6eZS5V4byhwdK4Tw7DJDD0s1MvA6Wajm29Fees2sByAAX25f5a4OyxoMLDuDKNCkZRlnPIO9EjPtYviPOrnH/wCLDRXMO+6q7HswVMYn0IbU1wXb7WWVgmAwwqPTm9aj+HIqHBSoHDipUdJEc9vCA+3TSv8AdqW/OppazjgtptvOhVup5x0uYp1HnpuEMOS7C+BLuiNBEzMki4HGxHnC1uGE8VWH+DNW+4on6KuTLtanHDKKlJJpdvtKgx2lN4hVai3ufblv7Y2E/j2n/nMNdfWnxQexclsusK4nh5h4WixMOVRjGVyQc5xk4lmgTEMknTQdq6ztN2i4sopnecZ1aPReuz+RKcmQlClVUlpuisaqVA7VKgyJsQVqXt+5ezNYwtRswqfKuiRKHEdKzjmgktl4pG649geNe8LbQ2uviq9Hplfpk1RqxJwpuSnYToMeBFbdsRjhYghb2G3ssPuoXMVr0fDrNDErNYhbTt31+Jxs0tcDRStjM8tjnGmAp+arOA5OYr+HnOdEayEN+ZlWnXdewavA18Zo5agLXiZlJqSjGXm5aLAit4siw3Md5iFc9liNtiNNVLeSfyKgu7CvYzdOtFr5n1Uav1zDk4Khh+sTtNmRwiysd0N3naQVdszn3nVNygko+aOJHQgLW9MIgJHUTe58qsPy/KFIaXENaCSTYDrK9altb1H06sYt9r0Z5U69xTXQhKSXs1NuPB9R483jbF8zNRnxo0WnwnPiRDvOcelN7nieK3kGi0s2AcLYkpdaxHXKlQ52UkJqThwYMxGguYyI8RLkNJAvot1AAR3qpc0ODxOp0OGi4ci08tKaw6HT46viSpUDgpUfJARzWA9tHMH1FZMztLlY+5P4niClQQ0+MITgXR3DuhtcL8i5qz2TYrn5ttV3EuOM1mUGmUWpx6ZhiWEtDfDlYjob5mIA+K4ECxFujZ3sK7eXbSN1iEFU9WO793D4nDzBcytrGfQ9aWy9/H4GsnDQgeROV/18q9U4SxUNPUxVhb/Y4nzJ6ksVX/cxVjb/AGKL+irj8vSh/UtvaVN5CpJr0Xv7DbfwfGBQ52JMx5uACBu0mSefI+KR1fwQv2lbpjgNVjnZ9wA7LXKPD2GI8Ho51sqJmdBHjeiYp33g9ZaXbvc0LItiLKlMbvPPr6pWT1Wui5LYuDBbTzKyp0mt9NXzZUigcFK5h1UEREBFu1QW35qpEBoVt/ZfmkY1o+YUpBAgV2WMlNOaLD0TB9iT2uhEAfxRWqi6f7VmXrsxcma3ISksY1RpbW1SRDfZCLBuSG9roZiM+yXNQYTxVYf4MVbh/mUT5lbGVMQjXw9U5yWsHpx4rq+hVmaMPnQvnVhF6S3+p5RAOh5iy2NxLtXVSd2fMP5X0aNHh10y5p1YnBdu5JwzuQ2sdzdEh7oc6+lne+uMEepPFXwZq33FE+ZQcJYqIscM1b7jifMuzd29nfShOs0+i9VuuJx7avd2cZRparpLR7dR5TdALdXHr71K9X1J4q+DFV+4onzJ6k8VfBmrfcUT5lu+XpfqXeankanXF9x5QJad5pLTbQjQ+dVmYmCb+iYuv1ZXpepPFXwZq33FE+ZPUnir4M1b7iifMsOrRfFrvRlU6q4J9x5vTzH+cxf55Tp5j/OYv88r0vUnir4M1b7iifMnqTxV8Gat9xRPmWPKUe1d6M9Ct2P4nm9PMf5zF/nlOnmP85i/zyvS9SeKvgzVvuKJ8yepPFXwZq33FE+ZPKUe1d6HQrdkviZB2XY0d2feEGujxCDOkG7ifcH5l1GLdLE6dy5j7MuHMRSeemEpqaoFRgwoc4XPfElXta0bpGpIsF06Bu0aKss6Sg7yLp6er1c2WNlBTVpJVNfW6+S7TmhtZ5NTWVuZUzUpCULcPYiivnJGI0eJCiE3iwD1FpN2j3rm24G2D115zDy+wvmdhiawli6RE1JTIu0jSJAiD2MWG7Xde2+h7SCCCQefub+yJmVlvMzE/RZKLiOhNJcyalIe9Ghs6okIXII6x4vdwUhy5mSjc0o211JKceDfWur3nAzBl+tb1XcW8W4Pq7DBK9Ci4ir+G5oTuHq3PU2OOESVjuhO87bL4piXjykUwJqBEgxG+yZEYWuHkIVHO2imElCpHSWjXeRVOdJ7bMv6Jn9nZElhKPzSxIYY5+j4gcR1F17lWZU6vVa1NOnqxUpmdmX3LokeK6I49epJPevngQI0zEbBl4T4sR2jWMbvOPcBqs6ZP7IWZOY81Bna9IxcN0O7XPmZuHaLFb/q4R1PPU2C59Wrh+FwdZ9GPJJa/PU3qVK+xOapx6Uuep4mzXknOZxY5hQ5uXijDlKImKnHAIaW+4gNPDefa1uTbnksa4ogwZbFFalpeC2FCg1Kahw4bRYMa2M4BoHIAADyLrHgTL3C2WWE4OFMIU1srJS7S4670SNEI8aJEdxc91hc9gAsAAOWmLcKYodi2uuZhuqua6qTZaRJRLEGM+x9j1LiYJjn2pd1pt6QSXRT9+/NnXxjBnhtrSjprN666e4tVbSeD49tTEPxCfziGtcPUnir4M1b7iifMtmtgai1mmZn1+NUaROykN1DLQ+PLuhtJ9EQ9AXAardzJWpywyqlLd/U08v0qkcRpNx4fQ3wJAWE9s0//pwxYPq6d+fy6zWCTyIWGtsKTm5/Z4xVKSMrGmIz3U/dhwmF7jaelybAamwBPkVVYVJK+oyfDpR8UWfikXKyqxXHoy8DmMeKjn5l6xwniq5/wZq33FE+ZBhLFVx/gzVvuKJ8yvHy9L9S7ymPI1P0vuOiOxH+97on8sn/AM5iLPSwZsYSM7TsgaLLz8nGlowm54mHGYWOAMw+2h1Wc1SOLtSv6zX6n4ly4UnGxpJ/pXgERFzzonzz0jK1GUjSE7AZGl5ljoUWG8Xa9hFiCO5c0tpjZ5quTOJn1ClSsaYwpUopdIzLWkiXcdfQ8Q8iB7En2QGmoIHTTmvPrtBo+J6RNULEFNgT0hOMMOPLx2BzHt7QeogEHiCARqF2MGxmrg9bpx3i+K+ntONjGEUsWo9CW0lwZxvuNdRp2qeflW32cOwfVZOYj1nKOdbOShJf6UzcQNjQhx3YUQ6OA1sHEHgLnitXsS4Exng6afJYowxUaZFYfGExLuaPPax8itewxeyxGGtGa17OvuKvvcKu7CelWD07ervPkoWJsR4XmhO4br0/S444RJOYfCd52kLItP2qM/qbAEvAzHn3tAtePDhRXfzntJWJ+HEEW/W6XHWONuK2a1nbXL6VSnF80jXpXVzb7U5tcmzLM9tVZ/VCD0MbMaeYLWvAhQoTvOxoKx9iDGGLMVxvRGJ8S1SqxNbOm5p8UjsG8dB3LyP6+te9QMBY1xVHbLYcwrVKjEeLtEvLOdfy2sviNtZWi6ahGHuSPuVxeXT6DlKXvZ4PDibcrk2XR7Yb/e/U3kPTGf7P4dy17y22Fcw8SRIc7juegYbkDYuhC0aac219GjxW/ZHQ62K3cy2y5w5lXhKUwbhWFGZISznxLxom+98R7i573HrJJOmihebcYtLugrWhLpST19nB9ZMMrYTdW1d3NaPRi017eKLpHBEHBFXq4E+F1FyU0uV803Nw5WWjTES+5AYXu0J0AudO78Kyk29jDeibMDbYec7MtsAnDtJjWruI2vloAa7WDB/hIh6tNAesrnG4czqSbkniT1rMWdzM1M3MxKji6NgfEPoJ7ugkIL5CL9DlmnxRa2hdxPaeasU5XZkEAeoWvXH+wRfmVs5doW2G2kelNdKW7KmzDXr4ldNxi+jHhsWtbtKK6P2LsyPgJXvuCL8yfsXZkfASvfcEX5l3vO6H60cTzSv1QZbCK5/2LsyPgJXvuCL8yfsXZkfASvfcEX5lnzuh+td480r/AKH3FsIrn/YuzI+Ale+4IvzJ+xdmR8BK99wRfmTzuh+td480r/ofcWwiuf8AYuzI+Ale+4IvzJ+xdmR8BK99wRfmTzuh+td480r/AKH3HjUGhVDE9bkcPUqCYs3UI7JaExp1L3OAHdbjfqXWbLPAlNy4wNSMHUtjTDp0s2HEeG26WLa73nvdcrTzYuyOr4x5M48xhh+bkJehw+jkmTcB0MxpmIDdwB1sxut+t7bcCt7GC1+OirfOGJRua8bem9Yx48/2LCyjhrt6UriotJSKhwVKq5KlQ9e0maCIiAIiIAiIgCIiAIiIAiIgCIiAKXM3uOo6lTzUlzVh7GDAe1Ls7SmbmHnVygQIcPFFMhkwH2sJuHxMF58ninkucs5JzNPnJiQnpd8GZl4jocWG8Wcx4OrSOWq7KOs4HkDpqtQdsrZ2lalAmc28Gy7IdRl4e9VpSHYeiYbbDpmjm9vPrCm2V8edtJWVf1ZcH2PsIRmjA1Wj55QW8eK7UaRKCg4ctNNEPLvVmJqW6K7WvBkoiL6MhERAEREAUO5EclKLDHVobNbEec78JYtiZc1ua3aVXXgyhc7xYM1yHYHDQ9oC6BN1F7lcZYEzNSMxBm5KM+FHgRBEhPabFrhYtIPLULqJs3Zvy+b2XMrV47gKvIESdShDQiM0ezA6nDUeXqVa5wwnyM1eU1tLaXPqZYOUcU6cXZ1OK3j80ZZHBSoHBSoOToIiIAiIgCIiAIiIClzAdbDzKOjb71vmVaIYaT4lAht6h5lUG2FrqUR78QklwCIiGSLKC254qpEBQ2EwNtug+TinRt5AC3Yq0Q+ejFdRAAaLBFKJofQREQFLmbx1OnMKBDaBwHmVaIY0RTuN6h5k3AOGnkVSINERbgocy6qRDJSIbQLbo8ybjeoKpEPnorsKdwchZSGqUQ+tNCLdaAWUogKd3mVRGlZeZhOgTEFkWG8Wcx7QQR2gr9UWU2t0YaT2LNq2TmVtccX1TAVEjuPE+g2NPyALxG7NGRDHiI3LGi7wNx9CJ186yai2I3tzFaRqS72azsraT1dNdyLSpGUuWlCcH0nA1Fl3Dg4SbCfOQrphy8GCwQoMNsNjRZrWtAA7gv0ReVSrUqvWcm+bPaFGnSWkIpFO5pxUFhPuiq0XmfehS2GxoADRp2Kd1vvQpRB0UUdGL3AA7lVZSiBJLgEREMkeVFKICCAVG6OoKpEMaI8Wr4LwlX941vDVMni7QumJRjz5yLq0ZvZyyPnonSzOWlEe7UftFvkBCyQi94XVel6k2uTaPCdrQqevBPmkY7kNnrJSmP6SSy2okN1739D734bq8aVhnD1DZuUWiSEiLW/ueWZD/FAXposVLmtV2qTb5tmYWtClvCCXJIpDbc1NrKUXhoe5AvzUoiyCkt1uvzjysvMwnQZmBDiw3izmPbvNPkK/ZFlNrdGGk9mWhVMossa0SangSiRy7iTJMaT5QAvBfs05ExHOe/LKilzjdx6E6nzrJqLYjeXMFpGpJe9mtKytpvWVNdyLEpmRmUNHc11Oy8ocIt4XlGu/DdXfT6RS6VB9D0unSsnC47kCC2G3zNAX2IvOpXq1f5km+b1PWnQpUv5cUuSKdwXvdSBYWUovI9QiIgIsoLb8SqkWNAUGG0ix1CtysZaYAxBvmsYNo806Ibuc+Sh7ztLam1+auZF6QqTpvWD0fsPidOFRaTWpjONs15FzER0aLllRXPcbk9CRf5V6FMyJyfo7mup2XVDhFvC8q134bq/EXvK+upLSVSTXNngrG1i9VTj3I+Sn0mmUqCJemU+WlIQ4Q4EJrG+YBfSW3VSLWbberNhRjFaJEAWFksetSixofQREQFBhgu3iVPRt6h5lUiGOiijox1DTsUhthYFVIg0RHBSiIZIIPWlu1SiApLAb31Ct+u5eYGxNvGv4TpU85/snxpVhcfsrXVxIvqE5U3rBtcj4nThUWk0mYzibNWRMV5iPyxohcTe/Qn517lFygyww88RKPgWiyzxwcJNhI8pBV4Ived5cVFpOpJrmzxhZW8HrGml7kfm2CxjQyG1rWjgANAqg23NVItbibCSXAIiIZIsbk3VPRN/UKtEMNJ8Sncb70eZUmC0m4sPIv0RB0V2FIBFtVO72qUQaBERDIREQBERAUltze6bjeQHmVSIYaT4lO43m0FNxnvR5lUiDorsKdxvvR5lO633oUog6KI3W+9CbrfehSiDoojdb70Jut96FKIOiiN1vvQm633oUog6KKNwXuAAe5VBoAt1KUQaJFJZfmo3L6k3VaIZLareW+BMSFzq9hGkzznnec+LKsLifrrXVru2aciXxTGdllRS8neJ6I8fOsmotiF3cU1pCpJe9mtKzt5vWVNdyLZoOWmAMLua/D+D6TIvYbtfClWB47nWuPOrjEMDgq0XlOrOq+lOTb9r1PWFKFNaQSXIpLdLXQMaOAHmVSL4PtrUp3Gni0KBDAN9PMq0QdFFO729yFgdx171UiGSkMaBbdCndb70KUTUx0UU7oHDRSFKIZI4KURAQlu1SiDQpLAeK+eeplPqcEy9RkZeahHiyNCD2+Yr6kWYtx4GHFS4lh1TInJ+tOc6pZd0OKX+ytKNZf+bZedD2aciYTxEZllRQ5vA9EfnWTUWyr25S0VSXezWdjat6unHuRaFMyhywo7g6m4DocEjgfQTHH5QVdEtJSknCECUloUGG3gyGwNA8g0X7ovGdapV9eTfNnrCjTpepFLkU7vapt2qUXnoeoREQEa9aoczq59i/RE9oPyEHSxFz1qeiHIL9EQxouw/Pom+9Tom+9+VfoiDRH59E33vyp0Tfe/Kv0RBoj8+ib735U6JvvflX6Ig0R+fRN978qdE33vyr9EQaI/MQgDcC3NVBth2qpE0M6JcCOSpVR4KlAEREARE8oTVAIouji0Cx496bmG0uJKXsvOqWIaBRIZi1isyMiwa70xMMhj+kQrDxBtKZJYb3hP5gU2I9twWSzjHd5oYK9qVtWrPSnBvktTwq3dCitak0ubMm3UA3JA5LWjEG3tlBTREZRZCtVeKB4phy7YUMntc51x/NWMa54QzEcffZQMv5KVZxY6amXRT8gaF1KGXcSr8KTXPY5dbMeHUdnU15G8m+LXuFDo0Ngu9wA6yQua1d2z88600tgVyWprCb2lZZoIHVc3WO63nBmhiMuFZx3WZhrvceinNb5gutQybd1P5kkuW5ya2crWC/hRb57HU+tZg4Iw7DfFreK6VJtZx6WbY0+a91jqu7XmRFDDg7GcGceL2ZKQ3RL+UCy5kxokaaeYs1HiR4juLort8k95X59GOP/RdihkijF/xqjfLY5VbOteS/hU0vib5V/wAINl9J3bQMMVaoOB4vDYbflN1jbEPhB8eTm8zC+DaVThfSJNRXxz5Wjd/CtVizy96kNsNDZdejlXDaD3h0uZya2ZsRr/16cjL2INrLPzEjn9Jjd1Phu4wqfAZBb57F39JY/rOOsb4heYldxfV55x4iNORHA+S68IAg2upuezzLr0cOtbfTydNLT2HHrX11Xf8AEqN+8jXmST19aHl3oLnW6HVbeh4IlERfRkIiIAiIgCIiAfr/APKzBsuZxxMpMx5d89HIoNZLZOpNJ0hXPiRh9ab37CVh9UhovqLjtWreWsL2jK3nwkj3tbmdpVVanxTR2cl5mFMwIceA9r4cVocxwNwQRcL9QSbacVrRsWZ0errBLsDVuYvWcNMbDhucbumZS1mP7XNN2ns3TzWyrTcXCpC+tKljXlQnxT/1l0WN3C+oRrQezKgbqVA7VK1TcCIiAIiIAiIgCIiAIiIAiIgCIiAIiIAiIgCIiAIiIAiIgCIiAIiIAiIgCIiAIiIAiIgCIiAIiIAiIgCIiAIiIAiIgCIiAIiIAiIgCIiAIiIAiIgCIiAIiIAiIgCIiAIiIAiIgCIiAIiIAiIgCIiAIiIAiIgCIiAIiIAiIgCIiAIiIAiIgCIiAIiIAiIgCIiAIiIAiIgCIiAIiIAiIgCIiAIiIAiIgCIiAIiIAiIgCIiAIiIAiIgCIiAIiIAiIgCIiAIiIAiIgCIiAIiIAiIgCIiAIiIAiIgCIiAIiIAiIgCIiAgmyjfF7XHnXnVqrOpUDpmU+anHWJEOA25Nu9Y7r2a2PpMmHQMma7Pk3s+JHhQW37bm69aVCdZ6R09708TwrXEKC1lr7lqZVLhwVG8Oei1ixDmhtgzrjDw/lDTaYzk6NGMd1u64AWNq3B266/v+iDOyrH38STEOEG9xGvyrrUcEnU06dWEf/sjkVsdjTT6FKUnyZvFFnZSAC6PMwoYbxLngWVpYizlytwoHeqDH1Ckntv8AQ4k9DDz3NvcrQqs5EbVmIC41mXr06HizmxqiS0+TesvDbsl57h1xgeNc6/tjfnXWpZdsItOrdL3afU5VTMd9Lalav3m4mINt/IujbzZKr1CrPHKTkn2v9c/dCxvXvCG0sh8PDWX8zGt7GJNzrWA94aD+FYFOyfnvzwRH+2N+dSdlDPg//ZMx16xWn+tdahg+BUvWqKXOX0OXWxfHKmyptckXlXtvLOSpNfBpEjQ6Q1wsHslzGis7i87vnaVjLEW0NnZijebV8y62WOFiyVjCUY4drYAYCva9adnv8CI/2xqetOz4+A8f7Y1dShTwS3fodDvXzORX+2Lh/wARz+JiubqVQqDi+fn5mYc43JixS8nylfMQwm5AP6+dZd9afnv8CI/2xvzp60/Pf4ER/tjfnXQjiGHx2jUivejQlht9PeUJP3MxFZl72TxTx179Vl31p+e/wIj/AGxvzp60/Pf4ER/tjfnX39qWS/7se9Hz9k3i38nLuZiLxVIssuetPz3+BEf7Y3509afnv8CI/wBsb86z9q2XDyse9D7KvP7cu5mI7jrS461lz1p+e/wIj/bG/OnrT89/gRH+2N+dZ+1rL+5HvQ+yrz+3LuZiO4S461lz1p+e/wACI/2xvzp60/Pf4ER/tjfnT7Xs/wC7HvRlYVer/ty7mYjuL3um8Flz1p+e/wACI/2xvzp60/Pf4ER/tjfnWftey/uR70Y+yrz+3LuZiMEW4pcday560/Pf4ER/tjfnT1p+e/wIj/bG/Osfa9l/cj3o+/su9/tS7mYjuOtLjrWXPWn57/AiP9sb86etPz3+BEf7Y350+17L+7HvQ+y73+1LuZiO460uOtZc9afnv8CI/wBsb86etPz3+BEf7Y350+17L+7HvQ+y73+1LuZiO460uOtZc9afnv8AAiP9sb86etPz3+BEf7Y350+17L+7HvQ+y73+1LuZiO460uOtZc9afnv8CI/2xvzp60/Pf4ER/tjfnT7Xsv7se9D7Lvf7Uu5mI7jrQnRZc9afnv8AAiP9sb86etPz3+BEf7Y350+17Lh5SPeh9l3v9qXcy0MpMxanlTj6l4zp13NlYu7NQbkCPLus2Iw27NR1EA6rq7hvEFNxTQ5HEVGmRHkqhAZMQXi2rXC/nHA9q5ojZOz3vf1ERvtjfn7ltnsg0TNnA1GnsC5iYdjyshAPoimTL3ghm8fGhaduoUMzVC0vIK5oTTnHjo1uiW5WndWc3bVoNRlw1T2ZsiD2qVSG2VSgRPwiIgCIiAIiIAiIgCIiAIiIAiIgCIiAIiIAiIgCIiAIiIAiIgCIiAIiIAiIgCIiAIiIAiIgCIiAIiIAiIgCIiAIiIAiIgCIiAIiIAiIgCIiAIiIAiIgCIiAIiIAiIgCIiAIiIAiIgCIiAIiIAiIgCIiAIiIAiIgCIiAIiIAiIgCIiAIiIAiIgCIiAIiIAiIgCIiAIiIAiIgCIiAIiIAiIgCIiAIiIAiIgCIiAIiIAiIgCIiAIiIAiIgCIiAIiIAiIgCIiAIiIAiIgCIiAIiIAiIgCIiAIiIAiIgCIiAIiIAo4qUQFG5bSyBhvdVog0KNy+pCbvYq0QFLWAa2HmU2HUpRDGiKNzXgpsVUiDRFNiliqkQyU2KWKqRDGiKbFLFVIg0RTYpYqpEGiKbFLFVIg0RTYpYqpEGiKbFLFVIg0RTYpYqpEGiKbFLFVIg0RTYpYqpEGiKbFLFVIg0RTYpYqpEGiKbFLFVIg0RTY9SgNINxoq0QzoQBYWUoiAIiIAiIgCIiAIiIAiIgCIiAIiIAiIgCIiAIiIAiIgCIiAIiIAiIgCIiAIiIAiIgCIiAIiIAiIgCIiAIiIAiIgCIiAIiIAiIgCIiAIiIAiIgCIiAIiIAiIgCIiAIiIAiIgCIiAIiIAiIgCIiAIiIAiIgCIiAIiIAiIgCIiAIiIAiIgCIiAIiIAiIgCIiAIiIAiIgCIiAIiIAiIgCIiAIiIAiIgCIiAIiIAiIgCIiAIiIAiIgCIiAIiIAiIgCIiAIiIAiIgCIiAIiIAiIgCIiAIiID//2Q==" vertex="1" parent="DCACu17-N9n2SlaQlLxh-19">
            <mxGeometry x="-377" y="253" width="190" height="37" as="geometry" />
          </mxCell>
        </UserObject>
        <UserObject label="&lt;div style=&quot;&quot;&gt;&lt;font style=&quot;direction: ltr; line-height: 120%; opacity: 1;&quot;&gt;&lt;font face=&quot;Segoe UI Semibold&quot; color=&quot;#0070c0&quot;&gt;Enterprise Dev/Test&lt;/font&gt;&lt;br&gt;&lt;/font&gt;&lt;/div&gt;" tags="Background" id="DCACu17-N9n2SlaQlLxh-21">
          <mxCell style="verticalAlign=middle;align=center;overflow=width;vsdxID=1509;fillColor=none;gradientColor=none;shape=stencil(nZBLDoAgDERP0z3SIyjew0SURgSD+Lu9kMZoXLhwN9O+tukAlrNpJg1SzDH4QW/URgNYgZTkjA4UkwJUgGXng+6DX1zLfmoymdXo17xh5zmRJ6Q42BWCfc2oJfdAr+Yv+AP9Cb7OJ3H/2JG1HNGz/84klThPVCc=);strokeColor=none;points=[];labelBackgroundColor=none;rounded=0;html=1;whiteSpace=wrap;" vertex="1" parent="DCACu17-N9n2SlaQlLxh-19">
            <mxGeometry x="-1102" y="330" width="125" height="27" as="geometry" />
          </mxCell>
        </UserObject>
        <UserObject label="" tags="Background" id="DCACu17-N9n2SlaQlLxh-22">
          <mxCell style="vsdxID=5;fillColor=none;gradientColor=none;image;aspect=fixed;image=data:image/jpg,/9j/4AAQSkZJRgABAQAAAQABAAD/4gHYSUNDX1BST0ZJTEUAAQEAAAHIAAAAAAQwAABtbnRyUkdCIFhZWiAH4AABAAEAAAAAAABhY3NwAAAAAAAAAAAAAAAAAAAAAAAAAAAAAAAAAAAAAQAA9tYAAQAAAADTLQAAAAAAAAAAAAAAAAAAAAAAAAAAAAAAAAAAAAAAAAAAAAAAAAAAAAAAAAAAAAAAAAAAAAlkZXNjAAAA8AAAACRyWFlaAAABFAAAABRnWFlaAAABKAAAABRiWFlaAAABPAAAABR3dHB0AAABUAAAABRyVFJDAAABZAAAAChnVFJDAAABZAAAAChiVFJDAAABZAAAAChjcHJ0AAABjAAAADxtbHVjAAAAAAAAAAEAAAAMZW5VUwAAAAgAAAAcAHMAUgBHAEJYWVogAAAAAAAAb6IAADj1AAADkFhZWiAAAAAAAABimQAAt4UAABjaWFlaIAAAAAAAACSgAAAPhAAAts9YWVogAAAAAAAA9tYAAQAAAADTLXBhcmEAAAAAAAQAAAACZmYAAPKnAAANWQAAE9AAAApbAAAAAAAAAABtbHVjAAAAAAAAAAEAAAAMZW5VUwAAACAAAAAcAEcAbwBvAGcAbABlACAASQBuAGMALgAgADIAMAAxADb/2wBDAAMCAgICAgMCAgIDAwMDBAYEBAQEBAgGBgUGCQgKCgkICQkKDA8MCgsOCwkJDRENDg8QEBEQCgwSExIQEw8QEBD/2wBDAQMDAwQDBAgEBAgQCwkLEBAQEBAQEBAQEBAQEBAQEBAQEBAQEBAQEBAQEBAQEBAQEBAQEBAQEBAQEBAQEBAQEBD/wAARCAHFAlgDASIAAhEBAxEB/8QAHQABAAICAwEBAAAAAAAAAAAAAAEIAgkDBgcFBP/EAFkQAAEDAwIDBAQJBgsFBQUJAAEAAgMEBREGIQcSMQhBUWETInGBGDJCVpGSobHSFCNSYnLBFRY3dYKisrPC0fAXJDM0Q1N0k+HxJidUZJQ1REVVY2VzhOL/xAAcAQEAAgIDAQAAAAAAAAAAAAAABgcBBQIECAP/xABDEQABAwMCAwMJBQYFBAMBAAAAAQIDBAURBiESMUEHUWETFBYiMnGhscFTcoGR0RUjQlJU4TM0NUOSF4Ki4iRi8PH/2gAMAwEAAhEDEQA/ANqaIiAIiIAiIgCIiAIiIAiIgCIiAIiIAiIgCIiAIiIAiIgCIiAIiIAiIgCIiAIiIAiIgCIiAIiIAiIgCIiAIiIAiIgCIiAIiIAiIgCIiAIiIAiIgCIiAIoyPFSgCIiAIoyFKAIiIAiIgCIiAIiIAiIgCIiAIiIAiIgCIiAIiIAiIgCIiAIiIAiIgCIiAIiIAiIgCIiAIiIAiIgCIiAIiIAiIgCIiAIiIAiIgCIiAIiIAiIgCIiAIiIAiIgCIiAIiICCsTuRhS7fZfK1FfLbpy3TXi7VkNLS0zOd8krsNAHX3o1iyLwNTKqfOR7Y2q964RN8n0fSxjODjHVfNuWp9P2kZud5pKTbOZ5ms+8hUn4vdsPU2oquqs/Dt7bVa/WYK7J/KJ8bEtI+KOmCq9XW8Xa81Rq7vcKmulODz1EpkfnxJKnds0JV1jElndwIpWd57TaSicsdIzjVOq8jaZTcSdA1Ugip9Z2WWR3Rra2In6ObK+7BWU87Q+OVj2u3DmnII8lqNDmFxJ5cu2ODjP0brvGheNPEbh5XRTWLUdS6ni60VTK6SCQfolrtx7Ruu7VdnkrI1dTS8Soa2h7VmSSoyrhwi9U6G0Brgfit+1cg+1eHcD+0lYeKtO2018Udsv7Gj0lJI7DZf1o3Hdw8jvsvbWfFG+3coBV0U1DIsVQmHIWlbrlTXSBKilfxIcrQB0UqBhSusmepsOQREQBERAEREAREQBERAEREAREQBERAEREAREQBERAEREAREQBERAEREAREQBERAEREAREQBERAEREAREQBERAEREAREQBERAEREAREQBERAEREAREQBERAERQSgPkajvts01aq293idsFJRQOllkcdmtC16cee0De+Ldw/JKN0lJpyF/8Au8Bdj8owT68g7+7A8lbjtZWq63XgxeobSHOdCI6iYAZ/MsdzP+wFa7JHBxBa0gYwARjvKsnQtppp0dWSe03kUx2mXurilZb4/VjVMqveY4A2BJA7y3l+zuRD3IrUaUwi53CxdvsskXMyfqtl0rbTcKe6Wyd0FXSu54ZAcEOG4x+9X97NXHyHinZG2i98keobdEPTMz/x2d0jffke5a+F2Lh1re58PtY23VNskDXUszfTt/7SEkB7T5Y39yjGprDHeKZXN/xGplPcS7R+opbHWNTP7py4cbWofincnfv6+9ci+dp+4092s9Jc6SRr4KuJk0bm9HNc0HI9ucr6KohzVYqtXmh6cjkSZiSN5LuERFxOYREQBERAEREAREQBERAEREAREQBERAEREAREQBERAEREAREQBERAEREAREQBERAEREAREQBERAEREAREQBERAEREAREQBERAEREAREQBERAEREBHesSQFkd9l8XVepbNpG0VF+vtdHS0lIwve97sD2eZ8llrVkcjWplVPlLIyFqvkXDU3VT6jpImZLnAA7blSHMc0EH2YVC+JPbD4gX67yx6FqY7PaonEROMQfLKMnBdnp7F3zgJ2uKy6XOLSfE2aBs1SWR0lzDQxjpN/VeB09vmpPUaQudPTecubtzwnMhlNr60VNd5m12F5cS8i2NZTw1lNJBPCySORpa5r28wcD1BCo/2l+zRNo+SfXWh6N0lolJfU0bG5NMSTlzR3t8u7cq8tLKJ6dsrHtcHAEEHIO3j3rir6GCvhdSVLGSQytLJGOGWuaeoK1dmvM9mqEnZy6optdQ6fptRUixO2d/C5DUa7HMeVwd03b8U7dx7x+/KhWM7S3Zvn0RU1GtNFUcstjkfz1dLE31qJxJy5v6h2+1VzdjIJwSe8DY+xXrarpDc6dKiFfencearvaKmzVK01U3HcveEUDPepW39xqUCYa5rg/pjOAcFw7/vCdyDr0JOD6oGc/6OFwemWqqcupzYnEqInPJsu7MlwnufA/StTUyOkkFIYy4nOQ17mj7AF6kvPOz9YajTXB/TFqqmlszKJsjwRjDnkvP9pehrzbcFatVIreXEvzPXNnRzbfCj+fCnyCIi6hsgiIgCIiAIiIAiIgCIiAIiIAiIgCIiAIiIAiIgCIiAIiIAiIgCIiAIiIAiIgCIiAIiIAiIgCIiAIiIAiIgCIiAIiIAiIgCIiAIiIAiIgCIiAg9eixJGcHopdsvkak1FatMWqovd5q4qalpWGSSSR2AAFljXSLhqZVdj5SyxwtV8i4RN8mGpdSWbS9oqr5ea2Ono6RhfI95xjHcte3Hnj5d+Lt5NNSvkptP0chNLTd8539Z/wDruWfaA4/XPi9d3UNAJINN0smaemzvUkE/nJPEHuHkvIdyM5yO7uwPDHcrf0lpZlA1KyqTMq8k/lKE1vrR11etFRriJOa/zAEkAEgkeHT3LJryG8jSRnrg49h9yxTop85jVbwImy8ysuWO/mWv7Mnaako5KPh/r+vJhc5sVur5Hbg9BHL+72q5EUsc4zG8Ob1GDnZaiebHUZHt29vkR4q1/Zj7Tgt7qfh9r2rLqdxbDbq+Z+SPCOQ+3OD5+Sq7VuksZraJPFW/UufQ+t8q223Db+V30LhXCip6yknpaimjljnYWPY8ZDge4qiPaW7N0vD2on1lo+lfLYJ5Oeop2t/5EnqR+pn7cq+kMomha9uPWGRg5GPb3rhrqCnuFPJR1cTJYZmOY9ju8EEKE2W81FmqEe3dvVO8sLUmnabUdKsT9npu1xqMHk4nO+cYz7FKsB2kuzhVcOa6bVWkKV8+nal356Bn/wBzeSN/2SSfpXgMjHBxLRsCQSOmcq97bdYbnTpUwPz3oeartaqiz1K0tU38e8wJxg+BXpfZ/wCGNXxL4h0VB6CQ26ge2qrpeTLAwHLWZ8XHZdT0Vom+691JSaZ07TOnq6k8xdyZZEwfGc4+QWx7g9wqsfCjSdPp61ta+bHPVVPy5ZSBkn6FHtWagjttMtNCuJHfBO8lGiNLy3upbM9MRNXKr3r3He6CEU9M2FjOVjAGsA7gAAB9i/SsIxgHfJzus1SW67qej2tRrUanQIiIcgiIgCIiAIiIAiIgCIiAIiIAiIgCIiAIiIAiIgCIiAIiIAiIgCIiAIiIAiIgCIiAIiIAiIgCKFKALFxAO7sLF7+U/FJ269y4HVcTN5Xhoz16BZRFU4ucjN1OfmHccqQQvkVeqdOUDuSsvVDC47jnqGD7yF86fiRoCnDnVGsbLGGdeatiG/vcuaU8y7o1fyOstbTNXDpGovvO0c2OmU5j4LqEXFfhtM3MWu7A/wAeW4xHH0OX0abWmlq0A0OorXOHfFLKtjs/QSs+bzJzYv5BK6ldskjf+R94kIHjpndflguFHMMRVEb8/ouBC5my8x7vcvmrVbsqH3bKx/sqinM3ON1KgdFKwfRAiIgCIiAIiICD4LEnG2VkdxhfJ1DfLbpy31F4u9XHT0lNEZJJJDhrQPvPksNarnYamVU+ckjY2q964RNxqDUFp09aam83auhpaSlYXyyyOwAB1WvjtA9oC6cWrw622yWSm03SvxDDnepwT68niPAeS5u0N2gbnxVu0lns0z6bTlE8ejp88rqv9Z48PAeS8VcCXOcXF2+5J3+juVuaV0q2jRK2sT1uidxQmt9aOub1oaRcRJzX+Ynduzjk956fZ3exAco3opVhNaud0wViq53UIiLnyAWTHFvMWOw7Cx8k6IqZXhVNlCOVqphcLzQtd2ZO01JQuo+H3EC4AU/M2K3XCRzcg9PRyZ6eR81cqCeGZodDMx4O4LXZ29q1Dg4dnJGNxg758fLHirZ9l3tKVEdVRcONaVfpmykQ26tlfl4wPiSHv8j5qrNXaURqLX0CbfxJ9S5dEa6VOG33F3g130Ld3K2UV2pKihrqaOaCoZyPjeNnA9VWPWHYbsl3vklw01qee00dS/mkpjD6UMz+ge5WohcHMyRjrss+71dlAqC6Vdscq0z8ZLQulioLw1Fq4+LB5hwf4F6V4QW+WCyxPqa2pwKisn3e8bbeQ2zjzXpoYBs0bezosgSRscrIDC6lRUy1b1lldlV5qd6iooLfEkVO3hanJA0YClEXyO0EREAREQBERAEREAREQBERAEREAREQBERAEREAREQBERAEREAREQBERAEREAREQBEWJOEAOM5WLyRu0KC8Dqvj6i1ZYNLUL7nfrnBRU0Yy6WZ/I0e/vPkuTGOkdwNTK9x85ZWQMWSRcIh9Rznl4PMAAOixnqoqWJ0087I427lz3BoA96qtxO7bNooGvtvDa1tuVQ48v5XO7kib5hvxnfcq0624y8SNfTE6l1RUy0++KeA+hib5Yb+/dS616KuNciPl9Rq9/wBCA3ntEtttd5OH947w2/NS9Os+05wi0a6WCfVcddVR5BgoR6Zwd4HGwXiOqu3hcHPdBo7SkbGjpUVzz/ZZv4KpwIxsMY67Hc+/r7UU1oNC0FNhZkV6+PIrW4do92q8tgxGnhup6/qPtY8bNRZhj1SLbG7YtoqVrCR5OI5vtXQblxC13dHk3LWd6qcno+ueR7MB2F15FKKaz0FL/hRNT8CK1d7uNbvLO534mc088z3SSTSSOfu4yOc8k+0kriBx/wBOP2hu6yRd9I48ckNWs0qrlVUj422AfaMKWvc3Ja4sx3tcQfsRE8lH3GWyvbujj6tr1fqyzODrTqa6Ujh3w1bmH6V3zTfaX4z6dePybWc1bG3cQ17Wyt9vO4c324XlyLp1Fro6raWJq+ODuwXeupVR0Mrkx4lptL9uvU1LKxmsNKUtdF8uShlMcjfMBxLXezqvadHdrHhLqyWOmff5LVUPLQI7jCYgT+38Xy9y14fejjzDDzsep5eZRmu0NbKlFWPLXeHIl1s7RrxRORJXJI3/AO3P8zbjQXOhuMLaqhrYamF+7ZInhzT7CF+oPBWqjSPEbWuhKptXpbUdbQOHRrZOaNw/WYdj7Oqsbw27blZHJHRcSLK10QLW/l1vacjxc6PuHsUJuWh6+jaskPrt8OZYlq7SbdXYjqE8m5e/kXOb0UrrOidfaX1/am3nSdyZX0zju5vyTtkHz3C7Iwkg57jhQ18bonKx6YVOiljRSsnYkka5avJUBA5sqCcKXHBX4Lxd6Cy0M1zudVHBTU7DJJI84a0DqSuKIrlRGplVEj2xNVz1wib5OO+3igsFsqbxc6uOmpqWMvlkecANHXKoF2iO0NX8Wbo6yWN7qbTNIcNZzcpq3An13Hvb0wPJc3aJ7RNdxOuMmm9PzSQ6cp3nZrvWrHAkczv1emPYvC8EbF3N4OJyT7fu9ytrSelEpEStq0/edE7kKJ1vrR9c5aGifwxfxL1Vf0IDntbgdD5YRqlFYbWp0TBVihERcwEREARFBBLsBAS0Zdhdg0JZLpqDWVls1mD/AMrnr4C0sGSA14cfsC+bZLHdtQXWlstnpX1NdVyNjiij+MSeh9gV/Ozz2frbwrtjbtdmxVWpKto9PORlsP6rP9d6iup77BaqdzF3c5McP1JfpHTdRe6xj27RtXKu8e49uoWOZSxtecuDQCSO/vXPgLGIAMw0YGT1WaolVVVyp6bY1GNRqdAiIhzCIiAIiIAiIgCIiAIiIAiIgCIiAIiIAiIgCIiAIiIAiIgCIiAIiIAiIgCIiAIiIAoJwpXHIcEFAS8Bw6ZX5aqeKliM0srWtYMkvdygDvyV8HXOvtM8P7LPfdU3FlJSxDYl2HPP6LR4qi3GjtO6p4lzS2ixySWewF5AhZ6stQz9d37lvbNYKu8SYjTDOriKaj1XSWCJeJeJ/Rp7zxh7YmnNIyVNl0TFHebkwljpgfzMTv8AFhU61tr/AFhxFuZu+r71LWvLiWx/EiiHc1rfAZXX/wCkXHvJOc+9FcNl03RWhqKxvrd5Qt81ZcL45Ukfhn8vcMkgAnONuihvRSikXIi6hERAEREAREQBERAEREARE3xkdyw5eHcEd5B6YXo3Bfg5qHi5qBtFSRup7ZTEGsriNo2d7W/rH94UcG+DeoOLWoo6KlY6C2QHmra1wwyMdzQf0j4LYfoPQlg4f6fprDpuiZBT07Q3duHPd3uf4uPj4YUF1VqlluatPTrmVfgWJovRkl5kSrqkxEnxM9CaIsegbFT6e0/Rtp6SnYBjGHPdgZc7zOB9i7M0kbAdEyDkDr3r8N0uVFaKWavuFTHT09OznklkcGsa0dckqnHPkqHcbvWcqnoBrI6SJGN9VjUJvNxpbVQTXCtqIoIIGc8skpw1rR1J9yoN2j+0VVcUbjLpjTc74NM0cha97DvVEZ3d+r4ewrm7R3aMquJNbNpDS1VNDpqnfyzSMOHVbh5/o9F4EATgcoBx3Dr/AJq1dKaVbTolbWJ63RO4pHXGtlrHLb6F37v+Je9QcNx63Nt17z7UBypwQSCisZrcdMFUqud1XIREXPkAiIgCIsXYG/egMl+2y2a66gutNZrJRS1VbVyNjhjYM756+7vU2eyXO+V9ParTRSVVZVyNZFFG0uLifIdw71fXs89na28MrXFfbzFHUalqoh6WXflgB+SwHofFRrUWoIbLArlX112RPqSrTGmKnUM6Man7tFyq/Q5uz32ebfwstMd1uzYqrUNY0GonI9WEfoM9+fpK9vZGASWt5R4I1pa0NyBjwXK0gjYqjaysmrplmqFyqnpO222ntUCQUzMIiYJb8VZKApXWO+nIIiIZCIiAIiIAiIgCIiAIiIAiIgCIiAIiIAiIgCIiAIiIAiIgCIiAIiIAiIgCIiAhQRhHHG6xEme7KGORi5waCvPeL3GHTXCOwOvF7qnSzva4UtHF/wAWd/cB5eK4+NPF6xcJdNT3i4kTV0w5KGizl00vdgeRxutduu9eai4j3+bUepq2SoqJHH0TA7LIY8kta3wAydvHKlumtMPvD/LTbRJz7193gQLWOsY7BGtPTrmZ35J/c/fxK4pau4pXqW76luBc3n5qekifiGFvcAPHHXzXTR0+MT7QpGQAHHJHeiuulpYaONIokwiHnirrZ66VZplyq7qoREX3TY66rkIiLICIiAIiIAiIgCIiAIoz3KHeq3u/ejuQXoSTg5Xf+D3B+/cW9SNtdub6Cghw+urHDLYmd4H6xWPB3hHqDi7qBtqtkT4aKFzTWVzhlkLO8e0joti3D/h7p7hxpun03puhjp6eFoBdjD5Xd7neZx9yg2qdUMtjVpqfeVfyT+5YejNGyXuRKqqTELfzd4e4cPtBab4e2Cn03p6kbBDCwB2R673YGXu8zj6MLtAaGg8pIBHegaGZPQlfmr7hSUMMtRVTNjjgYZHl3QNHUqmpJJKh/lHbuVT0FFHDRxcDfVY1CLlX09topK+pqo4IYG+klkk6NYNyVRDtJ9o6s4jV0mk9JVMsGnKeQtlljOHVjh0/o5/es+0j2jpte1M+j9H1MkVghfy1FRH8arcCcj9np9qr4HEZ6b+CtLSelkhRK6s3d0QpPXOt1q1W3W9fV6r3+BGGtAa3G22AehRCCMZ70VkN92Cpea88hERfQyoREQBEWLt9kORLt9l+y1Wm4Xq409otVE+rq6t4ZHCz4zyfD2d6xttsr7tcae12unkqKupe1kULN3PJO2PDHeVfPs49nGg4ZUMepNRNjqtR1MbfW6imac+qw95OcEqOahv0NlgXO715J9ST6Z0zU6hqkY1P3ac1+hydnXs7UPDC3Nv1/Yyp1BVxgue4ZFMMfEb4Hz817vExrS4gY5jn/XijA4xjLhnxXK0YGFRldXTXGdZ6hcqp6Stlsp7XTJTUzMIgAAGyzb0UNIOfasl1E35myCIiyAiIgCIiAIiIAiIgCIiAIiIAiIgCIiAIiIAiIgCIiAIiIAiIgCIiAIiIAiIgCIuN/X3IDJ3hhdP4mcQrLw10tV6nvkgbFA383H8qaT5Mbf1ienvXY7jW0tvopq2skayKFhdI4no3v+5a6e0RxprOK+qnx0kz22G3PfDQxNPqyOyQXnyOMe5SDTtikvdUjET1E5r9CIav1JHp+jVzF/eu2an1OncSeI2ouJmqajUuoqjmk9ZsEDPiQM6hg9gO/nldUDQNwNjuPNSSTueX+j09yK96alhpI2xQphE2PNVXUy18rppVyqrkjOVKIuydUIiIZCIiAIiIAiIgCIiAIsXLMFwIDepGFh68gY5x06rvXCPhJqHi5qNlpssboKKF7XV1c5uY4G52HtO6jhLwo1HxY1IywWeN0VIxzTXVjmZZTsJyN/E4IWxXhzw705w105Dp3TVI2GBvrSPdu+Z5+M4+3/JQfVWp22tPN6dcyr8CwdF6OkvcnnNQmIWr+LvD3GXDrh/p7hzpyn01p6lbFBEDzOcMPkf8p58zj7l20fF2GUG++c79PBflrquno6eaoqpmRxxsc5xf0DQNyVTb5ZJ3rI9eJzlPQcUMNFCkcfqsahlW1MdHA6omc1kcbS57nHZoAzlUV7SXaNl19WT6M0bWGPT8BLaiojPrVbwBt+yD+9cnaZ7SdVrOoqND6Mn5LPG4x1dSD/zLh0a39Uf5quJDQeVpzjGd8nOFaOk9KJEqV9a3Pc36lLa31utVm30DsJ/E76EgtxjGD/5KMEdURWWiIiYamxUnNwREWQoREQBERDkgXPQ0NZcqynoLfRvqqqplbFDEz4z3n5I9qiioau41UdDQ0s1TUVDhFFDE3L3vPQD96vd2bezjR8O6KPVWqKds+pKmEZafi0bDuWt/W8faFH9QX6CyU6q9fXXkn1JNprTNRqKpRjNmJzcZ9nHs60HDegh1LqaJlVqOoZzYcOZtGw7ljR4jxVgGtweZuxJ337llHsMAjbw6e5cgAzvuVRNwrZ7nOs9S7KqekbXbILTSpS0zcInXvJaAOiyUDBzhSuqbTmEREAREQBERAEREAREQBERAEREAREQBERAEREAREQBERAEREAREQBERAEREAREQBERAYOA3yeq45HtYCXH4oz7h1Wb3hp37l1PidrS3aB0bctV3IgRUNO6RozgyP+Sz3nC+kUbpZGsbzVcHXqZ2U0bpZOTUyvuK8dsfjObXS/7MLFXctXWRl9zljzmGI45WbfpdFTdziBy8uBk7b+Pmvoajv9z1Tfa7UV5kL6y4TvnlJOcFxJx7ht7l85X/AKftDLRRNhZ7SplfeeWtT3x99r3VDvZRdvcQMdylEW9I/wAgiIgCIiAIiIAiIgCIiAKMEn1eqEZUHA23XFeYMjyjbvXeOFfCbUnFjUMdmsMBZBG5rqurd/w4WZ+/quDhXwv1BxX1LFp6yQvbFkOq6o/Fp4/0vae5bGOGvDHT/DHTMGnrBABygennf8ed+AC53nsPoChuqdTMtTPIUy5lVPyJ9o7R8l8kSoqExC383eHuJ4Z8M9N8M9NU+ntP0wjZG0CWb5cr87uPtK7iGY7lDfVB38vYuKrnjggfNJK1jWNLi49G+ZVLSzvqJFkevE5VPQ0EENFCkUXqsahFZVwUUL6mpkbHFEwue53QNHUlUj7TfaUm1VWVOhND1borWzLKytjfyunx1aw+HRcnaW7TE+p5qrh/oK4ujtsTuSur4XetUbnmYzyz1VZHOaThgwPI5Vn6R0n5PFfWpnub9Smtc61WZVttA7b+J30MS5xbyYHL3Y/z70GMbJjClWW1qJshUK8wiIufIwEREARFHTdcVdgEr9FBQ1VyqY6CgppqmrqHCOGGFnO9zj0w3v8APwWFDRVVZWQ0VDA6eonkayOJvVzicD7Vers0dm+Dh/AzWWrI46jUM7MtY7pSMPUD9ZaG+3+CxwLI/d68m/UkumtN1OoqlImbMTm76GXZs7ONHw6pI9VarpWVGpKmMYBwRRxkDLRnvznPtVho2d4cfDuz9iMZ6oIGMdVys6qiq6unuM61NSu6npO02qntFKlLTNwide8lo265WQGFDcb4WS6mMG1zkIiIAiIgCIiAIiIAiIgCIiAIiIAiIgCIiAIiIAiIgCIiAIiIAiIgCIiAIsXPa34xwsBLG45a/KA5CN8qNlwyTxMBLpWgebsL8VRqCy0g/wB6ulJF+3M1v3rLY3P5NPk6aJntOPqA5Qr4Y1fpp55Wagt59lSz/Nfqpr3aqs4p7lTy93qTA/cuSwyJurT5pVwOXCPQ+kEO5wuATNduJW4U+kZjZ4K4YwfVHovJTGZ4LHHvbv8AQqW9tricbnfKDhzbagmC2g1Fwa3o6RwPIz3AE+9W61fqGj0xpq5agrJAIaGnfM4/sjK1aam1BXaqv9fqCueXTXKpfOc9wJ9UfVAU60LamVlYtVL7LPmVp2l3paKgSji9qTn90+VnLCfE/Z3fZhB0RowMKVcqKqruUCq5CIi5KAiIsAIiIAiIgCIiAIilrXOOG9UOSEepy7nfwXb+GnDHUnFPUUGn9P0z2gkGoqnNxHBH3nm8fJYcNOGmpeKOp4dO2CE4B5p53DLIGHYuP7lsU4UcK9O8KdNU9gscEZfgGqqnN/OTvwMn7PsUO1RqeK0M8hTrmV3wJ1o7SEl+l8vP6sLV59/gcnDDhfprhjpuKwWKmDCxg/KZy385M/GC4nzwu7tyGgNHTzyp5Wuz37+C/PUzxwMe58oY2NhJJ6DwJVJzTPnkWSReJyqeh6emhooEiiTgY0zq6iKnidJK5rWtBcS7o0DqSqT9pjtNy6gln0FoKvcy3guiuFdGcGcjrGw9wxjPjlfo7TvaXnu0lRw+0DXllJHzRV9dGd5XbeozwHxslVak9GHlsRywEhu+dvb3qzNI6Sa1UuFe3P8AK36lP651ssjlttvXb+J30MTjoGhoA2AGB9HciIrQRMJjGCnkXO4REWTioREQBEUZxugJXPR0M9wqYqOjhfNUzO9HHEwZc9x6Ae9cdNFPWVDKWlgM08zhHCwdXPJ2A81eLs0dmqn0TSRa01nTNlvs7QYYZW8wowQCBj9LOfsUev8AfYbLAqye2vJPqSXTemqjUNU2OPZic3fQ5uzX2babQlLS6u1bTRzahmAdGxw9WlBHRvn1VjI28oIj+LgY+hAAMDl7/wDXsSR8bTjoXAjHiqOuNxmuUy1FQuVU9KWm1U9np0p6dMIiczkHxfW8FkMbb9FX3tF9o+k4bUcmmtMyR1OpqiM8uHc0dKMYDpPadl33gVxCPErhxbdRVEgNZ6IQ1gHdOzAf9v3rMlrqoKRKx7cNXkfGC+0dTXPt0b8vamVPRwpWEeMLNdA3KBERDIREQBERAEREAREQBERAEREAREQBERAEREAREQBERAERRkdUA71DnYOygvHNucBfC1VqyxaRtU93v90hoqWFpc6SV/L7gO8+Syxj5HoxiZVT4yzRwMWSVcIh9pzyHDdu/ivgao1/pLRtK6s1Jf6Kgib3zzBhPsHUqpnFXtq3askmtPDWjbTwH1DX1IPPJ5saPi+1Vovmpr/qiukueobzWXGqkdkyVMpfv5E9ynNo0LV1iJJVrwN8OalaX3tJpKFFjoE8o7x5IXJ1t25dI26SSi0bYqm8SNOBUPf6GAHfq47kexeJar7XvGG/ekht1fRWOJ/RtFBlzR5Pf19y8S53BxJf6x885UDAOc5z1U/otH2ujRFViKvjuv5FY3DXN5uKKjpFanc3b4nZLtxJ19fBm8azvNS4nPr1sjcn2ZA+hfDqK6sqX+kqKqeVxGDzyuf95JXDkeCjbzW9ZRwRJwtYn5EbfXVUi5e9y/iPSPBy2THkGYXPBcrhSv56W4VUB7nRzvac+4hcCLmsES7OYfNtTMm6PU7bY+LnE7Tk0U1r1xeGeiOzH1L5GH2hxIXqulO2pxOszms1HR2+8U2MH1DDJ7nN9XPt3VfVBxnfZayssNurExJEhtaLUdzoHI6GVyfjn4FmuNvaps/Ezhn/ABYsFBXUFVcJ4mVrZo8t9EN3Dm79wFWh5JwSQC7Lj7SVgOQd+SpOO5fW12qmtESw0rdl3PjeL3WXyZs1WuVbsPflERbU1XvCIiAIiIAiIgCIiAIiIckAznA38l2jhzw71LxN1LBpvT1I7neeeedzMxQRgHLnn7vNfk0TpG9a51PQaYsMPPVV8hjDsZETflPPu6LY3wj4Rac4TaZitNop2OqntDqyqLPzlTIAMknwUQ1RqVllj8lEnFK5Nk7vEmuj9JS3+fy0u0LV3Xv8Dn4U8JNNcKtPMsljp2umO9VVObmWZ56kld65OVoIxt1yojxGOQnfOduiiombHC55cAGjJ5ugHiVSM08lTIs0q8TlU9F01LBQ06QxN4WNQxqKgQN9K/lDR1cXcrWjvJKpx2nu0y+5S1XD3QNW4QAuir6+I/8AEHQsjPf5nzXN2mO0w+pfV8O9C17mMH5u4XCNxyBvlkePt9qqaHZBd6R2+5ySST47qytJaSR/DW1qeKN+pUWudcIqLbrcuP5nfQw9Ueu71nHzynXfGEByAjeitJuMeryKdV3EuVJREWTgoREQBETBxnuQEZ3x3LlpqWerlbTU0T5ZJXhjGRt5nFx6ABYQU81XPHT00L5ZJXhjGMGXOcegCu52aOzTFpCGHW2uKGOa9StD6akkaMUmQNzn5f7sLQ3y+QWWBXSbvX2W/UkOndO1GoapsMXqsTm7on9zk7M3Zth0bBFrLW1JHJfZmB9PTTNyaVuBv5OO/wBistEMAkEgE5AI6I1gGXgAg9Dspy1vUYPgDuqKuNxnuc61FQuVzyPS1otNNZqZKanbhE5r3h55QTnI6f6K8G7RfaMtvDW2S2GwTRVOoqpnIAH5bTA5HO7z2K5O0T2hrVwvt77JZJW1OoaxmIWDJbTN3y9xHftsO/CoPdrxX3641F5vE8tVW1jzJLNI8uc4nzPljbu6KW6V0s64PSprExGm6eJBdb60S3NWjoFzIuy+BhcrncLxXzXa5VklTX1bzJNM85c9x6/YrPdhrWrqW93zQtRPiOuhFbStd152Ya4fQQqsYIO/eF3bg1qv+JXEmwX/AJy1rKxsUu//AE3eqfvViagtrKq2SQomMN2T3FTaYuj7fd4qlVzl2FX3m0aOTLRgYyMrM9F+ejkZLEySMktcAQc93cv0u6KgcK3ZT1MxyPTibyDeilQ3opQ5hERAEREAREQBERAEREAREQBERAEREAREQBERAEREBi4bk+S43FrW5IwAspDg5z0ByMrwHtGdoyj4Y00mn7A5tZqCriOGtOW0zTkB7h7QfoXaoaGe4TpBTply/BDWXW509op3VFQuETp3qff419oXS3CehNO/FfepWF1PRxvyB3Zefkjf3qh3EXiZq/iZd5Lpqu5PkAfmOjafzEIGwAZ7F167Xy7aguk97vNdNU1lW7nllkdkk/u9i/J3ncn2q6LBpems6I/HE/qp531JrOtv0vA1eCPuTr7yAXEDm6493uUoilyEMCIiGQiIgCIiAIiIAiIgCIiAIiIAiIgCIiAIiIApAaQXPJDW+sfYOuPNQu68HdAVXEniBbNMQtJge8TVTsZDYG4Lz9w/pLrVdQylp31DvZam/vO1R0stbOymi9py7FpexnwkNk03JxHu1OGV94by0okb/wAKmGMEnxJyrQhoDQB4r8dpoKW12+C3UcIhgpomxRsAxhoAAHuAA9y/eMYGV52udwfdKt1XJ1XY9V2S1Q2ihZSQ9ETPvOCokbGckgbeOB5k+SqH2me0w/FXw94e3B2STHcbhE7JYNwWM8DtufNd+7Y3Ei8aK0bQ2awymCrv8zqcztfylkTRl+/sKoQ8ObkteXZJJJ6kk9fNTTRmm46xP2hU+twrs36ld9oGsJKJVtlHs5ebvDuMCXF2Xbu3yc5Lj4k96lYg46qQcq3EZwr4FHqvEuVJREXLboYCIiAIig9fi5QErOOGSpc2CJhfJK4MiYBkveegHmkUcsz2wQxOfJIQ2NgGS5x6Aeaul2aOzS3TEUHEHXNCJrpK0PoqJzdqXIHrH9br9i0N8vsFlgWV65d0QkGntO1OoKpIYfVTq7oifqcvZk7NMOl4Ydda2pGuu8zA+mpJW7UrcDDv2uv2KzkTSGAbnGwJGMqWMadyAMHbA6hZPLSTl2+2QNiVRVxuM9zqFqJ3e5O49K2izUlmpUpqVuO9e/xEr+Rpfy56AAdSvDu0P2hLVwwtL7PZnRVepKuPEEIdn0DTkc7j5EH6Fz9oLtCWzhVaXWy2ejq9Q1jSyCBr8iLOcPf5bH6Fr9vV5uuobpU3u+VjquvrZDLPK45y4qUaU0s+4PSqrExEi5TxITrXWjLW1aKiXMq7L4C93e53+5VN4vFbJW1lVIZJZpHcznEr8I6dMKUV0RQthRGsTCJ0KGlkfK9ZHrlV6juwsmPMbhI3YtIIOcb5H+SxQYw4dSWkY9qSpxNXx2ODHcDkVOm5tK4Q6lGrOG+mb8RzSVlugfKc/wDU5AH/ANYFd1HUrwHsZXk3Tg5S0wly63VtRTEeADub/EvfR8ZecbnB5tWSxdzlPWdhqvPLdDKvVqGSKApXQNugREQBERAEREAREQBERAEREAREQBERAEREAREQEHr0XGXNbnuA81kfjZXXtb6stWitNXDUd4qY46eigdK7ncBzYGw38SubGLI9GN5rsh8Z5mU8bpXrhETKnnvaI44UHCfTXLByS3yvBjo6fOcOPyyPALXjerxc73dKm83mskqq2rkMk00jsue4/djpjyX3eJXEC8cS9W1mqb093PO/EEJcCyGEfEG3tz711dzuc5zlXjpewMs0SOk9tybnmnWOppL/AFasYv7tq7e4jOd0RFKcY2IamOgREXNDIREQBERAEREAREQBERAEREAREQBERAEREAREQEtaHHfoOu2Srudifhv/AAPpep4h3GlLa29u9HTOcN20zcDPvPN9CqBoXStZrbVlr0tQiQvuFSyJxYMuZHn13D2NyT7FtK09Z7fpy0UVlt1M2KnooGU8TGjAa1owB/rxVc6+unkYG0MfN27vcWt2X2XziqfcZOTNm+8+m2PBJHiuQIMDYKVUvMvZPA8f7SvCJ3FnRT6K3kMu1uP5TQvd8Uvxu0jzAWui7Wy5WK5VFmvFBNRVlI8xzQSt5XMcP3d/vW2+aMPeS4ZaQMgeS8G7RvZ6ouJ9ukv9hhZTaio43Oje1mG1bRvyO89ypxpLUyWp/mtSn7t3XuUrPXWkFuzVr6RP3jeafzeJQA7ov0XW2XKzXSe13ejlo6umd6OWCUYcwhfmHtyrljekjUc12UXqUI+J0LljemFQlERcz5KERRnuQE8xxynp1WUMU80radjHPkkPKxjRkuz3DzURMdI8RRxvkkcWiONjS4vJIBGB7lc3sz9mUWNsHEDX1CXXR59JQ0MwPLTgnZzwflf+S0N8vkFmgWV65d0QkOntPVGoapsEPqt6u6J/cz7MfZki0/FTa+13TCW6Pb6WiopW7UrSBhx/W6/YrTxN9XG30be5ImsAOO7oMdFLnMG/NjHn1VFXG5TXOoWed3uTuPSlos9NZKRKaBuMc17yJBjfO3eAdyvGe0Fx+tPCu0uobdJFVahqW8tPSh2RHnP5x48NvsU8fO0FaeE1ndSU8kdZf6xjm0lK12fRk9JJB+iMfYVr/wBQ6gvOprtU32/1z6uvrX+klkccgE9w8APBSjSul33F6VNSmI0/8vAhOttbMtjPNKFcyu2XwMb7f7rqW61N7vNZJV11U8vkle7PXuHgB4L52SepyiK54WMhajGJhO4oOWV8z1keuVXqERF9VTBwCgk/0QpUd+fDBXFUVyYUJsuS5/YNuRl0zqO1OH/L3GOQH9uLH+FWub37qmnYMqXNueq6DmAD200+PYXBXLB32VA6rZwXeXB6b0FL5axQ+GTNqlQ3oFKjxMkCIiAIiIAiIgCIiAIiIAiIgCIiAIiIAiIgCIoccDrhAYSPAdykjJGRk4VJO2jxXfer+zhja6kto7d/vFw5DkvkxlrPdsferYcS9Y0Wg9HXPVte/wDN2+EvAzjmcSAMeecLVzd7pW3y61l5uMrpKqvmdUSucckudvup5oWzpV1S1cvst5feKs7Tb55pSJb4neu/dfun5HkkEnrtv4qB0UoriamEwpQnuCIi5GQiIgCIiAIiIAiIgCIiAIiIAiIgCIiAIiIAiIgA6qCMknlyAMnyUqWiM/8AG/4fR3v2XFyo1FV3RMnJqcSqi9cIhZ/sQaDdcL/dNdVUAcy3sbSUbz0Ekm7j9Aarsx7b5zleUdmDSQ0vwfssU0PJU1zTXz+bpNwfqhq9acBj2Lz7qS4LcLlJK7ki4T8D1Fo+2/s20Rxp7TkRVJO/dlSMYXVtbcQNK8P6Bt01beordTvIawvyS8+AA3X7tN6ntGqbbFeLFdIK6iqBzRzQnLT5eXvWkdHKyPyqt27yQpUwrN5BHet3H3MrilAe0g9NllG4EnBz3KXDwXFF32PvhFyjivnaM7Ods4jUkmpdOQtptR0rS8ENw2pA+S7zVDbhb621189suVLLT1VO8slik+M1wK25OYxxw7fYfYq79pLs4UXEOim1XpelZDqGmbzFjHbVbRk8pH6W6n2lNVrQuSkq1zGvJe7wKr1xor9oNWuoExIm6p3+JQwHOVK566hqrfVTUFbTvgqIHmOWJ4w9jh1DvP8AdhcBb9owrgY9JERzVyilEPTyblY9MKhG/uWcccshb+ThxcXhox1yegHmeiRMLnNhazne48oHcc9R9yuN2ZOzN/BYpeIGvqTnrHN9LQUMnxYQQMSP/W/cAtPfrzBZ6dXSLly8kN5YLBVagqWwU6bdV6In6mfZi7NAtUNNr7XFA38ucPSUFDK3LafO/O79Yq1kTQyMNG4HQkdVMTG5y0YxthZP8cgFvRURcrnPdahaidfcncelbJZaWx0qU1Ome9e8hzgwF2O/u6rx/j9x3s/CayujpXw1V+q2ltHS52ad/Xf5dfoWXHrjvZ+EdiMbXsq73VtLaOkH6Rzh7vIEfSFr41PqO9auvVTfr9XyVldVvL5ZH936o8gpNpbSr7o5KmpTESfmv9iJa21pHaWLSUi5ldt93xMNTajvOrL3VX+/1klTW1by+R7znHkPIL5reiZPf3KVc8MTYWpGxMInQ8/zVD6hyvkXLl5qERF9lPiERFgyFHeFKY2ysKELSdgo51VqZn/yEB/rvV2Pf0VLewREDf8AVVQG+t+T0zOby5n7farpDJJyqH1ivFd5E9x6X7Pm4sUS+/5mY6KVAUqME2CIiAIiIAiIgCIiAIiIAiIgCIiAIiIAiIgMH96xfsCcZ8As3LimIawvzuOh8+g+9Zyq8jiuE3Uqf259eCmtln0FSS5NZI6srGDvZG5oY0+TnF31FTYE9Sc+Y6HzC9X7T2pf40cZ75Ox3NDbjHb2/wBBuT9rivKGbq+9KULaG2Mb1cmTy7rK4rcrtO93JuyBEPVFI03QiwREWQEREAREQBERAEREAREQBERAEREAREQBERAEREBi5fa0jYZtT6ptGnqdgfJcayKAA+bgT9gK+Ovc+x3pN2o+LkVzkizT2OmdVOd/+o71GD7XLV3mrSgoZKh3RNvxNtY6B1yuEVOnJVTP4F/bNRQ26109DTjEVPGyFg8A1oH7l+qQgZLvi4yT7EgGGEZ3B3/d9mFx1oJhOCBjfPv/AMsrzk7L1XPU9ZNa2GNEbyanyQo724dWy3HiBa9N085NPbKEyvaegmkcR9wC8/4Icd9Q8I7wI2vlq9P1EmKmid8aI4I54/PI3XxeN2o/408V9SXcSc8RrXwRHwZGeQf2V0ZuMnl6AesPFX1brPSutEdNM3ZWpn3nmK736pjvktfTu4XIu3incbW9F6vsWtLNBqDT1ZHU0lU0uY5nUHO4PmCvvMdzdQAVrP4Kca7/AMIb56aB81XaJyBV0DjlvL3vaP0gO/wwthWg9bWDX1hpr/py4R1NLUNDgQ7L2nG7XeBGeiqfUGnp7LLy9ReReWltWU+oIkavqzIm7e/xO1YXDPH6RrmkZ2I95XMwg5271OAo7jfKEu2VMLyK29pXs2w6/ppNW6Tiii1DDG50rAOUVoGPVI/S8FSep0vqWjuDrRVWCvZXseYzE6nc5zXZ6bbZ/dhbZpW8xGACB4r8htlC6YzOpYy/rnk3+lS+y6wqrTGsTm8adPAr7UHZ/SXqoSoY/gXr4lUOzP2XpKF8WueItuDaljmvoKCUhwi2B53eByTt5K28LOSPlaNmnAHh5IxjWfFGO/CzDsDcjPmVoLnc5rvULNM7PcncSiy2SnsdP5vA3fqveQ7DSCdwegXkvHbjpYuE1jdKHNqbvUAtpKQHq7f1n/qju8wVnx046ae4SWB8s8rKq61EbjR0TDzPeenMR4Ba8tV6s1BrW91WoNS1zqitq38zyXZDQNg0eAAA2Uh0tpp91f5epTEafEiutNZMs8a0lKuZV2+74k6s1Xeta32p1Df6ySorKp3M5zjkAZ2aPIL4+c+G22yDONzlSrsiiZAxI2JhE6HnuaZ9RIssi5VeahERfQ+YREQBERAEzthEA5jjwwR9OP3o5cbmOaYLh9gujLaHVFbjaSop4foY8/4lblmCBjwVauw1ZvyPhlWXY9bjc3uZ+xG0M+8lWUB649y8+6ml8rdZcd56h0TD5GxwN79zkHRSoCZC0JLSUREAREQBERAEREAREQBERAEREAREQBERAccgPd3r8l1qYqG31VbL8WCF8h9gGT9y/Y443wuocXbhJbeGWpq6E8skVrqOQ/rGNwH3r6wM8pK1neqHVrJPI0739yKvwNYN+uZvF4rrq7PNV1Mszs/rPcR9mF8/OVByWtz5ZPicDP25TxXpOCPyUTWdyIeQqlyyzPevVV+ZKIi7CHxCIiAIiIAiIgCIiAIiIAiIgCIiAIiIAiIgCIiAIiICDnuxtvv7QrqdhHTsdLpK+aje1vpa6ubBkfosHN97yqVnIHMPk+sPaCFeXsMXBk3Dy7W4fHpbmeb+mxqhuu3PbaHIzllMk97OWsdem8fPC4LMMwRkZ38V1niXf49LaHvd/lPq0VDLKP2g08v2rszByt5R0Gy6Pxp0ZcOIHDq8aWtVSIKqug5Y3O2bzAg4JPiqYpEYtQxHrhuUyegrj5XzOTySZcqLg1eTSyVM76iX40z3PPtLihaWDIK9xs/Y64zXKrdT3C30NuijeWemlqmPbgd7Wt3wvVdK9hWxxcr9X6tq6t2fXhpIvQtPlzHdXbU6rtNJG1EkzhOSczzjDoe93CZV8ljfdV5FOYgx3Nzv9oGd/aB3K03YhpNZ0uqbk9tPWR6cmpPXdK0tiNRkcvJn9VWH0l2dOEekQ02vRtE+Vn/WqWenefe5ei0dBSULWw0kMUMbBhrI2coA9ihl+1lDcqZ1JTx7L1XmWJpjs/ntNW2tnmwqdEP1szvnrlZLEEbkLFrySfBV9yLY5mZx3rB+MHBWL5Y2nw8V5VxL7RHDvhkZaa7XhlTcQCGUNIPSSl3n+j7V96emmqnpHC3iVTp1lfTUDFlqX8KIeoyTNjaC7bDSeuF4xxm7SWi+GtHUUdJXR3W+cuI6OAtcI3dxlcPigHx3VZeKfay17rxslvsrzYLWfV5IX5mkH6z+72LwyWaWd5knkc95OS5xy4+0+KsCzaEe9yPr14evCVRqLtKaqLTWpuc83L9D6+stXX3XOoKrUuo66WprKt3Mc7Njb3MA7gP3r4yIrVihjp2JHGmGpyQpyeeSpessruJy81UIiL6HXQIiIZCIiAIiIAoJDWudykkNIw3qdjgfYpXJTCH8oifUcxijkaZQz4xjz6wGdtwFwlzwYamV3PpFw8eXrhNjZH2Z9OusHBrTNPJGGPqKQVjh5zev/iXq26qVYu3Fouz26ltMWiLw2GjhZCwtkiI5WtAG2Qvv2/t08N6mUsr7PeaRv6RiY7+ySqIrdPXaWZ86wLhVVT0pa9V2Smpo6fy6ZREQsvnuxuo2Oy8o012leEWq3NZQaspYZ3YAiquaF2T3b7L02krI6sNkgnbJG4BzXAggjxBHco/NS1FMuJmK33kopLjS1ycVNIjk8D9jST1Urja85IJzuswvidxFzuSiIhkIiIAiIgCIiAIiIAiIgCIiAIiICD0XmvaNeY+CWrnjqLe7H1gvSj0XnfaCo3V/BnV1K3q+2S/YM/uXbt3+ci+835muu/8AkJvuu+RrDHJyj9PG6ICHOLz8Z26DG+F6RaeQk5koiL6GVCIiAIiIAiIgCIiAIiIAiIgCIiAIiIAiIgCIiAIiIAOu/TvXv/Y54l0eitdVWn7vUiGgv8bI4nu+K2dpPL9IJC8AAycLKKWSGRs0EpjkiIe14OC13cR55Wsu9vZc6R9K7kvzNpZrnJZq2Osi5tXK+427QSskjLoxgE9PLu+zf3rMgnAVTeAXaxo5bbSaS4lVIpa2PEMFyeR6OfYY5yeh8/YrT0NfTV8UVVSVEM0Mg5mvjeHNIx1BHVUFcbXUWqZYqhuMclPT9mvtHeoEnp3ZXG6H7AwArB3gHD3rPI73D6V8G/6v03piA1eoL5RUEQ+VUTNYCPLO5XRZG+R3CxMqbR80cDOJ6o1PE+5EC0Y2WRc0A7YXgmqu2Pwk086SO311Td5WfJo4jyE/tLx3U/br1bXc8Wk9MW+haT6slW98riPHAwAff7lvKTTFzrF9SJUReq8iM12tLNQIvHKiqnRpdSouFHRROnqp2RRsGS5xwAF4pxI7WHDLRPpKK3VxvlyY4hlPSO5gHeDnfJVKdZ8YOI2vnvGpNT1s8Djn8ljcY4W+QaOvs39q6aXcnyGtz4Z+49FMrZoBqJx3B+PBOpXl47UJnosduZjxXn+B7JxH7VHEnXvpaWCuNltz+YCCjxzluOjn9SF44975XukkcXOcclxJJcfHdY+zvUqwaG2UlvajaaPhK0uN2rLq7iq3qqhERd9Wp0Nd7wiInI4qEREAREQBERAEREATf9HKIgHuwiIuONwRsTg5HnjP2Lu+guMfEDhpPHLpfUU4gYOWSkqR6aF48A0/FPmN10lF1aqgp61qxzplDtU1dU0T0kp3uaqdxfbg32sdKa8khsmpyyyXklrQ2WTMUzj+g4758jurCRSxyNy3plah4n+jkbI3Z7XAtcDgg+Oe7HcrUdmrtRVdvmp9BcQ6wzU0rxFQ3GY+tGe5sh7xnoVWGpNFebNWpoEynVv1Lk0f2gLUOSjua79HF1WkEbKVw0srZ4GzMxyv3GDnZcyrrCpspbzVRyZQIiIZCIiAIiIAiIgCIiAIiIAiIgId4L4GvLYLxo292rl5vyu3zwY/aYR+9ffX5q1rZIJIXjIe0tPsOxXOJ3k5Ef3Kh8aliywujTqimol7DDJJTu6RPMZ9rTj9yjGOi7RxP09JpXiFqCwyNwKW4Tcv7LnFw/tLq7ei9KUc3l6dkidUQ8iVsC01TJE7miqSiIuydNQiIgCIiAIiIAiIgCIiAIih3RMY3BKnDCS3m6DPXChjDI4MaTzHAGO7f/PCun2LuGNvGhK/Vt9t0NQ68VP+7CaJj+WGPmDXNyDuS5w9wWivt8jstKtQ9MrnCIb7Tlgk1FWeaxu4dtylnpY2jPMN/wBZSWscOZjsra8dGaVbkjTttx0/5SPr9VfPv2gNI3W01drfYbfG2qhfGXNpo2uHMCOYYA3GT9KhzO0Rrnpxw4T3lgP7KJGs42T777Y5mrDlLevtRfU1RYK3TGoblp2vY5s1uqpKdwd1w1xwfeMH3r5ZAHRWPBO2oY17OSlSzROgkdE/mi4CIi+58wiIgCIiGDIO9UsJ693j7xuuw2DiJrzSTcaa1hdqFv8A2cVVIGAfsnZdcGO9F1qiliqdpWI73nYp6qopXcUL1b7jv1Vxz4t18fo5+It7LcY9SoMZ+kdV0u5XO4XWodU3K4VNZM/d0lQ8vLveV+VPavjFb6anXMcaN9x957jWVP8AjSucQMDoMKUOO5F3kTCYOiu+4REWeYCIiAIiIAiIgCIiAIiIAiIgCIiAIiIAiIgCIiAjlzusiCAAO8jvxggjB/yUKDzHo7C4ub16clCOcxUei7oXb7IvHCTVNu/2f6lncbnb4yaSWU5NRDnBB/WGD7sKz+A7ofNantIaquOi9TW7Vlrmc2pt0ok9Xq9gI5me8H7FtI0ZqOi1bpyg1Db5WyQXCnZOzHdkbg+YOVSetbG23VSTxJ6j+fvPQvZ3qB9zo1pZ19ePl7j7zRjO/VZKG9FKhpY6ctgiIhkIiIAiIgCIiAIiIAiIgMXd/sXFKDyco6lpGVzHxwsXgHbHciczC4zuUD7aWk32XifT6gjge2C+0oIeOhniADh9UtVfhnmdnYgkEeGNlsH7XXD2bWXC2evt0XPcLI8VkQAy5zB8dv0b+5a+CSTzHIJ3wRj/AFnr71eGjLglXbUYvNmx5q7QLYtuuz3JyfuERFMCEKEREAREQBERAEREAREQBR03UqPlBAfss9rnvVzpLRSse+WvqI6VjW+Mh5VtQ4f6bptIaRtOmqUAMt1KyDbxaAD9uVRfsf6JfqjipFeKmEuorBCasnu9OfVj/wAS2CMY1uehyR08h/5Knu0C4eXqW0kfss3X3l69ltq8jTSV8ntO2T3H4a++26319FbJ5Q2puMjoqdh+W4Mc8j6rXFfvc0HYtBHTf3qpnaK4vyac46aPo6Wrd6DTsrairA6ZmIa8Hy9GXD3q11JM2pgZMCHMeA4FvQgjOR9Kh9Zb5aSCKWX/AHEVUJ9brzDcKienj/2lRFKKds/RX8X+I0GpaWmApL/TF0jh/wBuzY/1eVV3JJJycnJytgva50O7VfCusr6SLnrbJIK6PHxvRDaX+qStfJY7OTnA236hXDoqvWttzWu5sXBQevrWttvD3N5SJlCdkyPBYk4BeBnl3HmcFWI4BdmGwcYNFyanuepa6hkZWTUpigYxzcRkDO++d/sC3l0usNnh8vULtkjtos9Te5vN6VMr7yvPsTJ8VdT4BOknZP8AHq7jw/Mxp8AfSPz7u/8A4Ma0Sa6s+Pad+RJf+nN9+zT/AJIUrRXU+APpH593f/wY1PwCNI7f+3d3/wDBjXL06s/8zv8AiY/6c377Nv8AyQpVgkbJ06hetdorgvbOC1+tVntd5qriy40r6hz6hrW8pbI1uNvb9q7P2fOzXYuM2kavUlz1LX0D6e4SUbWQRsc1zWxxu5t985kI9y2U2oaGKhS5Pcvkl25dTTxaYuM1wW1sb+9TmmSvyK57uwZpMB2Nb3Y5B/6Ue/2eSqdrzTkGkdbX3S1PO+aK1V01IyR4aC4MdjJx7EtWo6G8SrBTO35qZvOl7jYokmq2YRdk3yfBTI8FByATkYwQc9B/rCsvwU7KWnuKegaLWFw1RcaCaqlnY6GJjHNb6OVzO/8AZX3ul5p7PEk1Q7Zdjq2eyVV8nWnpUyqb8ytIODlOp3V0T2DNKfF/jzdiO4eij/yVStdadi0jrS+aWgqHzxWmvmo2SPDQXBjyMnHsXxtWoaG8yrDR827qdm86XuVjiSatZhHbJvk+H12Cbheh8C+G1DxX1yNJXC5VFDE6klqBLAGl2W8o7/2lZD4BuknZcddXgnOCfQRd23cuvctT0Frn83qV358snYtOkbne4fOKZiKxNs56lLBk7BQTg8vf4YyV7p2guzrQcHWWH+L15rrrPeZ5YBHMxoJc0NLAMeZK73w37Er7vaYLrxDu9TTyTNEjaClDWuizv6xIO/8A5L5SattzKdKtXbLy/wD4cmaMu0tY+iZH6zEyvd+ZVHlI2LXN/aGEVhe012fNH8HrBaL1piquEjq6rdTyx1MrHgYjLsjYEH1VXoANeS4gHx7/AP1W2tl0iu1L53T+yu35GpvNonslStJUe0iIv5hQQ7GRv3L1Hhh2eNfcUXirttE632rmGa2qHK0jyb8rqrDac7CujKeBjtR6ludZNj84IOWFmfLYrXXDVVtt7uB8mV6oibm1tWjLrdmJJFHhF5KvIpTyuaMljh7VAII2OQryXXsM8NnwuFsvt5pZHbNL3skDT445QT9K8K4sdlTWvDehlvdDUsv1rgY500sMfopI2+Lm5OR5/wCS+VFrC11siRI9UVeWdj73LQ14tsayyxo5qdW74/A8RIx35RMAAYJOw6hFKEwqbLkhyphcBERZAREQBERAEREAREQEElu4/wBbFXp7EWsBddDXHSs0/pJLHWObEPCKQ5H9YOVFsbgqyPYZvLqLiRd7S+XEVday8N8ZGSNx/Vc5RHWtN5zaZHfyYUmuga51HeokTk/1VL2xuby5b37rIHK4Ync0ecY3x9Gy5h0VGnpjboSiIgCIiAIiIAiIgCIiAIiIAod0UqHDKA/DcaOGvppKOoia+OZjmOB7wdiPeMrWNxm4ezcM+Idz0zLERTc5mopR8uFzQWj3bj3LaHy7/d7V4B2suEf8fdHO1DZ6QSXmzgzM5G+tLEPjt+jdSnSN4/ZVbiT2HbfiQPXth/bFvWaJP3jPkUC36knPn3KVLgWnlLHMLcgtcMFpz0UK9kVFTKHm9zVavCoREWTAREQBERAEREAREQAdUJAyTgA7Bx6Dv+4FF9rRmnK3V2qbXpuijLn3Cqjg6ZABJyfqgn3L4VM/m0Xll6ZPtBCtRO2JOuELv9jfQw0zwxjvlTByVd/m/LXF7ckQ4AY0HwwM+9e7XCpgo6N9XM/kZDGXvPN0GP8AIk+5cGnrNSWSz0NqomBlPRU0dPG0Do1rQMLzPtSa2OiuEd0mppzHWXACjpcHBLnbH+rleepXPvVyTH8bvqepKeJmnLLjoxnxwUJ4maql1rry+akmkc9lfWO9Geb4kbXEMHublbBuzlrD+PHCWx3aSQunip/ySff5cR5T9wWtVxLHDlIJaQRvnON/uKtt2EdXujN/0TUSN5W8lxphnfBy14+xn0qydZ2xrrWxGf7WCo9AXd6Xx/lP93JbW82+mu1tq7bVwNkhqoHwyscPjsc0gj7Vqz4gaWn0ZrS9aVnB9JbqySIOIxzx5y1w9oIK2r9WEP8ADBGc7+H0qjvbc0Q+160tutaOnDKe7QmmqHDvnZnl/qlRvQdwWnr1p15SEw7TbX51b21bPaj+RWdxOMAHGNsdSrodkHiHoPSXC+S3am1nZLXUOuVS8RVlwjidykgZw9wPUH6FTDPxTyZHd9GykPkIBLjjG2DghWVqCzJe6RIM435lQ6dvjtPVfnTG8WxtCHG/g7ktPE/SoP8APNOfves4uNPCSolbTU3EnTM8khDWsjusDi4noAA7K1d8zy8D0smMgDLjjfyHsVmOyRwHk1PXs4karhf/AAZRyEUFNJkCaQY/OOB6tbkY88qvLto6ltFK6pmn2Tp3qWjZdfXK91TaWmgTK817kLuwysliErJGva7cOacgjy3KipnjhhfNK4NbGOYuPQY338lMTRFFy55i0EnbHRVb7W/Hp1jpJ+Gulqoi4VUeK+oY/JgjPyG/rOxv5KG2u2y3WqbTwJv19xYd6vEFlonVU69PieK9qXija+JnEKNtkDXUNkhfSNqHf9V/pA5xb5Zbj3Fe/wDYRH/uxuW//wCOVGfL8zAqM8xyeYkuJGSTndXn7CRzwxuR/wD3yf8AuIFZuqqNltsLaZnJFQpvRNyluup3VMnNyOUsq74q1c8b/wCWPWP89VX9sraM/wCKtXPHD+WPWH891X9taHs/2rZPu/VCUdqv+nx/e+h0c93v+9bDux5/IjZ//wCer/v3rXiev0rYd2Pf5D7N/wB4q/79ykuvv9Pb95PkRPst/wBVd9xT3A7D6Fq241/yv6z/AJ8rP71y2ku6e8LVtxr/AJX9Z/z5Wf3rlHuzr/Oyfd+pK+1f/JU/3voehdjH+Wdv81VX+BbA+4rX72MP5Zm/zVVfexbA+5y6OvP9W/7UNh2Y/wCiJ99x1LVWgrbqjU+ntR3Llf8AxfdPLDG4ZDpHhoB92F96W6Wmhby1VdTwAHH5x4aCc92V0TtAcTBwq4c1upIg11Y4fk9ExwyHTuaS048gCVrm1HqzUuqLpUXLUF7qq6aSUvd6WoeWZ6DDQQBgABdexaZqL8zjV/DG3Y++otXUmmJ+BI+J791Ledu2spazQ+mjTTxyN/hY4cx2QfzTumF472XeCg4l6jdfr/BzWGzStMkbgCJ59i1hz1AyDjzXjEl1uk8MdDU3GrlpWSiSOKaoe9kb8Y5mgk8pxke9bEuyxpP+LXBfT/OxrKm4RPrKggDLvSPLmgkdSGloz5KVXTy2k7IlHG/L3Ku/gQizpHrbUS1s7MMaiLjxTY9SoqKjtlNHSUlNFDBC3lZHGwNa0eGB0XmXEntIcN+GFebTdq2aruOATSUMJfI3zduB3L0TUtXJb7JV3AQySup4XyeijZzPcQMgNA78gLWhqHRvFTU1/r9QV2gdSPqa+oknkc63S8w5nE4UO01Z4LtK51bJhqeOCe6uvtVYIGMt8fEq+GcF3uHXak4X8RrvFYaWoq6CvmJEUNdEIxKf1SCV7BJDDVQvhc1kkbwWlrtw7IxgrVzQ6C4o2usprjSaE1LFUUsonilFuk9Ut8c7Y6rZzpuqqqyxUFZVxPimlpo3SMeMOa4tGQR3HOVy1LaqS1StfRycTV8c4X3nHRl+rr1FIy5R8Lm+GMovgUM7VHBuHhtqqO/WNgjs17e8tia3lbTTZJc0eXQ+9eFnr8XB7wtg/bGsNPdODNwr5G/nbZPDOx2M7GRrHf2lr4JyT/lhWbou5SV9vb5VcuYuFUqPX1ojtV2c2JMNemQiIpaQkIiIAiIgCIiAIiIAvcuxwD/tmiI6fwfU/wBleGZxuc48lYzsOWr+EOJ1zuTeZrKC1n1sfLfI0AfQHrQaockdpmz1QkukWOkvNOid5e+IgjbxK5R0XFFHys5c55dui5W9F59TkeqMYJREWQEREAREQBERAEREAREQBERAYO3dynwXBPC17XRuYHBwI3Gx8iv0kd6geW64rvtnc4qiOyipspQXtV8C5NCXx+uNPQEWS5yEzxNb6tPOe/2Hu88qvjg0OLW55Rj4ww7pvnzyts+pdO2rVVpqbHfKVlVR1cTo5InjIIPf7uq13ce+Bt54Q36VzWvqLBUvzSVnLtHn5EnmP3hXBo/UqVUaUNTu9OXincULrzR8lvkW4UaZjd7Sfyr3nlCJ7seRGD70VhbdCrsYCIiAIiIAiIgCIiAj5QVkexNoT+G9cV2s6uDnp7HD6OBzhloqJNv7GfpVbXkNY5xGcNOPaR4e5bHey9oU6G4TWyKrhDK+6c9dVHlxl0h2H1Q1QzWtx8ytyxN9qTb8Cedn1q/aF0SZ/sR7/j0PX2H1QNttvBfG1To7SmsqaKk1Vp6gu1PC7njjrIGSsa7xAd3r60sgjj9I8D1eu+MBeG3XtkcIrNdaq01Lrs+WkldE8w0Zc3macHfPkqco6SqqV/8AiNVVTu5l/V9woaNuK16Ii9/I7uOBXB3v4aabc49c22If4V9TTnDHh/pGudctM6Ns9rrHsMfpqSjjifynu5gAV5Ue2xwaB6X3P/cP/wDSxd22eDnUG9gDcl1AdvPqtktqvj0/eMkVOueRpWXnTkDvKRSR5TljmWA5AfHzXkfak0O7XHCW409NCHVdtIr6c4zh0YJP2ZXoektWWrWdhotS2R5kobhGJYXHry+Y7ui+hc6eKto5aWUN9FLG5knN05CMH7MrW00z7fVMlXZWLubq4U8V1oZIE3a9u34mo88uxaCAQCMjHUKHHC7bxU0fUaF4gX7TEkRY2krHmLPfE71mEf0XBfN0dpG9a41BR6ZsdM+WprJWscWjIYwn1nO9y9Ex1rHUiVP8OMnlWSgmZWLRq31kXhO58BeD1fxe1fHRuEkdooS2S4zAZ9QnZjf1jjfywtjlktVBp+2Utpt1I2lo6OIRQsaMBrRtj7M+9dY4T8MbJwt0hS6bs0bcsHPUTOb60spA5nE+OwHuX1tcaus+itO1epL7UMhpaRhkJLt347lSWorzLf6xGQp6qLhqfU9EaWsNPpi3rLUJhyply/Q6V2geM1Bwj0nJVxSCW61rTBQ04fglx+Xjy/ctc10ulwu1xqrpcqt9TWVszqieV43c4/8AoB7l2finxKvXFDVlXqa6zENleRRwc/qxQj4ox44OfeunDGBg5HirM0tp+O0U/lJFy9eZTustTPv1ZwM/wW8k7/Ejvz4kK8/YR/kwuX8+T/3ECoyM+OBkbq8PYRqI3cO7tStPM6O8PeT5PhiH+BdXXreK1KqfzIdzs2crb41F/lUs24DlJ8lq643/AMsesv56qv7S2iEhzR4EBa3O09pa46Z4v32WrhIhvNQa6ll+TI17RzD2jCiOgZWx3B6L1aTztQhlltkasTKI7c8nGOUHO+DsthvY/YRwQsuRjM1X/fvWviipZ7hUxUlJDLPUzuEcUUQyZHO2A9nQe9bMOAmkK/RHC7T9gugArGQGaZuMFjnnn5D5tzy+5SLtCqIm0kcKO3VckV7LqaVa+Sdrdkaqfmp6N5eGFq341/yv6z/nys/vXLaSTke9atuNf8r+s/58rP71y0nZ0ua2T7v1JF2rf5Gn+99D0PsYfyzN/mqq+9i2B52IWvzsYfyzN/mqq+9i2CDoV0def6t/2obHsx/0RPvuKp9vOpczTulaMucI5K2eVwHTLWNH9l71S8OLhzO6n/Q+zCuX2+P/ALH0l/3qp/sMVNT195U80NGn7Ia5O9fmVj2iOzfnp4J8htg5GctIwenULaZwobCzhxpoQABn8GU2AOn/AA2rVnyl7HMbu92zR067HdbKuzhqSDUvB/TdXTkPEdL+TuPNnDoyWEfYtT2ixOdBE/uU3fZVK2Otla7mqHpspia3mmLeVozl2wHnlcEFTbapgmingeCerXAjK/Fqy0sv2nrjZXymNtZSyQc4dgtLm45s92Fq51jp2+aQ1JXacvlLLDV0crmESgOLm59VwJ6gjBz7VB9P2Nl9e5jpvJqnLbn8SxtValfpxGvWDyjF5rnkv5G1d0tEeskeR+thZCppQMCdg/pLUYXSgY5W/wDhtP7ihe5gAIHOTlrRE3mOAcjAbnfKlLuzt0bcvqP/AB/9iGp2qpxYZS/H+xsb7U9RSv4F6oZ6Zhf+TxlvreErD+5a4ZR6xJO+SDvnpt+5fruNuuFrmFJdaWSlnexjjC+MscGloIwCBtg/evyer8loaPL96l+mrJ+xKZzPKcXEuf8A9zILqzUPpFVNmVnBwpj3kDopRFKF5kQCIiwZCIiAIiIAiKHdEBk1uXDzPXw/1lXZ7DGkpLbo656vqYmg3ao9FC7l3dFESBv7eZUy09Y7jqW8UlgtEJlrK6dsUbMZzk9fvW0ThvpGn0PpC2aXpYw2OhgYxxA+M/GXH6SVXmvbk2KmSkT2nc/ulo9mFrfPXurnew3b8TtrDlqyWLcbgLJVFy5F+BERAEREAREQBERAEREAREQBERAEREBi8A7L4WrNI6f1fZKmw363RVVJVRlr2Pbnu6jwPmvvd/VYnKyx74ncUa4VNz4zRRzNVkiZRUwqGuTjr2ddR8KLg+426lnuGnHv5mVQjL3U4PyZceGNnefkvHvRuLRJkgHfdxJ+1bcLlb6a50stHVwxTQytLHxyt5mEHrlVO419jlks1VqXhdK2KUkyTWp7vUdkdIz8n2K0NP62bKiU9x59FKU1V2dywuWqtW7eatXp7in6L6F/sN405dJbRebbLQVcGBJDPF6N2fIeHmvnY7unl4KymTMlaj2LlFKlkhfA5WyJhU6KSijkwgGF9UOGckoiIZCjx9ilFhzQdv4SaLm1/wAQbHpiIHlqqgOlcBnlhYC6Q/VGPetoNDBHSUzKeJvIyJga1uOgGwC1ucBeLNj4O6krNTXLTM13qZYGw0/o52s9CMkuO4PUEL3w9viy4Df9nFftv/z7fwqrtX2m63Wsb5vFmNqeG6/mXDoG9WWxUbnVc2JHc0wvL8j3njRq+HRHDK/aikka19PRSCIE4LpHDlbjzyVq/lqKiaWSone4SPdzOBduCdzle9cdu0+zi7piDTNu03VWmFtYyqqDJUCT0rWggNwAPFeBkEAZ6jY7reaLss9sp3uqW4kVeXgR/X2oYL3VsZSOzG1Nl71JD34z6V31lD3OezBc5wHdzez/ACRRgde9TZyN4cLyK/RdsdS7HYd1025aTuGh6mUCa0T+mp2l+7oZNyMeRz9Ks9hshDHnIHl4jZaxeC3FKo4Sa2h1U2lkq6YxOgqaZknJ6Vp+LucjY+Ssc3t8WgDJ4dV2D/8APsP+AKndTaVr5q989JHxMdv05l66R1rb4bYyKvl4HtXHXdDr/bl0U+jutq19R0xLayI0VSQ3bmacsLj4bn6F6p2XOCVDw+0xFqm4mOe+XmASumBz6KF3rBo8sEFeI8Y+1Zp7itoet0lJoKrpZZi2SCofVteIpB0OOVdn0z24bPp/T9usjtA1k7qGlipzKK5o5yxgaTjl23C7VRQX59njoEiVMLvy5dDp01003FfZbi6XLVTbZdnfkXCjAADRsPavi6u0NpTXNCy26tskF0pGSNkbFNktDxkA4z5qtY7fVl6/7OK7P/f2fhU/D7snfw4rv/r2fhUaZpW9MVHsiVF96fqTGTW+npW8D50VF55Rf0PaB2ceCR3PDq0Hu3iPdt4+SHs4cEcb8N7P/wCGf814t8PuzDpw4rv/AK9n4UPb8sw68OK4f/32fhXc/YmpO5//AC/9joJqDR6JhPJ/8P7Hm3bF0FpDQerrDR6PsVLaqeooJJ52wtIa5zZmAH24J+hfS7EmvIbBq64aOr5WwRXaMS0+TgOnbs4fQCuhdoHjbR8ar5bLxTafntraCkfT+jklEhkJka7OQB4dF5hQ19Zbaynr6CpkgqKaT0kczerXA7EKwaWz1FbY/M6zPlMdd1zkqupvlLQ6iWuoceSz0TCY9xtyY9kgPKQR5H6PsXVdb8N9GcQKJtBqyw01wjjPNH6XILD4tIwc+9Vo4ZdtqlordHbuIljqZKiMAGvpQHB4AABe3rz7HPlhei1XbT4NR0z3x1F3llLciNtA9pcfAE7Krnafu1DOrWxrnOyoXKzVdiuNPxTyNxjdHHcNK8EOE/Dmokvdi0xTUk8TS/8AKZnulcwAE5Bkc7l7/Bdt0jqyzaxtv8M2Gr9PRColpw/Bw50by1xB7xkdRsqR8Z+1hqbiDTS2PS1JLZLRN8c+kH5RMwA9SPijbov3cGe1fbuFWh6LSFVo6quL6R8znTx1TY2v55HPyAQcfGW2qNKXaal85mRXyKuyLzRPE0VHreyUlb5rT4bF1VOWfAve45GGnJWrjjV/K9rPP/55Wf3rlZM9ve0kgs4dVwGf/j2D/Cqqa61EzV+s73qqKkNMy7V81Y2EuBLA95OCQBnqpFomy11sq5HVkfCit+pG+0LUNtvFHGyil4lR30PWuxh/LM3+aqn72LYHk4w3qtYvBHibTcJNbN1bV2mS4s/JJqb0McojcObBzzEH9FWJHb7srRj/AGcV2+4/39nf/RXR1fYbjcbj5eli4moib7Hd0Hqa12u1eQq5eFeJe/8AQnt9Z/gbSGRj/eqr+yxU28T5le19oPtCUXHCks9JR6ZntZtkk0jvSziUSBzQMYAHgvE2kcoA6KZaSopqG2sp6luFy7b8SB60r4LleH1NI7ibhN+/Yc2Hg9SBsPvVkOyFxop9HXeo0LqSsjp7Xc5BJS1D3tY2KYgNw4nuIaAFW/vCyD3NaWsJBPe04IWyvFtiu1KtNL15e81Fmu01kq2VcHNOad6G3OOSOZrSC17XnLSHZGO47Lp+veEOgeJMfJqiwQVb2j1ZgCyRn7Lx71Snhd2reIPD+nhs9yjhvlrjLWsZUPLJImjuY8be47L3+ydt7hfU00brtbL3QTH48f5KJAw/tNO/uVNVOmbzbJeKFq/9pfNJrWxXqFGVSo3PNHdD9EnYm4PmRr2tvYAPxBXE537+9d00f2c+FGhp/wAss+loH1Q3E9S50z27frLqtT21OC9PEZIaq7Tux/w2UDg7+sQvPNaduqGWJ8OiNIS85b6k1xkDBk5GzGEnwX2bRakuGI3I/HXJ8Jq7SVsRZ2cCu8DyLtXsazjfemNxysgomgDoB6FvQdy8gzn7V9rWWsb7rzUNTqbUcsc1dU8oe5kQaAGtAAHlt37r4nuI9owrgtNJJR0cUMvtNTClFXipirK6WeH2XLlCURFsjVhERDIREQwERFlV4UyZGNs5UENwS8nlAyQNydwpA6uzgAet7PYrCdnDs1XLX1fT6t1nRyU2n6ciSCCRvK6tcMEexgyN+85C1dzusNriWpqFwmNk71NrZ7RVXqqbS0yZVefgh3fsd8FqmBw4oX+he18gdHbWPZgsaT60vvG39FW/YwB2QMe5cFvoqe30cVHTRMjihaGMaxnKAB0GO5fpGMqgrrcpbtVuqJfwPTdgssVjo20sW69TMbqVA6KVrk8TehERZAREQBERAEREAREQBERAEREAREQBERAQTgrhfE14Id3nIydh7lzogOi6/wCE+h+I1I+h1Np+Go9IABOxvJKw+LX/ALlVjiJ2I9RW+aer4fXSO4U4dkUtWeWQN7hzd6u+QObPesXNcQTkrcW2/wBdal/cP27l5EbvOlbbe2r5wzDu9OZqi1PojWmi53UmqNM11uLTj0k0LhG49PVcNsbL4GSev3Y/9VttrrTR3OMwXCip6hh2IlZzbLzPVXZm4QatLzXaTp6aVxz6ajcYHj6NlOrf2ho1OGqjX3pun5FaXDsqnRVdQSoqdy7L+ZreGO8ortXXsJ6KqeY2bVt1oz3eljjnAHs2P2rqVf2Cb+x7jbuINJOz5ImonM+5zvv9y38OtbRNzkx4K1SMT9nl8hXaPi9zkKpbd5TA8VZw9g/X5O2sLFj9iX94Kj4B2v8A54WL6kn4V2vS6yr/AL3z/Q6noRf05U6/ArJgeKYHirN/AO1/88LF9ST8KfAO1/8APCxfUk/Csel1l+2+f6D0Iv8A/Tu+BWTA8UwPFWb+Adr/AOeFi+pJ+FPgHa/+eFi+pJ+FPS6y/bfP9B6EX/8Ap3fArJgeKYHirN/AO1/88LF9ST8KfAO1/wDPCxfUk/CnpfZ/tvn+g9CL/wD06/ArJgeKYHirN/AO4gfPCx/Uk/CnwDuIHzvsf1JPwp6XWb7b5mfQe/f07vgVkwPFMDxVm/gHa/8AnhYvqSfhT4B2v/nhYvqSfhT0usv23z/Qx6EX/pTu+BWTA8UwPFWb+AdxA+eFj+pJ+FPgHcQPnfY/qSfhT0usv23z/Qz6EX7+nd8CsmB4pgeKs38A7X/zwsX1JPwp8A7X/wA8LF9ST8Kel1l+2+f6GPQi/wDSnd8CsmB4pgeKs38A7X/zwsX1JPwp8A7X/wA8LF9ST8Kel1l+2+f6D0Iv/wDTr8Csbg07kDbfPes9iA4OefuVmfgHa/8AnhYvqSfhT4B2v/nhYvqSfhT0usvWX5j0Iv8A9g74fqVlJ5tyVGB4qzfwDuIHzwsX1JPwp8A7iB877H9ST8Kz6XWX7b5/oE0Pfv6d3wKyYHimB4qzfwDuIHzvsf1JPwp8A7iB877H9ST8Kel1l+2+f6GfQe+/07vgVkwPFMDxVm/gHa/+eFi+pJ+FPgHa/wDnhYvqSfhWPS6y/bfP9DHoRf8ApTu+BWTA8UwPFWb+Adr/AOeFi+pJ+FPgHa/+eFi+pJ+FPS6y/bfP9B6EX/8Ap3fArJgeKYHirN/AO1/88LF9ST8KfAO1/wDPCxfUk/CnpdZftvn+g9CL/wD06/ArIWtcMOGQpyQ3kzhvgrNfAO1/88LF9ST8KfAO1/8APCxfUk/CsLq2y/bf/vyMehF//p3fD9Ss2HObyufsseVo2DsqzfwDtf8AzwsX1JPwp8A7X/zwsX1JPwrKats3Sf5/oPQjUH2DvgVkwPFMDxVm/gHcQPnhY/qSfhT4B3ED532P6kn4Vn0usvWb5/oZ9B79/Tu+BWTA8UwPFWb+Adr/AOeFi+pJ+FPgHa/+eFi+pJ+FY9L7P0m+f6D0Iv8A0p3fArJgeKYHirN/AO4gfPCx/Uk/CnwDuIHzvsf1JPwp6XWXrN8/0M+g9+/p3fArJkjYFPerN/AO4gfPCx/Uk/Cv22rsGalfMTetcW6OMf8Aw9I+R39YtH2Li7V9namUl+Zluh7853D5vjx2Kr4zsvq6d0pqTV9ey2aYs9XcKhzmtLYYyWjfbmI6DzV2tL9ifhlbHMk1FVVl9kYeZrZ3+jjz7G7/AGr27Tmi9N6UpvyHTtoorfTtaGgQRBpwPF3efatFce0GnjaraJquVeq8iT2zsurJlR1a9GJ1RN1/sVr4N9jaC3Og1DxNc2rqmlkkdtiJELCDkc7j8Yjfb2K1VJSU9DTx09LEyOKMBrWsGAAO4BfqYMDuI8VO2VWdxulVdZvK1Ls+HQt+z2Kiscfk6VuPFeYb0WShu4UrXpleZuECIiyZCIiAIiIAiIgCIiALF3VZIgIb0UoiAIiIAiIgCIiAIiIAoO6lEBiGgKeUeClEBHKE5QpRARgJgKUQEcoTlClEBHKEwFKICMBMBSiAjATlClEBGAmApRAQBhCMqUQGOAOqnAPRSiAjATAUogI5QnKFKICAMIRlSiAjlCcoUogI5QnKFKICOUJyhSiAjATA8FKICMBOUKUQEcoTlClEBAGEIypRARyhOUKUQEcoTlClEBHKFBa3vWSIDDlYsgAOilEAREQBERAEREARFi7qgMkUN6KUAREQBERAEREAREQBERAEREAREQBERAEREAREQBERAEREAREQBERAEREAREQBERAEREAREQBERAEREAREQBERAEREAREQBERAEREAREQBERAEREAREQBERAEREAREQBERAEREAREQBERAEREAREQBERAEREAREQBERAEREAREQBERAEREAREQBERAEREAREQBERAEREAREQBERAEREAREQBERAEREAREQBERAEREAREQBERAEREAREQBERAEREAREQBERAEREAREQBERAEREAREQBERAEREBX/sU9q34YPC268S/4hfxS/gy/z2L8i/hT8v8ASejpqeb0vpPQxYz+U8vLynHJnO+B78envREBI6KHdURAS3opREAREQBERAEREAREQBR3+5EQAd/tUoiAIiIAiIgCIiAIiIAiIgCIiAIiIAiIgCIiAIiIAiIgCIiAIiIAiIgCIiAIiIAiIgMXdVLeiIgJWLuqIgJb0UoiALF3VEQEt6KURAYu6qW9ERASiIgMXdVLeiIgJWLuqIgJb0UoiAIiIAiIgP/Z;strokeColor=none;points=[];labelBackgroundColor=none;rounded=0;html=1;whiteSpace=wrap;" vertex="1" parent="DCACu17-N9n2SlaQlLxh-19">
            <mxGeometry x="-1150" y="330" width="45" height="34.2" as="geometry" />
          </mxCell>
        </UserObject>
      </root>
    </mxGraphModel>
  </diagram>
</mxfile>
